<?xml version="1.0" encoding="UTF-8"?> <svg xmlns="http://www.w3.org/2000/svg" width="1036" height="1036" viewBox="0 0 1036 1036" fill="none"><mask id="mask0_1_1720" style="mask-type:alpha" maskUnits="userSpaceOnUse" x="0" y="0" width="1036" height="1036"><circle cx="518" cy="518" r="518" transform="rotate(180 518 518)" fill="url(#paint0_radial_1_1720)"></circle></mask><g mask="url(#mask0_1_1720)"><path d="M467.677 102.206L470.225 102.206L470.225 249.27L325.758 393.753L162.257 393.753L162.257 391.204L324.691 391.204L467.677 248.218L467.677 102.206Z" fill="#001E6C"></path><path d="M326.395 142.358L328.195 144.158L206.728 265.609L103.865 265.609L103.865 263.077L205.677 263.077L326.395 142.358Z" fill="#001E6C"></path><path d="M395.093 140.782L396.893 142.582L236.243 303.232L92.6997 303.232L92.6997 300.684L235.192 300.684L395.093 140.782Z" fill="#001E6C"></path><path d="M582.263 102.204L584.811 102.204L584.811 313.49L584.445 313.856L355.257 543.061L353.457 541.245L582.263 312.439L582.263 102.204Z" fill="#001E6C"></path><path d="M103.865 582.212L534.24 582.212L534.623 582.594L624.218 672.189L622.418 673.989L533.189 584.76L103.865 584.76L103.865 582.212Z" fill="#001E6C"></path><path d="M178.727 618.051L509.727 618.051L755.561 863.884L921.595 863.884L921.595 866.433L754.509 866.433L754.143 866.066L508.66 620.599L178.727 620.599L178.727 618.051Z" fill="#001E6C"></path><path d="M548.878 304.873L551.426 304.873L551.426 102.205L548.878 102.205L548.878 304.873Z" fill="#00AEFF"></path><path d="M447.783 380.436L449.599 382.236L371.982 459.854L97.4938 459.854L97.4938 457.305L370.93 457.305L447.783 380.436Z" fill="#001E6C"></path><path d="M97.4775 492.124L299.923 492.124L299.923 489.576L97.4775 489.576L97.4775 492.124Z" fill="#001E6C"></path><path d="M430.294 102.205L432.843 102.205L432.843 226.969L373.272 286.54L371.472 284.74L430.294 225.918L430.294 102.205Z" fill="#001E6C"></path><path d="M604.292 372.885L764.863 533.44L921.594 533.44L921.594 535.988L763.795 535.988L763.429 535.622L602.492 374.685L604.292 372.885Z" fill="#001E6C"></path><path d="M782.798 484.079L921.594 484.079L921.594 481.531L782.798 481.531L782.798 484.079Z" fill="#001E6C"></path><path d="M690.271 102.205L692.82 102.205L692.82 349.217L756.405 412.818L873.189 412.818L873.189 415.366L755.353 415.366L690.271 350.284L690.271 102.205Z" fill="#001E6C"></path><path d="M736.781 150.689L739.33 150.689L739.33 321.82L778.258 360.748L921.594 360.748L921.594 363.297L777.207 363.297L736.781 322.872L736.781 150.689Z" fill="#001E6C"></path><path d="M871.914 102.206L874.463 102.206L874.463 241.847L824.21 292.1L822.41 290.284L871.914 240.795L871.914 102.206Z" fill="#001E6C"></path><path d="M828.542 218.67L831.091 218.67L831.091 102.22L828.542 102.22L828.542 218.67Z" fill="#001E6C"></path><path d="M648.747 524.998L756.245 632.496L938 632.496L938 635.045L755.178 635.045L754.812 634.663L646.947 526.798L648.747 524.998Z" fill="#00AEFF"></path><path d="M761.579 580.728L763.381 578.926L584.606 400.151L582.804 401.953L761.579 580.728Z" fill="#001E6C"></path><path d="M643.746 599.765L808.665 764.684L921.595 764.684L921.595 767.232L807.614 767.232L807.247 766.866L641.946 601.565L643.746 599.765Z" fill="#001E6C"></path><path d="M319.642 673.925L458.279 673.925L458.279 676.474L320.693 676.474L180.001 817.166L180.001 924.091L177.452 924.091L177.452 816.115L319.642 673.925Z" fill="#001E6C"></path><path d="M-25.2965 950L215.498 699.322L213.696 697.519L-27.0976 948.197L-25.2965 950Z" fill="#001E6C"></path><path d="M235.191 924.091L237.74 924.091L237.74 830.561L235.191 830.561L235.191 924.091Z" fill="#001E6C"></path><path d="M705.294 924.994L707.096 923.192L545.655 761.751L543.853 763.553L705.294 924.994Z" fill="#00AEFF"></path><path d="M416.325 817.692L531.947 817.692L532.329 818.058L637.454 923.199L635.654 924.999L530.896 820.24L416.325 820.24L416.325 817.692Z" fill="#001E6C"></path><path d="M103.848 213.925L186.149 213.925L186.149 211.376L103.848 211.376L103.848 213.925Z" fill="#001E6C"></path><path d="M798.422 694.106L917.245 694.106L917.245 691.558L798.422 691.558L798.422 694.106Z" fill="#001E6C"></path><path d="M415.975 731.632L417.775 733.432L348.472 802.719L348.472 924.091L345.923 924.091L345.923 801.668L415.975 731.632Z" fill="#001E6C"></path><path d="M391.509 924.091L394.058 924.091L394.058 848.703L391.509 848.703L391.509 924.091Z" fill="#001E6C"></path><path d="M162.257 385.038C158.149 385.038 154.819 388.369 154.819 392.477C154.819 396.585 158.149 399.915 162.257 399.915C166.365 399.915 169.696 396.585 169.696 392.477C169.696 388.369 166.365 385.038 162.257 385.038Z" fill="#001E6C"></path><path d="M396.001 134.251C391.893 134.251 388.563 137.581 388.563 141.69C388.563 145.798 391.893 149.128 396.001 149.128C400.109 149.128 403.439 145.798 403.439 141.69C403.439 137.581 400.109 134.251 396.001 134.251Z" fill="#001E6C"></path><path d="M319.865 143.251C319.865 141.779 320.301 140.34 321.119 139.117C321.937 137.893 323.1 136.94 324.46 136.377C325.82 135.815 327.317 135.668 328.76 135.957C330.203 136.245 331.529 136.955 332.568 137.997C333.608 139.039 334.315 140.366 334.6 141.81C334.885 143.254 334.736 144.75 334.17 146.109C333.605 147.468 332.649 148.628 331.424 149.444C330.199 150.259 328.759 150.693 327.287 150.689C325.317 150.685 323.429 149.9 322.038 148.505C320.646 147.111 319.865 145.221 319.865 143.251Z" fill="#001E6C"></path><path d="M354.365 534.715C350.257 534.715 346.927 538.045 346.927 542.153C346.927 546.262 350.257 549.592 354.365 549.592C358.473 549.592 361.803 546.262 361.803 542.153C361.803 538.045 358.473 534.715 354.365 534.715Z" fill="#001E6C"></path><path d="M299.923 482.806C295.815 482.806 292.484 486.136 292.484 490.244C292.484 494.352 295.815 497.683 299.923 497.683C304.031 497.683 307.361 494.352 307.361 490.244C307.361 486.136 304.031 482.806 299.923 482.806Z" fill="#001E6C"></path><path d="M448.69 373.904C444.582 373.904 441.252 377.235 441.252 381.343C441.252 385.451 444.582 388.781 448.69 388.781C452.798 388.781 456.129 385.451 456.129 381.343C456.129 377.235 452.798 373.904 448.69 373.904Z" fill="#001E6C"></path><path d="M542.714 304.873C542.714 303.402 543.15 301.964 543.967 300.741C544.785 299.517 545.947 298.564 547.306 298.001C548.665 297.438 550.161 297.291 551.603 297.578C553.046 297.865 554.372 298.573 555.412 299.613C556.452 300.654 557.161 301.979 557.448 303.422C557.735 304.865 557.587 306.36 557.024 307.72C556.461 309.079 555.508 310.241 554.285 311.058C553.062 311.875 551.623 312.312 550.152 312.312C548.179 312.312 546.288 311.528 544.893 310.133C543.498 308.738 542.714 306.846 542.714 304.873Z" fill="#00AEFF"></path><path d="M622.211 665.658C618.103 665.658 614.773 668.989 614.773 673.097C614.773 677.205 618.103 680.535 622.211 680.535C626.319 680.535 629.65 677.205 629.65 673.097C629.65 668.989 626.319 665.658 622.211 665.658Z" fill="#001E6C"></path><path d="M178.727 611.886C174.618 611.886 171.288 615.216 171.288 619.324C171.288 623.432 174.618 626.763 178.727 626.763C182.835 626.763 186.165 623.432 186.165 619.324C186.165 615.216 182.835 611.886 178.727 611.886Z" fill="#001E6C"></path><path d="M214.596 691.016C210.488 691.016 207.158 694.346 207.158 698.454C207.158 702.562 210.488 705.893 214.596 705.893C218.705 705.893 222.035 702.562 222.035 698.454C222.035 694.346 218.705 691.016 214.596 691.016Z" fill="#001E6C"></path><path d="M229.027 830.578C229.024 829.106 229.458 827.666 230.273 826.441C231.089 825.215 232.249 824.259 233.608 823.694C234.967 823.129 236.463 822.979 237.907 823.264C239.351 823.549 240.678 824.257 241.72 825.296C242.762 826.336 243.472 827.661 243.76 829.105C244.048 830.548 243.902 832.044 243.339 833.404C242.777 834.765 241.824 835.927 240.6 836.745C239.376 837.563 237.938 838 236.466 838C234.496 838 232.606 837.219 231.212 835.827C229.817 834.435 229.032 832.548 229.027 830.578Z" fill="#001E6C"></path><path d="M417.089 725.086C412.981 725.086 409.651 728.416 409.651 732.525C409.651 736.633 412.981 739.963 417.089 739.963C421.198 739.963 424.528 736.633 424.528 732.525C424.528 728.416 421.198 725.086 417.089 725.086Z" fill="#001E6C"></path><path d="M392.784 841.265C388.676 841.265 385.345 844.595 385.345 848.703C385.345 852.811 388.676 856.142 392.784 856.142C396.892 856.142 400.222 852.811 400.222 848.703C400.222 844.595 396.892 841.265 392.784 841.265Z" fill="#001E6C"></path><path d="M416.325 811.528C412.217 811.528 408.887 814.858 408.887 818.966C408.887 823.074 412.217 826.404 416.325 826.404C420.433 826.404 423.763 823.074 423.763 818.966C423.763 814.858 420.433 811.528 416.325 811.528Z" fill="#001E6C"></path><path d="M450.841 675.2C450.838 673.728 451.272 672.288 452.087 671.063C452.903 669.837 454.063 668.882 455.422 668.316C456.781 667.751 458.277 667.601 459.721 667.886C461.165 668.171 462.492 668.879 463.534 669.918C464.576 670.958 465.286 672.283 465.574 673.727C465.863 675.17 465.716 676.666 465.154 678.027C464.591 679.387 463.638 680.549 462.414 681.367C461.191 682.185 459.752 682.622 458.28 682.622C456.31 682.622 454.42 681.841 453.026 680.449C451.631 679.058 450.846 677.17 450.841 675.2Z" fill="#001E6C"></path><path d="M544.769 755.222C540.661 755.222 537.33 758.552 537.33 762.66C537.33 766.768 540.661 770.099 544.769 770.099C548.877 770.099 552.207 766.768 552.207 762.66C552.207 758.552 548.877 755.222 544.769 755.222Z" fill="#00AEFF"></path><path d="M798.438 685.394C794.33 685.394 791 688.724 791 692.832C791 696.94 794.33 700.271 798.438 700.271C802.546 700.271 805.877 696.94 805.877 692.832C805.877 688.724 802.546 685.394 798.438 685.394Z" fill="#001E6C"></path><path d="M755.051 578.646C755.051 577.174 755.487 575.736 756.304 574.513C757.122 573.29 758.283 572.336 759.642 571.773C761.002 571.21 762.497 571.063 763.94 571.35C765.383 571.637 766.708 572.346 767.749 573.386C768.789 574.426 769.497 575.752 769.784 577.194C770.071 578.637 769.924 580.133 769.361 581.492C768.798 582.851 767.845 584.013 766.622 584.83C765.398 585.648 763.96 586.084 762.489 586.084C760.516 586.084 758.624 585.3 757.229 583.905C755.834 582.51 755.051 580.618 755.051 578.646Z" fill="#001E6C"></path><path d="M648.046 518.451C643.938 518.451 640.608 521.782 640.608 525.89C640.608 529.998 643.938 533.328 648.046 533.328C652.154 533.328 655.484 529.998 655.484 525.89C655.484 521.782 652.154 518.451 648.046 518.451Z" fill="#00AEFF"></path><path d="M576.115 401.064C576.115 399.592 576.552 398.153 577.37 396.929C578.188 395.706 579.351 394.752 580.711 394.19C582.071 393.627 583.567 393.481 585.011 393.769C586.454 394.058 587.779 394.768 588.819 395.809C589.859 396.851 590.566 398.178 590.851 399.622C591.136 401.066 590.987 402.562 590.421 403.921C589.856 405.28 588.9 406.441 587.675 407.256C586.449 408.071 585.01 408.505 583.538 408.502C581.568 408.498 579.68 407.712 578.288 406.318C576.897 404.923 576.115 403.034 576.115 401.064Z" fill="#001E6C"></path><path d="M595.962 373.284C595.962 371.813 596.398 370.375 597.215 369.152C598.033 367.928 599.194 366.975 600.553 366.412C601.913 365.849 603.408 365.702 604.851 365.989C606.294 366.276 607.619 366.984 608.66 368.025C609.7 369.065 610.408 370.39 610.695 371.833C610.982 373.276 610.835 374.772 610.272 376.131C609.709 377.49 608.756 378.652 607.533 379.469C606.309 380.286 604.871 380.723 603.4 380.723C601.427 380.723 599.535 379.939 598.14 378.544C596.745 377.149 595.962 375.257 595.962 373.284Z" fill="#001E6C"></path><path d="M774.929 482.821C774.91 481.346 775.33 479.899 776.135 478.663C776.941 477.427 778.096 476.459 779.454 475.881C780.811 475.304 782.31 475.143 783.759 475.419C785.208 475.695 786.542 476.396 787.592 477.432C788.642 478.468 789.36 479.794 789.655 481.239C789.95 482.684 789.808 484.185 789.248 485.55C788.688 486.914 787.735 488.082 786.509 488.904C785.284 489.725 783.842 490.164 782.367 490.164C780.411 490.164 778.533 489.394 777.141 488.019C775.748 486.645 774.954 484.777 774.929 482.821Z" fill="#001E6C"></path><path d="M865.75 413.439C865.747 411.967 866.181 410.527 866.996 409.302C867.812 408.077 868.972 407.121 870.331 406.555C871.69 405.99 873.186 405.84 874.63 406.126C876.074 406.411 877.401 407.118 878.443 408.158C879.485 409.197 880.195 410.523 880.483 411.966C880.771 413.409 880.625 414.906 880.063 416.266C879.5 417.626 878.547 418.789 877.323 419.607C876.099 420.425 874.661 420.861 873.189 420.861C871.219 420.861 869.329 420.08 867.935 418.688C866.54 417.297 865.755 415.409 865.75 413.439Z" fill="#001E6C"></path><path d="M815.88 291.19C815.88 289.719 816.316 288.281 817.133 287.058C817.951 285.835 819.112 284.881 820.472 284.318C821.831 283.755 823.326 283.608 824.769 283.895C826.212 284.182 827.538 284.89 828.578 285.931C829.618 286.971 830.327 288.296 830.614 289.739C830.901 291.182 830.753 292.678 830.19 294.037C829.627 295.396 828.674 296.558 827.451 297.375C826.227 298.193 824.789 298.629 823.318 298.629C821.345 298.629 819.453 297.845 818.058 296.45C816.663 295.055 815.88 293.163 815.88 291.19Z" fill="#001E6C"></path><path d="M822.394 218.67C822.391 217.198 822.825 215.757 823.641 214.532C824.457 213.306 825.619 212.35 826.978 211.785C828.338 211.22 829.835 211.072 831.28 211.358C832.724 211.645 834.051 212.353 835.092 213.395C836.133 214.436 836.842 215.763 837.129 217.207C837.415 218.652 837.266 220.148 836.701 221.508C836.137 222.868 835.181 224.03 833.955 224.846C832.729 225.662 831.289 226.096 829.816 226.093C827.849 226.089 825.964 225.305 824.573 223.914C823.182 222.523 822.398 220.638 822.394 218.67Z" fill="#001E6C"></path><path d="M730.617 150.69C730.617 149.218 731.053 147.78 731.871 146.557C732.688 145.334 733.85 144.38 735.209 143.817C736.568 143.254 738.064 143.107 739.507 143.394C740.95 143.681 742.275 144.39 743.315 145.43C744.356 146.47 745.064 147.795 745.351 149.238C745.638 150.681 745.491 152.177 744.928 153.536C744.365 154.895 743.411 156.057 742.188 156.874C740.965 157.692 739.527 158.128 738.056 158.128C736.083 158.128 734.191 157.344 732.796 155.949C731.401 154.554 730.617 152.662 730.617 150.69Z" fill="#001E6C"></path><path d="M364.941 283.753C364.941 282.282 365.378 280.844 366.195 279.62C367.012 278.397 368.174 277.444 369.533 276.881C370.892 276.318 372.388 276.171 373.831 276.458C375.274 276.745 376.599 277.453 377.639 278.493C378.68 279.534 379.388 280.859 379.675 282.302C379.962 283.745 379.815 285.24 379.252 286.6C378.689 287.959 377.735 289.121 376.512 289.938C375.289 290.755 373.851 291.191 372.38 291.191C370.407 291.191 368.515 290.408 367.12 289.013C365.725 287.618 364.941 285.726 364.941 283.753Z" fill="#001E6C"></path><path d="M178.726 212.65C178.723 211.177 179.157 209.737 179.973 208.511C180.789 207.286 181.951 206.33 183.311 205.765C184.671 205.2 186.168 205.051 187.612 205.338C189.056 205.624 190.383 206.333 191.424 207.374C192.466 208.415 193.174 209.742 193.461 211.187C193.747 212.631 193.599 214.128 193.034 215.488C192.469 216.848 191.513 218.009 190.287 218.825C189.062 219.641 187.621 220.075 186.149 220.072C184.182 220.068 182.296 219.285 180.905 217.894C179.514 216.503 178.731 214.617 178.726 212.65Z" fill="#001E6C"></path></g><defs><radialGradient id="paint0_radial_1_1720" cx="0" cy="0" r="1" gradientUnits="userSpaceOnUse" gradientTransform="translate(518 518) rotate(90) scale(518)"><stop offset="0.1319" stop-color="#D9D9D9"></stop><stop offset="1" stop-color="#737373" stop-opacity="0"></stop></radialGradient></defs></svg> 