<?xml version="1.0" encoding="UTF-8"?> <svg xmlns="http://www.w3.org/2000/svg" width="735" height="111" viewBox="0 0 735 111" fill="none"><mask id="mask0_1393_802" style="mask-type:luminance" maskUnits="userSpaceOnUse" x="378" y="20" width="81" height="70"><path d="M458.531 20H378V90H458.531V20Z" fill="white"></path></mask><g mask="url(#mask0_1393_802)"><path d="M387.639 64.6264C392.962 64.6264 397.277 60.3164 397.277 54.9997C397.277 49.6831 392.962 45.373 387.639 45.373C382.315 45.373 378 49.6831 378 54.9997C378 60.3164 382.315 64.6264 387.639 64.6264Z" fill="white"></path><path d="M448.892 64.6264C454.216 64.6264 458.531 60.3164 458.531 54.9997C458.531 49.6831 454.216 45.373 448.892 45.373C443.569 45.373 439.254 49.6831 439.254 54.9997C439.254 60.3164 443.569 64.6264 448.892 64.6264Z" fill="white"></path><path d="M432.936 39.2533C438.259 39.2533 442.574 34.9433 442.574 29.6267C442.574 24.31 438.259 20 432.936 20C427.612 20 423.297 24.31 423.297 29.6267C423.297 34.9433 427.612 39.2533 432.936 39.2533Z" fill="white"></path><path d="M432.936 89.999C438.259 89.999 442.574 85.6887 442.574 80.3723C442.574 75.0556 438.259 70.7456 432.936 70.7456C427.612 70.7456 423.297 75.0556 423.297 80.3723C423.297 85.6887 427.612 89.999 432.936 89.999Z" fill="white"></path><path d="M426.745 59.7137C426.746 59.7128 426.748 59.7115 426.749 59.7099C429.383 55.101 427.773 49.2111 423.159 46.5778C422.32 46.099 421.42 45.7499 420.487 45.5407C420.285 45.4957 420.085 45.4572 419.894 45.4277C419.77 45.4084 419.643 45.3904 419.514 45.3763C418.575 45.1723 417.673 44.8257 416.83 44.3457C412.986 42.1521 411.171 37.5236 412.499 33.3199C412.501 33.3135 412.504 33.3071 412.506 33.3006C412.621 33.0247 412.722 32.7428 412.811 32.4574C413.19 31.229 413.316 29.9532 413.185 28.6709L413.18 28.6195C413.166 28.4886 413.149 28.3577 413.13 28.2268L413.116 28.1292C413.098 28.0137 413.076 27.8982 413.054 27.7865L413.05 27.7621C413.045 27.7326 413.04 27.7031 413.032 27.671C413.005 27.5401 412.974 27.4053 412.94 27.2731C412.921 27.2025 412.902 27.1319 412.882 27.0626L412.861 26.9894C412.85 26.9471 412.837 26.9034 412.824 26.8611C412.798 26.775 412.77 26.6904 412.743 26.6056C412.726 26.5543 412.708 26.503 412.69 26.4516C412.661 26.3695 412.631 26.2873 412.6 26.2064C412.578 26.15 412.557 26.0948 412.532 26.0344C412.503 25.96 412.473 25.8868 412.442 25.815C412.414 25.7508 412.384 25.6866 412.355 25.6224L412.325 25.5582C412.306 25.5146 412.285 25.4722 412.266 25.4325C412.138 25.168 411.994 24.9023 411.838 24.6469L411.825 24.6264C411.751 24.5032 411.671 24.3812 411.584 24.2503C410.983 23.3608 410.245 22.5842 409.389 21.9425C409.351 21.9142 409.314 21.8873 409.275 21.8603L409.218 21.818C409.162 21.7782 409.107 21.7384 409.052 21.7012C408.972 21.646 408.893 21.5946 408.81 21.5407L408.788 21.5266C408.76 21.5086 408.733 21.4907 408.707 21.4753C408.612 21.4162 408.517 21.3585 408.416 21.2994C408.402 21.2917 408.387 21.2827 408.372 21.2737C408.362 21.2673 408.351 21.2622 408.34 21.2558C408.213 21.1839 408.082 21.1133 407.947 21.0453L407.93 21.0363C407.791 20.9657 407.648 20.8989 407.51 20.8373L407.489 20.8283C407.354 20.768 407.213 20.7103 407.066 20.6538L407.034 20.6409C406.908 20.5922 406.778 20.546 406.64 20.501L406.57 20.4779C406.452 20.4394 406.332 20.4035 406.213 20.3701L406.185 20.3624C406.156 20.3547 406.127 20.3457 406.097 20.338C405.994 20.3098 405.889 20.2854 405.786 20.261L405.754 20.2533C405.709 20.243 405.664 20.2328 405.618 20.2225C405.529 20.2032 405.441 20.1866 405.353 20.1712L405.339 20.1686C405.271 20.1558 405.204 20.1442 405.135 20.1327C405.059 20.1211 404.983 20.1095 404.909 20.1006C404.822 20.089 404.736 20.0775 404.65 20.0685C404.583 20.0608 404.515 20.0556 404.448 20.0492C404.355 20.0415 404.261 20.0338 404.167 20.0274C404.101 20.0235 404.035 20.021 403.968 20.0184C403.875 20.0146 403.783 20.012 403.684 20.0107C403.618 20.0081 403.551 20.0081 403.486 20.0107H403.465C403.388 20.012 403.31 20.0146 403.235 20.0171C403.141 20.021 403.048 20.0248 402.951 20.0313C402.901 20.0351 402.85 20.039 402.802 20.0428C402.681 20.0531 402.562 20.0646 402.441 20.0787L402.387 20.0852C401.002 20.2584 399.7 20.718 398.511 21.4547L398.489 21.4688C398.363 21.5471 398.25 21.6216 398.143 21.6935C398.114 21.714 398.086 21.7345 398.057 21.7551L398.028 21.7756C397.944 21.8346 397.861 21.8937 397.78 21.9553C397.733 21.99 397.688 22.0259 397.643 22.0618L397.573 22.1183C397.523 22.1581 397.473 22.1979 397.424 22.239C397.365 22.2877 397.307 22.3391 397.249 22.3891L397.197 22.4341C397.156 22.47 397.115 22.5059 397.074 22.5445C397.014 22.5996 396.955 22.6574 396.896 22.7139L396.87 22.7383C396.825 22.7819 396.779 22.8268 396.735 22.8718C396.685 22.9231 396.636 22.9744 396.586 23.0271L396.574 23.0399C396.516 23.1015 396.459 23.1631 396.402 23.226C396.366 23.2658 396.331 23.3069 396.297 23.348L396.282 23.3634C396.214 23.4429 396.148 23.5225 396.081 23.606C396.059 23.6329 396.037 23.6611 396.015 23.6894L396.006 23.7009C395.926 23.8023 395.848 23.9063 395.768 24.0154L395.74 24.0552C395.085 24.9742 394.6 25.9895 394.301 27.0754L394.289 27.1152C394.256 27.2397 394.225 27.3642 394.197 27.49L394.19 27.517C394.184 27.5426 394.179 27.5683 394.172 27.5953C394.149 27.7005 394.13 27.8058 394.111 27.9097L394.105 27.938C394.096 27.9855 394.087 28.0329 394.08 28.083C394.066 28.1703 394.053 28.2588 394.041 28.3461C394.031 28.4206 394.021 28.495 394.013 28.5707C394.005 28.6452 393.997 28.7209 393.991 28.7954C393.983 28.8827 393.977 28.9699 393.972 29.0572C393.968 29.1265 393.965 29.1971 393.961 29.2664C393.958 29.3563 393.955 29.4474 393.954 29.5424C393.954 29.5732 393.951 29.604 393.951 29.6348C393.951 29.6707 393.951 29.7054 393.954 29.7414V29.7606C393.955 29.8402 393.958 29.9198 393.96 29.9968C393.964 30.0879 393.968 30.1778 393.974 30.2702C393.978 30.3266 393.982 30.3831 393.987 30.437C393.996 30.55 394.008 30.6616 394.022 30.7785L394.032 30.8593C394.049 30.9864 394.067 31.1109 394.086 31.2303L394.098 31.3022C394.281 32.356 394.637 33.3635 395.154 34.2941C395.167 34.3185 395.181 34.3416 395.194 34.3647L395.206 34.3853C395.261 34.4828 395.317 34.5816 395.375 34.6741C395.41 34.7306 395.446 34.7857 395.482 34.8409L395.533 34.9192C395.561 34.9629 395.588 35.0052 395.617 35.045C395.684 35.1438 395.753 35.2401 395.826 35.3389L395.835 35.3518C395.848 35.371 395.862 35.389 395.876 35.407C395.957 35.5148 396.043 35.6239 396.137 35.7394L396.155 35.7612C396.345 35.991 396.55 36.2169 396.766 36.4326L396.779 36.4454C396.875 36.5403 396.974 36.6353 397.091 36.7419L397.126 36.7739C397.217 36.8561 397.309 36.9357 397.402 37.014L397.421 37.0294C397.446 37.0499 397.47 37.0705 397.497 37.0923C397.575 37.1565 397.656 37.2193 397.736 37.2797C397.787 37.3194 397.839 37.358 397.894 37.3991C397.958 37.4453 398.023 37.4915 398.087 37.5351C398.161 37.5864 398.236 37.6378 398.314 37.6891C398.363 37.7212 398.412 37.752 398.46 37.7816C398.555 37.8418 398.65 37.8996 398.742 37.9522C398.764 37.9651 398.786 37.9792 398.813 37.9946C398.832 38.0062 398.853 38.0164 398.877 38.0293C398.95 38.0704 399.024 38.1101 399.1 38.1499C399.145 38.173 399.19 38.1961 399.242 38.2231L399.26 38.2321C399.33 38.2667 399.399 38.3027 399.468 38.3348C399.526 38.3617 399.585 38.3887 399.644 38.4144L399.68 38.431C399.777 38.4734 399.875 38.5158 399.972 38.5542C400.053 38.5876 400.134 38.6197 400.218 38.6505C400.269 38.6698 400.322 38.6877 400.374 38.707C400.463 38.7378 400.552 38.7686 400.641 38.7968L400.658 38.802C400.7 38.8148 400.739 38.8277 400.781 38.8405C400.899 38.8764 401.017 38.9098 401.135 38.9406C401.155 38.9457 401.174 38.9509 401.194 38.956C401.316 38.9868 401.437 39.0163 401.556 39.0407C401.575 39.0445 401.594 39.0484 401.616 39.0523C401.654 39.06 401.693 39.0677 401.73 39.0741L401.764 39.0805C401.877 39.1023 401.989 39.1228 402.102 39.1408L402.208 39.1562C402.275 39.1665 402.343 39.1768 402.41 39.1858L402.49 39.2024C403.416 39.4078 404.307 39.7518 405.137 40.2254C407.529 41.5896 409.136 43.8752 409.69 46.43C410.306 49.2773 408.621 52.0885 408.621 55.0018C408.621 55.967 408.764 56.9206 409.045 57.8332C409.106 58.0297 409.173 58.2234 409.242 58.4044C409.286 58.5213 409.335 58.6406 409.385 58.7587C409.674 59.6739 409.82 60.6288 409.82 61.5979C409.82 66.0107 406.708 69.8735 402.407 70.8179C402.392 70.8212 402.377 70.8229 402.361 70.8254C402.061 70.8639 401.762 70.9165 401.476 70.9807C399.372 71.4505 397.462 72.6353 396.099 74.3154C394.713 76.0213 393.951 78.1737 393.951 80.3738C393.951 85.6827 398.276 90.0004 403.59 90.0004C408.904 90.0004 413.229 85.6827 413.229 80.3738C413.229 79.3803 413.078 78.4035 412.781 77.4729C412.694 77.197 412.592 76.9198 412.482 76.6541L412.472 76.622C412.183 75.7042 412.036 74.748 412.036 73.7789C412.036 69.3493 415.171 65.4756 419.495 64.5501C419.744 64.518 419.998 64.4757 420.247 64.423C420.279 64.4166 420.311 64.4102 420.343 64.4025C421.282 64.1959 422.182 63.8506 423.022 63.3731C424.573 62.5212 425.859 61.2578 426.741 59.7175C426.742 59.7158 426.743 59.7145 426.745 59.7137Z" fill="white"></path></g><path d="M501.524 30.6807H488.43V79.1993H498.354V46.8765L511.035 78.7858H518.754L531.504 46.6008V79.1993H541.359V30.6807H528.333L514.963 64.7264L501.524 30.6807Z" fill="white"></path><path fill-rule="evenodd" clip-rule="evenodd" d="M569.825 55.5601C569.825 52.252 567.344 50.529 563.966 50.529C560.52 50.529 558.729 52.1141 558.177 53.9749H548.804C549.769 47.8412 555.076 42.7412 564.38 42.7412C573.546 42.7412 579.68 47.2209 579.68 55.9046V79.1991H570.376V75.3397C568.171 78.2342 564.449 80.0261 559.831 80.0261C552.94 80.0261 547.426 75.891 547.426 68.7235C547.426 61.4181 552.94 57.2141 562.037 57.2141H569.825V55.5601ZM557.488 68.241C557.488 70.7221 559.487 72.2383 562.588 72.2383C566.447 72.2383 569.825 69.8951 569.825 65.76V64.1748H562.795C559.693 64.1748 557.488 65.6911 557.488 68.241Z" fill="white"></path><path d="M725.011 66.3803C724.391 68.7924 722.53 71.3424 718.395 71.3424C713.709 71.3424 710.676 67.4829 710.676 61.4181C710.676 55.4222 713.64 51.4249 718.327 51.4249C722.255 51.4249 724.184 54.0439 724.874 56.3182H734.522C733.764 49.1506 728.182 42.7412 718.327 42.7412C707.437 42.7412 700.614 50.7358 700.614 61.4181C700.614 72.1694 707.437 80.0261 718.327 80.0261C727.837 80.0261 733.971 74.0991 734.592 66.3803H725.011Z" fill="white"></path><path d="M700.194 43.5684H689.442L681.586 66.4493L673.66 43.5684H662.84L676.141 78.2344L671.882 89.4288H682.575L700.194 43.5684Z" fill="white"></path><path d="M659.572 43.5684V79.1992H649.717V58.3859L635.934 79.1992H626.423V43.5684H636.278V64.2439L650.062 43.5684H659.572Z" fill="white"></path><path d="M619.14 43.5684H586.61V79.1992H596.672V52.2521H609.078V79.1992H619.14V43.5684Z" fill="white"></path><path d="M187.026 30.5923H138.015V41.4769H157.086V79.8166H167.955V41.4769H187.026V30.5923Z" fill="white"></path><path d="M208.449 30.4209H197.252V41.315V79.6883H208.449V30.4209Z" fill="white"></path><path d="M49.7222 46.9201H82.2078V63.5313H49.7222V96.1851H33.1965V63.5313H0.710938V46.9201H33.1965V14.2663H49.7222V46.9201V46.9201ZM98.693 14.1851V96.1851H115.219V14.1851H98.693Z" fill="white"></path><path fill-rule="evenodd" clip-rule="evenodd" d="M293.449 110.371L293.449 1.31134e-07L296.449 0L296.449 110.371L293.449 110.371Z" fill="white"></path></svg> 