<?xml version="1.0" encoding="UTF-8"?> <svg xmlns="http://www.w3.org/2000/svg" width="200" height="51" viewBox="0 0 200 51" fill="none"><path d="M20 0H200L180 51H0L20 0Z" fill="#00AEFF"></path><mask id="mask0_1_1660" style="mask-type:alpha" maskUnits="userSpaceOnUse" x="0" y="0" width="200" height="51"><path d="M20 0H200L180 51H0L20 0Z" fill="#00A6FF"></path></mask><g mask="url(#mask0_1_1660)"><circle cx="4.96526" cy="4.13396" r="1.47185" fill="#002876" fill-opacity="0.15"></circle><circle cx="13.7964" cy="4.13396" r="1.47185" fill="#002876" fill-opacity="0.15"></circle><circle cx="22.6275" cy="4.13396" r="1.47185" fill="#002876" fill-opacity="0.15"></circle><circle cx="31.4585" cy="4.13396" r="1.47185" fill="#002876" fill-opacity="0.15"></circle><circle cx="40.2897" cy="4.13396" r="1.47185" fill="#002876" fill-opacity="0.15"></circle><circle cx="49.1208" cy="4.13396" r="1.47185" fill="#002876" fill-opacity="0.15"></circle><circle cx="57.952" cy="4.13396" r="1.47185" fill="#002876" fill-opacity="0.15"></circle><circle cx="66.783" cy="4.13396" r="1.47185" fill="#002876" fill-opacity="0.15"></circle><circle cx="75.6142" cy="4.13396" r="1.47185" fill="#002876" fill-opacity="0.15"></circle><circle cx="84.4452" cy="4.13396" r="1.47185" fill="#002876" fill-opacity="0.15"></circle><circle cx="93.2763" cy="4.13396" r="1.47185" fill="#002876" fill-opacity="0.15"></circle><circle cx="102.107" cy="4.13396" r="1.47185" fill="#002876" fill-opacity="0.15"></circle><circle cx="110.939" cy="4.13396" r="1.47185" fill="#002876" fill-opacity="0.15"></circle><circle cx="119.77" cy="4.13396" r="1.47185" fill="#002876" fill-opacity="0.15"></circle><circle cx="128.601" cy="4.13396" r="1.47185" fill="#002876" fill-opacity="0.15"></circle><circle cx="137.432" cy="4.13396" r="1.47185" fill="#002876" fill-opacity="0.15"></circle><circle cx="146.263" cy="4.13396" r="1.47185" fill="#002876" fill-opacity="0.15"></circle><circle cx="155.094" cy="4.13396" r="1.47185" fill="#002876" fill-opacity="0.15"></circle><circle cx="163.925" cy="4.13396" r="1.47185" fill="#002876" fill-opacity="0.15"></circle><circle cx="172.756" cy="4.13396" r="1.47185" fill="#002876" fill-opacity="0.15"></circle><circle cx="181.587" cy="4.13396" r="1.47185" fill="#002876" fill-opacity="0.15"></circle><circle cx="190.419" cy="4.13396" r="1.47185" fill="#002876" fill-opacity="0.15"></circle><circle cx="199.25" cy="4.13396" r="1.47185" fill="#002876" fill-opacity="0.15"></circle><circle cx="4.96526" cy="12.965" r="1.47185" fill="#002876" fill-opacity="0.15"></circle><circle cx="13.7964" cy="12.965" r="1.47185" fill="#002876" fill-opacity="0.15"></circle><circle cx="22.6275" cy="12.965" r="1.47185" fill="#002876" fill-opacity="0.15"></circle><circle cx="31.4585" cy="12.965" r="1.47185" fill="#002876" fill-opacity="0.15"></circle><circle cx="40.2897" cy="12.965" r="1.47185" fill="#002876" fill-opacity="0.15"></circle><circle cx="49.1208" cy="12.965" r="1.47185" fill="#002876" fill-opacity="0.15"></circle><circle cx="57.952" cy="12.965" r="1.47185" fill="#002876" fill-opacity="0.15"></circle><circle cx="66.783" cy="12.965" r="1.47185" fill="#002876" fill-opacity="0.15"></circle><circle cx="75.6142" cy="12.965" r="1.47185" fill="#002876" fill-opacity="0.15"></circle><circle cx="84.4452" cy="12.965" r="1.47185" fill="#002876" fill-opacity="0.15"></circle><circle cx="93.2763" cy="12.965" r="1.47185" fill="#002876" fill-opacity="0.15"></circle><circle cx="102.107" cy="12.965" r="1.47185" fill="#002876" fill-opacity="0.15"></circle><circle cx="110.939" cy="12.965" r="1.47185" fill="#002876" fill-opacity="0.15"></circle><circle cx="119.77" cy="12.965" r="1.47185" fill="#002876" fill-opacity="0.15"></circle><circle cx="128.601" cy="12.965" r="1.47185" fill="#002876" fill-opacity="0.15"></circle><circle cx="137.432" cy="12.965" r="1.47185" fill="#002876" fill-opacity="0.15"></circle><circle cx="146.263" cy="12.965" r="1.47185" fill="#002876" fill-opacity="0.15"></circle><circle cx="155.094" cy="12.965" r="1.47185" fill="#002876" fill-opacity="0.15"></circle><circle cx="163.925" cy="12.965" r="1.47185" fill="#002876" fill-opacity="0.15"></circle><circle cx="172.756" cy="12.965" r="1.47185" fill="#002876" fill-opacity="0.15"></circle><circle cx="181.587" cy="12.965" r="1.47185" fill="#002876" fill-opacity="0.15"></circle><circle cx="190.419" cy="12.965" r="1.47185" fill="#002876" fill-opacity="0.15"></circle><circle cx="199.25" cy="12.965" r="1.47185" fill="#002876" fill-opacity="0.15"></circle><circle cx="4.96526" cy="21.7961" r="1.47185" fill="#002876" fill-opacity="0.15"></circle><circle cx="13.7964" cy="21.7961" r="1.47185" fill="#002876" fill-opacity="0.15"></circle><circle cx="22.6275" cy="21.7961" r="1.47185" fill="#002876" fill-opacity="0.15"></circle><circle cx="31.4585" cy="21.7961" r="1.47185" fill="#002876" fill-opacity="0.15"></circle><circle cx="40.2897" cy="21.7961" r="1.47185" fill="#002876" fill-opacity="0.15"></circle><circle cx="49.1208" cy="21.7961" r="1.47185" fill="#002876" fill-opacity="0.15"></circle><circle cx="57.952" cy="21.7961" r="1.47185" fill="#002876" fill-opacity="0.15"></circle><circle cx="66.783" cy="21.7961" r="1.47185" fill="#002876" fill-opacity="0.15"></circle><circle cx="75.6142" cy="21.7961" r="1.47185" fill="#002876" fill-opacity="0.15"></circle><circle cx="84.4452" cy="21.7961" r="1.47185" fill="#002876" fill-opacity="0.15"></circle><circle cx="93.2763" cy="21.7961" r="1.47185" fill="#002876" fill-opacity="0.15"></circle><circle cx="102.107" cy="21.7961" r="1.47185" fill="#002876" fill-opacity="0.15"></circle><circle cx="110.939" cy="21.7961" r="1.47185" fill="#002876" fill-opacity="0.15"></circle><circle cx="119.77" cy="21.7961" r="1.47185" fill="#002876" fill-opacity="0.15"></circle><circle cx="128.601" cy="21.7961" r="1.47185" fill="#002876" fill-opacity="0.15"></circle><circle cx="137.432" cy="21.7961" r="1.47185" fill="#002876" fill-opacity="0.15"></circle><circle cx="146.263" cy="21.7961" r="1.47185" fill="#002876" fill-opacity="0.15"></circle><circle cx="155.094" cy="21.7961" r="1.47185" fill="#002876" fill-opacity="0.15"></circle><circle cx="163.925" cy="21.7961" r="1.47185" fill="#002876" fill-opacity="0.15"></circle><circle cx="172.756" cy="21.7961" r="1.47185" fill="#002876" fill-opacity="0.15"></circle><circle cx="181.587" cy="21.7961" r="1.47185" fill="#002876" fill-opacity="0.15"></circle><circle cx="190.419" cy="21.7961" r="1.47185" fill="#002876" fill-opacity="0.15"></circle><circle cx="199.25" cy="21.7961" r="1.47185" fill="#002876" fill-opacity="0.15"></circle><circle cx="4.96526" cy="30.6271" r="1.47185" fill="#002876" fill-opacity="0.15"></circle><circle cx="13.7964" cy="30.6271" r="1.47185" fill="#002876" fill-opacity="0.15"></circle><circle cx="22.6275" cy="30.6271" r="1.47185" fill="#002876" fill-opacity="0.15"></circle><circle cx="31.4585" cy="30.6271" r="1.47185" fill="#002876" fill-opacity="0.15"></circle><circle cx="40.2897" cy="30.6271" r="1.47185" fill="#002876" fill-opacity="0.15"></circle><circle cx="49.1208" cy="30.6271" r="1.47185" fill="#002876" fill-opacity="0.15"></circle><circle cx="57.952" cy="30.6271" r="1.47185" fill="#002876" fill-opacity="0.15"></circle><circle cx="66.783" cy="30.6271" r="1.47185" fill="#002876" fill-opacity="0.15"></circle><circle cx="75.6142" cy="30.6271" r="1.47185" fill="#002876" fill-opacity="0.15"></circle><circle cx="84.4452" cy="30.6271" r="1.47185" fill="#002876" fill-opacity="0.15"></circle><circle cx="93.2763" cy="30.6271" r="1.47185" fill="#002876" fill-opacity="0.15"></circle><circle cx="102.107" cy="30.6271" r="1.47185" fill="#002876" fill-opacity="0.15"></circle><circle cx="110.939" cy="30.6271" r="1.47185" fill="#002876" fill-opacity="0.15"></circle><circle cx="119.77" cy="30.6271" r="1.47185" fill="#002876" fill-opacity="0.15"></circle><circle cx="128.601" cy="30.6271" r="1.47185" fill="#002876" fill-opacity="0.15"></circle><circle cx="137.432" cy="30.6271" r="1.47185" fill="#002876" fill-opacity="0.15"></circle><circle cx="146.263" cy="30.6271" r="1.47185" fill="#002876" fill-opacity="0.15"></circle><circle cx="155.094" cy="30.6271" r="1.47185" fill="#002876" fill-opacity="0.15"></circle><circle cx="163.925" cy="30.6271" r="1.47185" fill="#002876" fill-opacity="0.15"></circle><circle cx="172.756" cy="30.6271" r="1.47185" fill="#002876" fill-opacity="0.15"></circle><circle cx="181.587" cy="30.6271" r="1.47185" fill="#002876" fill-opacity="0.15"></circle><circle cx="190.419" cy="30.6271" r="1.47185" fill="#002876" fill-opacity="0.15"></circle><circle cx="199.25" cy="30.6271" r="1.47185" fill="#002876" fill-opacity="0.15"></circle><circle cx="4.96526" cy="39.4587" r="1.47185" fill="#002876" fill-opacity="0.15"></circle><circle cx="13.7964" cy="39.4587" r="1.47185" fill="#002876" fill-opacity="0.15"></circle><circle cx="22.6275" cy="39.4587" r="1.47185" fill="#002876" fill-opacity="0.15"></circle><circle cx="31.4585" cy="39.4587" r="1.47185" fill="#002876" fill-opacity="0.15"></circle><circle cx="40.2897" cy="39.4587" r="1.47185" fill="#002876" fill-opacity="0.15"></circle><circle cx="49.1208" cy="39.4587" r="1.47185" fill="#002876" fill-opacity="0.15"></circle><circle cx="57.952" cy="39.4587" r="1.47185" fill="#002876" fill-opacity="0.15"></circle><circle cx="66.783" cy="39.4587" r="1.47185" fill="#002876" fill-opacity="0.15"></circle><circle cx="75.6142" cy="39.4587" r="1.47185" fill="#002876" fill-opacity="0.15"></circle><circle cx="84.4452" cy="39.4587" r="1.47185" fill="#002876" fill-opacity="0.15"></circle><circle cx="93.2763" cy="39.4587" r="1.47185" fill="#002876" fill-opacity="0.15"></circle><circle cx="102.107" cy="39.4587" r="1.47185" fill="#002876" fill-opacity="0.15"></circle><circle cx="110.939" cy="39.4587" r="1.47185" fill="#002876" fill-opacity="0.15"></circle><circle cx="119.77" cy="39.4587" r="1.47185" fill="#002876" fill-opacity="0.15"></circle><circle cx="128.601" cy="39.4587" r="1.47185" fill="#002876" fill-opacity="0.15"></circle><circle cx="137.432" cy="39.4587" r="1.47185" fill="#002876" fill-opacity="0.15"></circle><circle cx="146.263" cy="39.4587" r="1.47185" fill="#002876" fill-opacity="0.15"></circle><circle cx="155.094" cy="39.4587" r="1.47185" fill="#002876" fill-opacity="0.15"></circle><circle cx="163.925" cy="39.4587" r="1.47185" fill="#002876" fill-opacity="0.15"></circle><circle cx="172.756" cy="39.4587" r="1.47185" fill="#002876" fill-opacity="0.15"></circle><circle cx="181.587" cy="39.4587" r="1.47185" fill="#002876" fill-opacity="0.15"></circle><circle cx="190.419" cy="39.4587" r="1.47185" fill="#002876" fill-opacity="0.15"></circle><circle cx="199.25" cy="39.4587" r="1.47185" fill="#002876" fill-opacity="0.15"></circle><circle cx="4.96526" cy="48.2897" r="1.47185" fill="#002876" fill-opacity="0.15"></circle><circle cx="13.7964" cy="48.2897" r="1.47185" fill="#002876" fill-opacity="0.15"></circle><circle cx="22.6275" cy="48.2897" r="1.47185" fill="#002876" fill-opacity="0.15"></circle><circle cx="31.4585" cy="48.2897" r="1.47185" fill="#002876" fill-opacity="0.15"></circle><circle cx="40.2897" cy="48.2897" r="1.47185" fill="#002876" fill-opacity="0.15"></circle><circle cx="49.1208" cy="48.2897" r="1.47185" fill="#002876" fill-opacity="0.15"></circle><circle cx="57.952" cy="48.2897" r="1.47185" fill="#002876" fill-opacity="0.15"></circle><circle cx="66.783" cy="48.2897" r="1.47185" fill="#002876" fill-opacity="0.15"></circle><circle cx="75.6142" cy="48.2897" r="1.47185" fill="#002876" fill-opacity="0.15"></circle><circle cx="84.4452" cy="48.2897" r="1.47185" fill="#002876" fill-opacity="0.15"></circle><circle cx="93.2763" cy="48.2897" r="1.47185" fill="#002876" fill-opacity="0.15"></circle><circle cx="102.107" cy="48.2897" r="1.47185" fill="#002876" fill-opacity="0.15"></circle><circle cx="110.939" cy="48.2897" r="1.47185" fill="#002876" fill-opacity="0.15"></circle><circle cx="119.77" cy="48.2897" r="1.47185" fill="#002876" fill-opacity="0.15"></circle><circle cx="128.601" cy="48.2897" r="1.47185" fill="#002876" fill-opacity="0.15"></circle><circle cx="137.432" cy="48.2897" r="1.47185" fill="#002876" fill-opacity="0.15"></circle><circle cx="146.263" cy="48.2897" r="1.47185" fill="#002876" fill-opacity="0.15"></circle><circle cx="155.094" cy="48.2897" r="1.47185" fill="#002876" fill-opacity="0.15"></circle><circle cx="163.925" cy="48.2897" r="1.47185" fill="#002876" fill-opacity="0.15"></circle><circle cx="172.756" cy="48.2897" r="1.47185" fill="#002876" fill-opacity="0.15"></circle><circle cx="181.587" cy="48.2897" r="1.47185" fill="#002876" fill-opacity="0.15"></circle><circle cx="190.419" cy="48.2897" r="1.47185" fill="#002876" fill-opacity="0.15"></circle><circle cx="199.25" cy="48.2897" r="1.47185" fill="#002876" fill-opacity="0.15"></circle></g></svg> 