<?xml version="1.0" encoding="UTF-8"?> <svg xmlns="http://www.w3.org/2000/svg" width="133" height="29" viewBox="0 0 133 29" fill="none"><g clip-path="url(#clip0_0_7978)"><path d="M20.618 11.5972H1.38686L0 15.466H19.2311L20.618 11.5972ZM22.6937 5.79625H3.46715L2.08029 9.66042H21.3068L22.6937 5.79625ZM23.3871 3.86417H4.16058L5.54745 0H24.7786L23.3917 3.86417H23.3871Z" fill="#00AEFF"></path><path d="M40.5148 16.6337V16.7134C41.3839 17.0323 42.2161 17.595 42.6506 17.9561C43.9959 19.0816 44.5922 20.5635 44.5922 22.4956C44.5922 25.6657 42.9326 27.9542 40.2005 28.6764C39.3684 28.9155 38.4993 28.9953 36.8766 28.9953H28.6063V5.79619H35.9243C37.4268 5.79619 38.4577 5.88061 39.3684 6.11977C42.0173 6.84196 43.7601 8.68963 43.7601 11.6159C43.7601 13.1822 43.2054 14.5093 42.2946 15.391C41.9017 15.7896 41.347 16.2726 40.5148 16.6337ZM33.1968 19.0816V25.1827H36.3589C37.3066 25.1827 38.1803 25.103 38.8136 24.498C39.447 23.8931 39.7243 23.1334 39.7243 22.1298C39.7243 21.3654 39.5255 20.6479 39.128 20.1227C38.4577 19.2786 37.6255 19.0816 36.2017 19.0816H33.1968ZM33.1552 15.0674H35.7255C36.5161 15.0674 36.9136 15.0674 37.3066 14.9454C38.3745 14.6219 39.0494 13.6605 39.0494 12.3381C39.0494 10.7718 38.3375 10.0871 37.3066 9.76822C36.872 9.64629 36.4375 9.60877 35.5637 9.60877H33.1506V15.0674H33.1552ZM51.4757 28.9953V9.6885H44.865V5.7915H63.227L61.9187 9.6885H56.0616V28.9953H51.471H51.4757ZM64.6508 28.9953V5.79619H79.5319L78.2282 9.69319H69.2044V14.8329H72.8842C75.8521 14.8329 77.3961 15.5551 78.464 16.4789C79.2961 17.2011 80.72 18.8049 80.72 21.975C80.72 25.1452 79.2545 26.8334 78.0294 27.715C76.6056 28.7186 75.1032 28.9999 72.0521 28.9999H64.6508V28.9953ZM69.2044 25.103H72.6484C73.9521 25.103 74.7472 24.7794 75.2973 24.0572C75.5747 23.6961 75.9723 23.0583 75.9723 21.8484C75.9723 20.6385 75.5793 19.8038 74.7842 19.1988C74.3127 18.8378 73.6747 18.6361 72.6114 18.6361H69.209V25.0983L69.2044 25.103Z" fill="white"></path><path d="M103.141 20.3808L99.1236 9.27601H99.0589L94.9769 20.3808H103.145H103.141ZM97.39 5.79639H100.853L109.904 28.9955H106.308L104.121 23.0304H93.9922L91.801 28.9955H88.3384L97.39 5.79639Z" fill="white"></path><path d="M118.803 17.4639C122.039 17.4639 123.509 15.9726 123.509 13.0886C123.509 10.2045 122.039 8.71327 118.803 8.71327H115.535V17.4639H118.803ZM112.271 5.79639H118.803C124.36 5.79639 126.972 8.44597 126.972 13.0886C126.972 17.7312 124.36 20.3808 118.803 20.3808H115.535V29.0001H112.266V5.79639H112.271Z" fill="white"></path><path d="M133 5.79639H129.732V28.9955H133V5.79639Z" fill="white"></path></g><defs><clipPath id="clip0_0_7978"><rect width="133" height="29" fill="white"></rect></clipPath></defs></svg> 