<?xml version="1.0" encoding="UTF-8"?> <svg xmlns="http://www.w3.org/2000/svg" width="92" height="51" viewBox="0 0 92 51" fill="none"><path d="M36 0H56L36 51H16L36 0Z" fill="white"></path><path d="M62 0H92L72 51H42L62 0Z" fill="#00AEFF"></path><path d="M20 0H30L10 51H0L20 0Z" fill="white"></path><path d="M36 0H56L36 51H16L36 0Z" fill="white"></path><mask id="mask0_1_1659" style="mask-type:alpha" maskUnits="userSpaceOnUse" x="42" y="0" width="50" height="51"><path d="M62 0H92L72 51H42L62 0Z" fill="#00A6FF"></path></mask><g mask="url(#mask0_1_1659)"><circle cx="49.1208" cy="4.13396" r="1.47185" fill="#002876" fill-opacity="0.15"></circle><circle cx="57.952" cy="4.13396" r="1.47185" fill="#002876" fill-opacity="0.15"></circle><circle cx="66.783" cy="4.13396" r="1.47185" fill="#002876" fill-opacity="0.15"></circle><circle cx="75.6142" cy="4.13396" r="1.47185" fill="#002876" fill-opacity="0.15"></circle><circle cx="84.4452" cy="4.13396" r="1.47185" fill="#002876" fill-opacity="0.15"></circle><circle cx="93.2763" cy="4.13396" r="1.47185" fill="#002876" fill-opacity="0.15"></circle><circle cx="49.1208" cy="12.965" r="1.47185" fill="#002876" fill-opacity="0.15"></circle><circle cx="57.952" cy="12.965" r="1.47185" fill="#002876" fill-opacity="0.15"></circle><circle cx="66.783" cy="12.965" r="1.47185" fill="#002876" fill-opacity="0.15"></circle><circle cx="75.6142" cy="12.965" r="1.47185" fill="#002876" fill-opacity="0.15"></circle><circle cx="84.4452" cy="12.965" r="1.47185" fill="#002876" fill-opacity="0.15"></circle><circle cx="93.2763" cy="12.965" r="1.47185" fill="#002876" fill-opacity="0.15"></circle><circle cx="49.1208" cy="21.7961" r="1.47185" fill="#002876" fill-opacity="0.15"></circle><circle cx="57.952" cy="21.7961" r="1.47185" fill="#002876" fill-opacity="0.15"></circle><circle cx="66.783" cy="21.7961" r="1.47185" fill="#002876" fill-opacity="0.15"></circle><circle cx="75.6142" cy="21.7961" r="1.47185" fill="#002876" fill-opacity="0.15"></circle><circle cx="84.4452" cy="21.7961" r="1.47185" fill="#002876" fill-opacity="0.15"></circle><circle cx="93.2763" cy="21.7961" r="1.47185" fill="#002876" fill-opacity="0.15"></circle><circle cx="49.1208" cy="30.6271" r="1.47185" fill="#002876" fill-opacity="0.15"></circle><circle cx="57.952" cy="30.6271" r="1.47185" fill="#002876" fill-opacity="0.15"></circle><circle cx="66.783" cy="30.6271" r="1.47185" fill="#002876" fill-opacity="0.15"></circle><circle cx="75.6142" cy="30.6271" r="1.47185" fill="#002876" fill-opacity="0.15"></circle><circle cx="84.4452" cy="30.6271" r="1.47185" fill="#002876" fill-opacity="0.15"></circle><circle cx="93.2763" cy="30.6271" r="1.47185" fill="#002876" fill-opacity="0.15"></circle><circle cx="49.1208" cy="39.4587" r="1.47185" fill="#002876" fill-opacity="0.15"></circle><circle cx="57.952" cy="39.4587" r="1.47185" fill="#002876" fill-opacity="0.15"></circle><circle cx="66.783" cy="39.4587" r="1.47185" fill="#002876" fill-opacity="0.15"></circle><circle cx="75.6142" cy="39.4587" r="1.47185" fill="#002876" fill-opacity="0.15"></circle><circle cx="84.4452" cy="39.4587" r="1.47185" fill="#002876" fill-opacity="0.15"></circle><circle cx="93.2763" cy="39.4587" r="1.47185" fill="#002876" fill-opacity="0.15"></circle><circle cx="49.1208" cy="48.2897" r="1.47185" fill="#002876" fill-opacity="0.15"></circle><circle cx="57.952" cy="48.2897" r="1.47185" fill="#002876" fill-opacity="0.15"></circle><circle cx="66.783" cy="48.2897" r="1.47185" fill="#002876" fill-opacity="0.15"></circle><circle cx="75.6142" cy="48.2897" r="1.47185" fill="#002876" fill-opacity="0.15"></circle><circle cx="84.4452" cy="48.2897" r="1.47185" fill="#002876" fill-opacity="0.15"></circle><circle cx="93.2763" cy="48.2897" r="1.47185" fill="#002876" fill-opacity="0.15"></circle></g><path d="M20 0H30L10 51H0L20 0Z" fill="white"></path></svg> 