<?xml version="1.0" encoding="UTF-8"?> <svg xmlns="http://www.w3.org/2000/svg" width="1803" height="430" viewBox="0 0 1803 430" fill="none"><mask id="path-1-inside-1_21_10939" fill="white"><path d="M543.742 13.0543H586.647V85.9928H587.124C590.62 81.2256 594.036 77.6502 597.373 75.2665C600.869 72.8829 603.253 71.2939 604.524 70.4993C607.702 68.7513 611.198 67.4006 615.012 66.4472C618.985 65.3348 623.514 64.7786 628.599 64.7786C636.226 64.7786 642.821 65.891 648.383 68.1157C654.103 70.3404 658.95 73.5186 662.923 77.6502C664.353 79.0803 665.783 80.9078 667.213 83.1325C668.802 85.1983 670.232 87.7408 671.504 90.76C672.775 93.6204 673.808 97.0369 674.602 101.01C675.556 104.982 676.032 109.432 676.032 114.358V191.825H633.127V131.758C633.127 130.328 633.048 128.421 632.889 126.037C632.73 123.654 632.412 121.191 631.936 118.648C631.459 115.947 630.664 113.404 629.552 111.021C628.599 108.637 627.168 106.571 625.262 104.823C623.196 102.916 621.05 101.725 618.826 101.248C616.76 100.771 614.933 100.533 613.343 100.533C608.417 100.533 604.286 101.486 600.949 103.393C597.612 105.141 594.831 107.763 592.606 111.259C591.017 113.802 589.587 117.218 588.316 121.509C587.203 125.799 586.647 131.758 586.647 139.386V191.825H543.742V13.0543ZM733.882 194.686C727.684 194.686 721.725 193.891 716.005 192.302C710.443 190.713 705.517 188.329 701.226 185.151C697.095 181.973 693.757 178 691.215 173.233C688.672 168.307 687.401 162.586 687.401 156.071C687.401 147.331 689.149 140.18 692.645 134.618C696.3 129.057 701.067 124.766 706.947 121.747C712.985 118.569 719.818 116.424 727.446 115.311C735.232 114.199 743.257 113.643 751.52 113.643H771.543C771.702 109.829 770.907 106.651 769.159 104.108C767.57 101.566 765.345 99.4999 762.485 97.9109C759.784 96.3218 756.685 95.2094 753.189 94.5738C749.693 93.7793 746.197 93.382 742.701 93.382C736.663 93.382 730.386 94.0971 723.87 95.5273C717.355 96.7985 710.363 99.341 702.895 103.155V73.598C709.41 70.8966 716.64 68.7513 724.586 67.1623C732.69 65.5732 741.748 64.7786 751.759 64.7786C759.863 64.7786 767.57 65.7321 774.88 67.639C782.19 69.5459 788.546 72.5651 793.949 76.6967C799.352 80.8283 803.642 86.1517 806.82 92.6669C809.998 99.1821 811.587 107.048 811.587 116.265V191.825H773.688V172.28H773.211C769.08 179.43 763.597 184.992 756.764 188.965C750.09 192.779 742.463 194.686 733.882 194.686ZM744.846 166.082C748.819 166.082 752.394 165.288 755.572 163.699C758.751 162.109 761.452 159.964 763.677 157.263C765.901 154.561 767.649 151.383 768.921 147.728C770.192 144.073 771.066 140.18 771.543 136.049H754.857C745.8 136.049 738.967 137.24 734.358 139.624C729.75 142.008 727.446 146.298 727.446 152.496C727.446 157.104 729.273 160.52 732.928 162.745C736.583 164.97 740.556 166.082 744.846 166.082ZM903.219 194.686C892.413 194.686 882.481 193.176 873.423 190.157C864.525 187.137 856.818 182.847 850.302 177.285C843.787 171.564 838.702 164.731 835.047 156.786C831.551 148.682 829.803 139.704 829.803 129.851C829.803 120.158 831.551 111.339 835.047 103.393C838.543 95.2889 843.469 88.3764 849.826 82.6557C856.341 76.9351 864.127 72.5651 873.185 69.5459C882.243 66.3677 892.413 64.7786 903.695 64.7786C908.78 64.7786 914.024 65.2554 919.427 66.2088C924.83 67.1623 930.392 68.9897 936.113 71.6911V103.155C931.027 100.136 925.784 98.2287 920.381 97.4341C915.137 96.6396 911.164 96.2423 908.463 96.2423C903.695 96.2423 899.167 97.0369 894.876 98.6259C890.744 100.215 887.169 102.519 884.15 105.538C881.131 108.399 878.747 111.895 876.999 116.026C875.251 120.158 874.377 124.766 874.377 129.851C874.377 135.89 875.489 141.054 877.714 145.345C879.939 149.476 882.799 152.893 886.295 155.594C889.791 158.137 893.684 160.044 897.975 161.315C902.265 162.586 906.556 163.222 910.846 163.222C913.548 163.222 917.203 162.904 921.811 162.268C926.578 161.633 931.743 159.964 937.304 157.263V189.203C934.285 190.157 929.915 191.269 924.194 192.54C918.633 193.97 911.641 194.686 903.219 194.686ZM952.792 13.0543H995.697V119.84H996.174L1031.93 67.639H1078.89L1035.74 124.607L1082.46 191.825H1030.5L996.174 130.328H995.697V191.825H952.792V13.0543Z"></path><path d="M1129.66 194.686C1123.47 194.686 1117.51 193.891 1111.79 192.302C1106.22 190.713 1101.3 188.329 1097.01 185.151C1092.88 181.973 1089.54 178 1087 173.233C1084.45 168.307 1083.18 162.586 1083.18 156.071C1083.18 147.331 1084.93 140.18 1088.43 134.618C1092.08 129.057 1096.85 124.766 1102.73 121.747C1108.77 118.569 1115.6 116.424 1123.23 115.311C1131.01 114.199 1139.04 113.643 1147.3 113.643H1167.32C1167.48 109.829 1166.69 106.651 1164.94 104.108C1163.35 101.566 1161.13 99.4999 1158.27 97.9109C1155.57 96.3218 1152.47 95.2094 1148.97 94.5738C1145.48 93.7793 1141.98 93.382 1138.48 93.382C1132.44 93.382 1126.17 94.0971 1119.65 95.5273C1113.14 96.7985 1106.15 99.341 1098.68 103.155V73.598C1105.19 70.8966 1112.42 68.7513 1120.37 67.1623C1128.47 65.5732 1137.53 64.7786 1147.54 64.7786C1155.65 64.7786 1163.35 65.7321 1170.66 67.639C1177.97 69.5459 1184.33 72.5651 1189.73 76.6967C1195.13 80.8283 1199.42 86.1517 1202.6 92.6669C1205.78 99.1821 1207.37 107.048 1207.37 116.265V191.825H1169.47V172.28H1168.99C1164.86 179.43 1159.38 184.992 1152.55 188.965C1145.87 192.779 1138.24 194.686 1129.66 194.686ZM1140.63 166.082C1144.6 166.082 1148.18 165.288 1151.35 163.699C1154.53 162.109 1157.23 159.964 1159.46 157.263C1161.68 154.561 1163.43 151.383 1164.7 147.728C1165.97 144.073 1166.85 140.18 1167.32 136.049H1150.64C1141.58 136.049 1134.75 137.24 1130.14 139.624C1125.53 142.008 1123.23 146.298 1123.23 152.496C1123.23 157.104 1125.06 160.52 1128.71 162.745C1132.37 164.97 1136.34 166.082 1140.63 166.082ZM1287 194.686C1269.84 194.686 1257.44 191.031 1249.82 183.721C1242.35 176.252 1238.61 164.414 1238.61 148.205V97.6725H1214.06V67.639H1238.61V39.7507L1281.52 26.6409V67.639H1311.55V97.6725H1281.52V143.438C1281.52 152.178 1282.87 158.137 1285.57 161.315C1288.27 164.493 1292.64 166.082 1298.68 166.082C1301.7 166.082 1304.4 165.923 1306.78 165.605C1309.17 165.129 1311.31 164.573 1313.22 163.937V192.302C1308.61 193.096 1304 193.653 1299.4 193.97C1294.79 194.447 1290.66 194.686 1287 194.686ZM1328.56 13.0543H1371.46V85.9928H1371.94C1375.43 81.2256 1378.85 77.6502 1382.19 75.2665C1385.68 72.8829 1388.07 71.2939 1389.34 70.4993C1392.52 68.7513 1396.01 67.4006 1399.83 66.4472C1403.8 65.3348 1408.33 64.7786 1413.41 64.7786C1421.04 64.7786 1427.63 65.891 1433.2 68.1157C1438.92 70.3404 1443.76 73.5186 1447.74 77.6502C1449.17 79.0803 1450.6 80.9078 1452.03 83.1325C1453.62 85.1983 1455.05 87.7408 1456.32 90.76C1457.59 93.6204 1458.62 97.0369 1459.42 101.01C1460.37 104.982 1460.85 109.432 1460.85 114.358V191.825H1417.94V131.758C1417.94 130.328 1417.86 128.421 1417.7 126.037C1417.54 123.654 1417.23 121.191 1416.75 118.648C1416.27 115.947 1415.48 113.404 1414.37 111.021C1413.41 108.637 1411.98 106.571 1410.08 104.823C1408.01 102.916 1405.86 101.725 1403.64 101.248C1401.57 100.771 1399.75 100.533 1398.16 100.533C1393.23 100.533 1389.1 101.486 1385.76 103.393C1382.43 105.141 1379.64 107.763 1377.42 111.259C1375.83 113.802 1374.4 117.218 1373.13 121.509C1372.02 125.799 1371.46 131.758 1371.46 139.386V191.825H1328.56V13.0543ZM1547.7 94.8122C1539.75 94.8122 1533.32 97.5136 1528.39 102.916C1524.73 107.048 1522.35 111.577 1521.24 116.503C1520.29 121.27 1519.81 125.72 1519.81 129.851C1519.81 133.983 1520.29 138.512 1521.24 143.438C1522.35 148.205 1524.73 152.654 1528.39 156.786C1533.32 162.189 1539.75 164.89 1547.7 164.89C1555.64 164.89 1562.08 162.189 1567 156.786C1570.66 152.654 1572.96 148.205 1573.92 143.438C1575.03 138.512 1575.59 133.983 1575.59 129.851C1575.59 125.72 1575.03 121.27 1573.92 116.503C1572.96 111.577 1570.66 107.048 1567 102.916C1562.08 97.5136 1555.64 94.8122 1547.7 94.8122ZM1547.7 64.7786C1557.71 64.7786 1566.92 66.1294 1575.35 68.8308C1583.77 71.5322 1591 75.2665 1597.04 80.0338C1599.58 81.9407 1602.2 84.4037 1604.9 87.423C1607.61 90.2833 1610.07 93.7793 1612.29 97.9109C1614.52 101.884 1616.35 106.571 1617.78 111.974C1619.21 117.218 1619.92 123.177 1619.92 129.851C1619.92 136.525 1619.21 142.564 1617.78 147.967C1616.35 153.211 1614.52 157.898 1612.29 162.03C1610.07 166.003 1607.61 169.499 1604.9 172.518C1602.2 175.378 1599.58 177.762 1597.04 179.669C1592.91 183.006 1588.62 185.628 1584.17 187.535C1579.72 189.442 1575.35 190.951 1571.06 192.064C1566.77 193.176 1562.55 193.891 1558.42 194.209C1554.45 194.527 1550.88 194.686 1547.7 194.686C1544.52 194.686 1540.86 194.527 1536.73 194.209C1532.76 193.891 1528.63 193.176 1524.34 192.064C1520.05 190.951 1515.68 189.442 1511.23 187.535C1506.78 185.628 1502.49 183.006 1498.36 179.669C1495.81 177.762 1493.19 175.378 1490.49 172.518C1487.79 169.499 1485.33 166.003 1483.1 162.03C1480.88 157.898 1479.05 153.211 1477.62 147.967C1476.19 142.564 1475.47 136.525 1475.47 129.851C1475.47 123.177 1476.19 117.218 1477.62 111.974C1479.05 106.571 1480.88 101.884 1483.1 97.9109C1485.33 93.7793 1487.79 90.2833 1490.49 87.423C1493.19 84.4037 1495.81 81.9407 1498.36 80.0338C1504.39 75.2665 1511.63 71.5322 1520.05 68.8308C1528.47 66.1294 1537.69 64.7786 1547.7 64.7786ZM1638.27 67.639H1677.36V90.5217H1677.83C1680.06 85.7544 1682.84 81.7818 1686.18 78.6036C1689.51 75.2665 1693.25 72.5651 1697.38 70.4993C1702.47 67.9568 1707.47 66.3677 1712.4 65.7321C1717.32 65.0965 1720.9 64.7786 1723.12 64.7786C1729.96 64.7786 1736.23 65.7321 1741.95 67.639C1747.67 69.5459 1752.76 72.8035 1757.21 77.4118C1760.07 80.2721 1763.01 84.7215 1766.03 90.76C1769.05 96.7985 1770.56 104.664 1770.56 114.358V191.825H1727.65V131.758C1727.65 130.01 1727.57 127.944 1727.41 125.561C1727.26 123.177 1726.94 120.794 1726.46 118.41C1725.98 115.867 1725.19 113.404 1724.08 111.021C1723.12 108.637 1721.69 106.571 1719.79 104.823C1717.88 103.075 1715.89 101.963 1713.83 101.486C1711.76 100.851 1709.7 100.533 1707.63 100.533C1705.09 100.533 1702.15 101.01 1698.81 101.963C1695.47 102.758 1692.3 104.823 1689.28 108.16C1687.37 110.226 1685.86 112.689 1684.75 115.55C1683.79 118.251 1683 121.032 1682.36 123.892C1681.89 126.753 1681.57 129.533 1681.41 132.235C1681.25 134.936 1681.17 137.32 1681.17 139.386V191.825H1638.27V67.639Z"></path></mask><path d="M543.742 13.0543V9.29066H539.978V13.0543H543.742ZM586.647 13.0543H590.411V9.29066H586.647V13.0543ZM586.647 85.9928H582.883V89.7564H586.647V85.9928ZM587.124 85.9928V89.7564H589.031L590.159 88.2185L587.124 85.9928ZM597.373 75.2665L595.253 72.157L595.219 72.1801L595.186 72.204L597.373 75.2665ZM604.524 70.4993L602.71 67.2016L602.618 67.2522L602.529 67.3078L604.524 70.4993ZM615.012 66.4472L615.925 70.0984L615.976 70.0856L616.027 70.0714L615.012 66.4472ZM648.383 68.1157L646.985 71.6101L647.002 71.6168L647.018 71.6234L648.383 68.1157ZM662.923 77.6502L660.21 80.2587L660.235 80.2853L660.261 80.3114L662.923 77.6502ZM667.213 83.1325L664.047 85.1677L664.133 85.3013L664.23 85.4272L667.213 83.1325ZM671.504 90.76L668.035 92.2205L668.049 92.2547L668.064 92.2886L671.504 90.76ZM674.602 101.01L670.912 101.748L670.926 101.818L670.943 101.888L674.602 101.01ZM676.032 191.825V195.589H679.796V191.825H676.032ZM633.127 191.825H629.364V195.589H633.127V191.825ZM632.889 126.037L629.134 126.288L629.134 126.288L632.889 126.037ZM631.936 118.648L628.229 119.302L628.233 119.322L628.236 119.342L631.936 118.648ZM629.552 111.021L626.058 112.418L626.097 112.517L626.142 112.612L629.552 111.021ZM625.262 104.823L622.709 107.589L622.718 107.598L625.262 104.823ZM618.826 101.248L617.979 104.915L618.008 104.922L618.037 104.928L618.826 101.248ZM600.949 103.393L602.695 106.727L602.756 106.695L602.816 106.661L600.949 103.393ZM592.606 111.259L589.431 109.239L589.423 109.251L589.414 109.264L592.606 111.259ZM588.316 121.509L584.707 120.439L584.689 120.501L584.672 120.564L588.316 121.509ZM586.647 191.825V195.589H590.411V191.825H586.647ZM543.742 191.825H539.978V195.589H543.742V191.825ZM543.742 16.8179H586.647V9.29066H543.742V16.8179ZM582.883 13.0543V85.9928H590.411V13.0543H582.883ZM586.647 89.7564H587.124V82.2292H586.647V89.7564ZM590.159 88.2185C593.513 83.644 596.658 80.4027 599.561 78.3291L595.186 72.204C591.415 74.8976 587.726 78.8072 584.089 83.7671L590.159 88.2185ZM599.493 78.3761C602.997 75.9874 605.321 74.4397 606.519 73.6909L602.529 67.3078C601.185 68.148 598.742 69.7784 595.253 72.157L599.493 78.3761ZM606.338 73.797C609.209 72.2176 612.399 70.9798 615.925 70.0984L614.099 62.796C609.997 63.8214 606.195 65.285 602.71 67.2016L606.338 73.797ZM616.027 70.0714C619.603 69.07 623.78 68.5422 628.599 68.5422V61.015C623.247 61.015 618.366 61.5996 613.997 62.823L616.027 70.0714ZM628.599 68.5422C635.873 68.5422 641.971 69.6045 646.985 71.6101L649.78 64.6213C643.671 62.1775 636.58 61.015 628.599 61.015V68.5422ZM647.018 71.6234C652.266 73.6642 656.642 76.5488 660.21 80.2587L665.636 75.0416C661.257 70.4884 655.94 67.0166 649.747 64.608L647.018 71.6234ZM660.261 80.3114C661.454 81.5038 662.721 83.1042 664.047 85.1677L670.379 81.0973C668.845 78.7113 667.252 76.6568 665.584 74.9889L660.261 80.3114ZM664.23 85.4272C665.579 87.1812 666.858 89.4265 668.035 92.2205L674.972 89.2995C673.606 86.0551 672.025 83.2153 670.196 80.8378L664.23 85.4272ZM668.064 92.2886C669.196 94.8341 670.157 97.972 670.912 101.748L678.293 100.271C677.459 96.1018 676.354 92.4066 674.943 89.2315L668.064 92.2886ZM670.943 101.888C671.815 105.521 672.269 109.669 672.269 114.358H679.796C679.796 109.194 679.297 104.443 678.262 100.131L670.943 101.888ZM672.269 114.358V191.825H679.796V114.358H672.269ZM676.032 188.062H633.127V195.589H676.032V188.062ZM636.891 191.825V131.758H629.364V191.825H636.891ZM636.891 131.758C636.891 130.208 636.806 128.207 636.644 125.787L629.134 126.288C629.29 128.635 629.364 130.448 629.364 131.758H636.891ZM636.644 125.787C636.475 123.243 636.137 120.632 635.635 117.955L628.236 119.342C628.688 121.75 628.986 124.065 629.134 126.288L636.644 125.787ZM635.642 117.994C635.11 114.983 634.22 112.124 632.963 109.429L626.142 112.612C627.109 114.685 627.807 116.911 628.229 119.302L635.642 117.994ZM633.046 109.623C631.882 106.711 630.125 104.176 627.805 102.049L622.718 107.598C624.212 108.967 625.316 110.563 626.058 112.418L633.046 109.623ZM627.814 102.058C625.369 99.8007 622.637 98.2157 619.614 97.5679L618.037 104.928C619.464 105.234 621.022 106.032 622.709 107.589L627.814 102.058ZM619.672 97.5807C617.415 97.0598 615.294 96.7692 613.343 96.7692V104.296C614.571 104.296 616.105 104.483 617.979 104.915L619.672 97.5807ZM613.343 96.7692C607.943 96.7692 603.126 97.8144 599.081 100.125L602.816 106.661C605.446 105.158 608.892 104.296 613.343 104.296V96.7692ZM599.202 100.059C595.225 102.142 591.973 105.244 589.431 109.239L595.781 113.28C597.689 110.282 599.998 108.14 602.695 106.727L599.202 100.059ZM589.414 109.264C587.58 112.199 586.032 115.966 584.707 120.439L591.924 122.578C593.141 118.47 594.454 115.404 595.798 113.254L589.414 109.264ZM584.672 120.564C583.443 125.307 582.883 131.633 582.883 139.386H590.411C590.411 131.883 590.963 126.292 591.959 122.453L584.672 120.564ZM582.883 139.386V191.825H590.411V139.386H582.883ZM586.647 188.062H543.742V195.589H586.647V188.062ZM547.506 191.825V13.0543H539.978V191.825H547.506ZM716.005 192.302L714.971 195.921L714.984 195.925L714.997 195.928L716.005 192.302ZM701.226 185.151L698.931 188.134L698.958 188.155L698.986 188.175L701.226 185.151ZM691.215 173.233L687.871 174.959L687.882 174.982L687.894 175.004L691.215 173.233ZM692.645 134.618L689.5 132.552L689.479 132.583L689.459 132.616L692.645 134.618ZM706.947 121.747L708.666 125.095L708.683 125.086L708.7 125.077L706.947 121.747ZM727.446 115.311L726.914 111.585L726.903 111.587L727.446 115.311ZM771.543 113.643V117.406H775.153L775.303 113.799L771.543 113.643ZM769.159 104.108L765.968 106.103L766.011 106.173L766.058 106.24L769.159 104.108ZM762.485 97.9109L760.577 101.155L760.617 101.178L760.657 101.201L762.485 97.9109ZM753.189 94.5738L752.355 98.2438L752.435 98.262L752.516 98.2767L753.189 94.5738ZM723.87 95.5273L724.591 99.2212L724.634 99.2128L724.677 99.2033L723.87 95.5273ZM702.895 103.155H699.131V109.303L704.606 106.507L702.895 103.155ZM702.895 73.598L701.453 70.1214L699.131 71.0842V73.598H702.895ZM724.586 67.1623L723.861 63.469L723.854 63.4704L723.847 63.4718L724.586 67.1623ZM793.949 76.6967L791.662 79.6864L791.662 79.6864L793.949 76.6967ZM806.82 92.6669L803.438 94.317L803.438 94.317L806.82 92.6669ZM811.587 191.825V195.589H815.351V191.825H811.587ZM773.688 191.825H769.924V195.589H773.688V191.825ZM773.688 172.28H777.452V168.516H773.688V172.28ZM773.211 172.28V168.516H771.039L769.952 170.397L773.211 172.28ZM756.764 188.965L758.632 192.233L758.644 192.226L758.656 192.219L756.764 188.965ZM755.572 163.699L753.889 160.332L753.889 160.332L755.572 163.699ZM763.677 157.263L760.772 154.87L760.772 154.87L763.677 157.263ZM768.921 147.728L772.475 148.965L772.475 148.965L768.921 147.728ZM771.543 136.049L775.281 136.48L775.766 132.285H771.543V136.049ZM734.358 139.624L736.087 142.967L736.087 142.967L734.358 139.624ZM732.928 162.745L734.885 159.53L734.885 159.53L732.928 162.745ZM733.882 190.922C728.01 190.922 722.39 190.17 717.012 188.676L714.997 195.928C721.06 197.612 727.359 198.449 733.882 198.449V190.922ZM717.038 188.683C711.875 187.208 707.365 185.014 703.466 182.127L698.986 188.175C703.669 191.644 709.011 194.218 714.971 195.921L717.038 188.683ZM703.521 182.168C699.829 179.328 696.836 175.774 694.536 171.462L687.894 175.004C690.679 180.226 694.36 184.618 698.931 188.134L703.521 182.168ZM694.559 171.507C692.337 167.201 691.165 162.091 691.165 156.071H683.638C683.638 163.082 685.008 169.413 687.871 174.959L694.559 171.507ZM691.165 156.071C691.165 147.811 692.818 141.415 695.832 136.621L689.459 132.616C685.48 138.945 683.638 146.851 683.638 156.071H691.165ZM695.79 136.685C699.091 131.663 703.369 127.815 708.666 125.095L705.228 118.399C698.766 121.717 693.509 126.451 689.5 132.552L695.79 136.685ZM708.7 125.077C714.315 122.122 720.73 120.094 727.989 119.035L726.903 111.587C718.907 112.753 711.656 115.015 705.194 118.417L708.7 125.077ZM727.978 119.037C735.58 117.951 743.426 117.406 751.52 117.406V109.879C743.088 109.879 734.885 110.447 726.914 111.585L727.978 119.037ZM751.52 117.406H771.543V109.879H751.52V117.406ZM775.303 113.799C775.488 109.368 774.57 105.336 772.26 101.976L766.058 106.24C767.244 107.966 767.916 110.29 767.782 113.486L775.303 113.799ZM772.351 102.114C770.394 98.9824 767.678 96.4904 764.313 94.6209L760.657 101.201C763.013 102.51 764.746 104.149 765.968 106.103L772.351 102.114ZM764.393 94.6669C761.263 92.8255 757.736 91.5752 753.862 90.8709L752.516 98.2767C755.634 98.8436 758.304 99.818 760.577 101.155L764.393 94.6669ZM754.023 90.9038C750.26 90.0487 746.485 89.6184 742.701 89.6184V97.1456C745.909 97.1456 749.125 97.5099 752.355 98.2438L754.023 90.9038ZM742.701 89.6184C736.365 89.6184 729.817 90.3688 723.064 91.8512L724.677 99.2033C730.955 97.8254 736.96 97.1456 742.701 97.1456V89.6184ZM723.15 91.8333C716.213 93.1868 708.886 95.8694 701.183 99.8029L704.606 106.507C711.84 102.813 718.497 100.41 724.591 99.2212L723.15 91.8333ZM706.658 103.155V73.598H699.131V103.155H706.658ZM704.336 77.0746C710.594 74.48 717.584 72.4006 725.324 70.8528L723.847 63.4718C715.696 65.1021 708.226 67.3132 701.453 70.1214L704.336 77.0746ZM725.31 70.8555C733.132 69.3218 741.941 68.5422 751.759 68.5422V61.015C741.554 61.015 732.248 61.8245 723.861 63.469L725.31 70.8555ZM751.759 68.5422C759.566 68.5422 766.952 69.4604 773.93 71.2807L775.83 63.9973C768.188 62.0038 760.16 61.015 751.759 61.015V68.5422ZM773.93 71.2807C780.809 73.0753 786.699 75.8908 791.662 79.6864L796.235 73.7071C790.393 69.2394 783.57 66.0165 775.83 63.9973L773.93 71.2807ZM791.662 79.6864C796.57 83.4395 800.499 88.292 803.438 94.317L810.203 91.0169C806.785 84.0114 802.133 78.2171 796.235 73.7071L791.662 79.6864ZM803.438 94.317C806.306 100.198 807.824 107.469 807.824 116.265H815.351C815.351 106.627 813.69 98.166 810.203 91.0169L803.438 94.317ZM807.824 116.265V191.825H815.351V116.265H807.824ZM811.587 188.062H773.688V195.589H811.587V188.062ZM777.452 191.825V172.28H769.924V191.825H777.452ZM773.688 168.516H773.211V176.043H773.688V168.516ZM769.952 170.397C766.134 177.006 761.112 182.083 754.873 185.711L758.656 192.219C766.082 187.901 772.025 181.855 776.47 174.162L769.952 170.397ZM754.897 185.697C748.856 189.149 741.886 190.922 733.882 190.922V198.449C743.04 198.449 751.325 196.408 758.632 192.233L754.897 185.697ZM744.846 169.846C749.333 169.846 753.496 168.945 757.256 167.065L753.889 160.332C751.293 161.631 748.304 162.319 744.846 162.319V169.846ZM757.256 167.065C760.897 165.244 764.017 162.77 766.582 159.655L760.772 154.87C758.887 157.159 756.604 158.975 753.889 160.332L757.256 167.065ZM766.582 159.655C769.118 156.576 771.073 152.996 772.475 148.965L765.366 146.492C764.226 149.77 762.685 152.547 760.772 154.87L766.582 159.655ZM772.475 148.965C773.844 145.031 774.775 140.866 775.281 136.48L767.804 135.617C767.356 139.495 766.54 143.116 765.366 146.492L772.475 148.965ZM771.543 132.285H754.857V139.812H771.543V132.285ZM754.857 132.285C745.585 132.285 738.033 133.486 732.629 136.281L736.087 142.967C739.9 140.995 746.015 139.812 754.857 139.812V132.285ZM732.629 136.281C726.503 139.45 723.682 145.222 723.682 152.496H731.209C731.209 147.375 732.997 144.565 736.087 142.967L732.629 136.281ZM723.682 152.496C723.682 158.295 726.094 162.991 730.971 165.96L734.885 159.53C732.453 158.05 731.209 155.913 731.209 152.496H723.682ZM730.971 165.96C735.218 168.545 739.867 169.846 744.846 169.846V162.319C741.244 162.319 737.949 161.395 734.885 159.53L730.971 165.96ZM873.423 190.157L872.214 193.721L872.224 193.724L872.233 193.727L873.423 190.157ZM850.302 177.285L847.819 180.113L847.839 180.131L847.859 180.148L850.302 177.285ZM835.047 156.786L831.592 158.277L831.609 158.318L831.628 158.359L835.047 156.786ZM835.047 103.393L838.492 104.909L838.498 104.896L838.503 104.884L835.047 103.393ZM849.826 82.6557L847.343 79.8276L847.325 79.8428L847.308 79.8583L849.826 82.6557ZM873.185 69.5459L874.375 73.1163L874.403 73.107L874.431 73.0972L873.185 69.5459ZM919.427 66.2088L918.773 69.9152L918.773 69.9152L919.427 66.2088ZM936.113 71.6911H939.876V69.3063L937.72 68.2879L936.113 71.6911ZM936.113 103.155L934.191 106.391L939.876 109.766V103.155H936.113ZM920.381 97.4341L919.817 101.155L919.825 101.156L919.833 101.158L920.381 97.4341ZM894.876 98.6259L893.569 95.0966L893.547 95.1048L893.525 95.1132L894.876 98.6259ZM884.15 105.538L886.738 108.271L886.775 108.236L886.811 108.2L884.15 105.538ZM876.999 116.026L880.465 117.493L880.465 117.493L876.999 116.026ZM877.714 145.345L874.373 147.077L874.386 147.103L874.4 147.129L877.714 145.345ZM886.295 155.594L883.994 158.572L884.037 158.606L884.081 158.638L886.295 155.594ZM897.975 161.315L896.906 164.923L896.906 164.923L897.975 161.315ZM921.811 162.268L921.313 158.538L921.305 158.539L921.297 158.54L921.811 162.268ZM937.304 157.263H941.068V151.251L935.66 153.877L937.304 157.263ZM937.304 189.203L938.438 192.792L941.068 191.962V189.203H937.304ZM924.194 192.54L923.378 188.866L923.317 188.88L923.257 188.895L924.194 192.54ZM903.219 190.922C892.765 190.922 883.241 189.462 874.614 186.586L872.233 193.727C881.722 196.89 892.061 198.449 903.219 198.449V190.922ZM874.633 186.593C866.142 183.712 858.864 179.646 852.746 174.423L847.859 180.148C854.771 186.048 862.907 190.563 872.214 193.721L874.633 186.593ZM852.786 174.457C846.671 169.088 841.903 162.684 838.467 155.213L831.628 158.359C835.502 166.779 840.904 174.041 847.819 180.113L852.786 174.457ZM838.503 155.295C835.233 147.714 833.567 139.251 833.567 129.851H826.04C826.04 140.157 827.87 149.65 831.592 158.277L838.503 155.295ZM833.567 129.851C833.567 120.619 835.23 112.324 838.492 104.909L831.602 101.877C827.873 110.353 826.04 119.697 826.04 129.851H833.567ZM838.503 104.884C841.791 97.2613 846.403 90.7992 852.343 85.4532L847.308 79.8583C840.535 85.9536 835.295 93.3165 831.592 101.902L838.503 104.884ZM852.309 85.4839C858.41 80.1265 865.745 75.993 874.375 73.1163L871.995 65.9754C862.509 69.1373 854.271 73.7437 847.343 79.8276L852.309 85.4839ZM874.431 73.0972C883.025 70.0818 892.765 68.5422 903.695 68.5422V61.015C892.061 61.015 881.46 62.6537 871.939 65.9945L874.431 73.0972ZM903.695 68.5422C908.545 68.5422 913.569 68.9968 918.773 69.9152L920.081 62.5025C914.479 61.5139 909.016 61.015 903.695 61.015V68.5422ZM918.773 69.9152C923.8 70.8023 929.042 72.5146 934.505 75.0944L937.72 68.2879C931.741 65.4648 925.86 63.5222 920.081 62.5025L918.773 69.9152ZM932.349 71.6911V103.155H939.876V71.6911H932.349ZM938.034 99.9187C932.562 96.6699 926.855 94.5822 920.928 93.7106L919.833 101.158C924.712 101.875 929.493 103.601 934.191 106.391L938.034 99.9187ZM920.944 93.713C915.656 92.9117 911.456 92.4787 908.463 92.4787V100.006C910.872 100.006 914.618 100.368 919.817 101.155L920.944 93.713ZM908.463 92.4787C903.268 92.4787 898.295 93.3462 893.569 95.0966L896.183 102.155C900.038 100.728 904.123 100.006 908.463 100.006V92.4787ZM893.525 95.1132C888.92 96.8842 884.894 99.4718 881.488 102.877L886.811 108.2C889.444 105.567 892.568 103.546 896.227 102.139L893.525 95.1132ZM881.561 102.806C878.137 106.051 875.467 109.988 873.533 114.56L880.465 117.493C882.027 113.801 884.125 110.747 886.738 108.271L881.561 102.806ZM873.533 114.56C871.564 119.213 870.613 124.329 870.613 129.851H878.141C878.141 125.203 878.938 121.102 880.465 117.493L873.533 114.56ZM870.613 129.851C870.613 136.345 871.81 142.134 874.373 147.077L881.055 143.612C879.169 139.974 878.141 135.434 878.141 129.851H870.613ZM874.4 147.129C876.859 151.696 880.055 155.529 883.994 158.572L888.596 152.616C885.543 150.257 883.018 147.257 881.028 143.56L874.4 147.129ZM884.081 158.638C887.936 161.441 892.219 163.535 896.906 164.923L899.044 157.706C895.15 156.553 891.646 154.832 888.509 152.551L884.081 158.638ZM896.906 164.923C901.528 166.293 906.178 166.985 910.846 166.985V159.458C906.933 159.458 903.002 158.879 899.044 157.706L896.906 164.923ZM910.846 166.985C913.799 166.985 917.649 166.642 922.325 165.997L921.297 158.54C916.756 159.166 913.296 159.458 910.846 159.458V166.985ZM922.308 165.999C927.569 165.298 933.123 163.478 938.949 160.648L935.66 153.877C930.362 156.451 925.587 157.968 921.313 158.538L922.308 165.999ZM933.541 157.263V189.203H941.068V157.263H933.541ZM936.171 185.614C933.309 186.518 929.065 187.602 923.378 188.866L925.011 196.214C930.765 194.936 935.261 193.795 938.438 192.792L936.171 185.614ZM923.257 188.895C918.108 190.219 911.457 190.922 903.219 190.922V198.449C911.824 198.449 919.158 197.721 925.132 196.185L923.257 188.895ZM952.792 13.0543V9.29066H949.029V13.0543H952.792ZM995.697 13.0543H999.461V9.29066H995.697V13.0543ZM995.697 119.84H991.934V123.604H995.697V119.84ZM996.174 119.84V123.604H998.158L999.279 121.967L996.174 119.84ZM1031.93 67.639V63.8754H1029.94L1028.82 65.5122L1031.93 67.639ZM1078.89 67.639L1081.89 69.9112L1086.46 63.8754H1078.89V67.639ZM1035.74 124.607L1032.74 122.335L1031.09 124.513L1032.65 126.755L1035.74 124.607ZM1082.46 191.825V195.589H1089.66L1085.55 189.677L1082.46 191.825ZM1030.5 191.825L1027.21 193.659L1028.29 195.589H1030.5V191.825ZM996.174 130.328L999.46 128.494L998.383 126.564H996.174V130.328ZM995.697 130.328V126.564H991.934V130.328H995.697ZM995.697 191.825V195.589H999.461V191.825H995.697ZM952.792 191.825H949.029V195.589H952.792V191.825ZM952.792 16.8179H995.697V9.29066H952.792V16.8179ZM991.934 13.0543V119.84H999.461V13.0543H991.934ZM995.697 123.604H996.174V116.076H995.697V123.604ZM999.279 121.967L1035.03 69.7658L1028.82 65.5122L993.069 117.713L999.279 121.967ZM1031.93 71.4026H1078.89V63.8754H1031.93V71.4026ZM1075.89 65.3668L1032.74 122.335L1038.74 126.88L1081.89 69.9112L1075.89 65.3668ZM1032.65 126.755L1079.37 193.973L1085.55 189.677L1038.83 122.459L1032.65 126.755ZM1082.46 188.062H1030.5V195.589H1082.46V188.062ZM1033.78 189.991L999.46 128.494L992.888 132.162L1027.21 193.659L1033.78 189.991ZM996.174 126.564H995.697V134.092H996.174V126.564ZM991.934 130.328V191.825H999.461V130.328H991.934ZM995.697 188.062H952.792V195.589H995.697V188.062ZM956.556 191.825V13.0543H949.029V191.825H956.556ZM1111.79 192.302L1110.75 195.921L1110.77 195.925L1110.78 195.928L1111.79 192.302ZM1097.01 185.151L1094.71 188.134L1094.74 188.155L1094.77 188.175L1097.01 185.151ZM1087 173.233L1083.65 174.959L1083.66 174.982L1083.68 175.004L1087 173.233ZM1088.43 134.618L1085.28 132.552L1085.26 132.583L1085.24 132.616L1088.43 134.618ZM1102.73 121.747L1104.45 125.095L1104.46 125.086L1104.48 125.077L1102.73 121.747ZM1123.23 115.311L1122.7 111.585L1122.68 111.587L1123.23 115.311ZM1167.32 113.643V117.406H1170.93L1171.09 113.799L1167.32 113.643ZM1164.94 104.108L1161.75 106.103L1161.79 106.173L1161.84 106.24L1164.94 104.108ZM1158.27 97.9109L1156.36 101.155L1156.4 101.178L1156.44 101.201L1158.27 97.9109ZM1148.97 94.5738L1148.14 98.2438L1148.22 98.262L1148.3 98.2767L1148.97 94.5738ZM1119.65 95.5273L1120.37 99.2212L1120.42 99.2128L1120.46 99.2033L1119.65 95.5273ZM1098.68 103.155H1094.91V109.303L1100.39 106.507L1098.68 103.155ZM1098.68 73.598L1097.24 70.1214L1094.91 71.0842V73.598H1098.68ZM1120.37 67.1623L1119.64 63.469L1119.64 63.4704L1119.63 63.4718L1120.37 67.1623ZM1189.73 76.6967L1187.44 79.6864L1187.44 79.6864L1189.73 76.6967ZM1202.6 92.6669L1199.22 94.317L1199.22 94.317L1202.6 92.6669ZM1207.37 191.825V195.589H1211.13V191.825H1207.37ZM1169.47 191.825H1165.71V195.589H1169.47V191.825ZM1169.47 172.28H1173.23V168.516H1169.47V172.28ZM1168.99 172.28V168.516H1166.82L1165.73 170.397L1168.99 172.28ZM1152.55 188.965L1154.41 192.233L1154.43 192.226L1154.44 192.219L1152.55 188.965ZM1151.35 163.699L1149.67 160.332L1149.67 160.332L1151.35 163.699ZM1159.46 157.263L1156.55 154.87L1156.55 154.87L1159.46 157.263ZM1164.7 147.728L1168.26 148.965L1168.26 148.965L1164.7 147.728ZM1167.32 136.049L1171.06 136.48L1171.55 132.285H1167.32V136.049ZM1130.14 139.624L1131.87 142.967L1131.87 142.967L1130.14 139.624ZM1128.71 162.745L1130.67 159.53L1130.67 159.53L1128.71 162.745ZM1129.66 190.922C1123.79 190.922 1118.17 190.17 1112.79 188.676L1110.78 195.928C1116.84 197.612 1123.14 198.449 1129.66 198.449V190.922ZM1112.82 188.683C1107.66 187.208 1103.15 185.014 1099.25 182.127L1094.77 188.175C1099.45 191.644 1104.79 194.218 1110.75 195.921L1112.82 188.683ZM1099.3 182.168C1095.61 179.328 1092.62 175.774 1090.32 171.462L1083.68 175.004C1086.46 180.226 1090.14 184.618 1094.71 188.134L1099.3 182.168ZM1090.34 171.507C1088.12 167.201 1086.95 162.091 1086.95 156.071H1079.42C1079.42 163.082 1080.79 169.413 1083.65 174.959L1090.34 171.507ZM1086.95 156.071C1086.95 147.811 1088.6 141.415 1091.61 136.621L1085.24 132.616C1081.26 138.945 1079.42 146.851 1079.42 156.071H1086.95ZM1091.57 136.685C1094.87 131.663 1099.15 127.815 1104.45 125.095L1101.01 118.399C1094.55 121.717 1089.29 126.451 1085.28 132.552L1091.57 136.685ZM1104.48 125.077C1110.1 122.122 1116.51 120.094 1123.77 119.035L1122.68 111.587C1114.69 112.753 1107.44 115.015 1100.98 118.417L1104.48 125.077ZM1123.76 119.037C1131.36 117.951 1139.21 117.406 1147.3 117.406V109.879C1138.87 109.879 1130.67 110.447 1122.7 111.585L1123.76 119.037ZM1147.3 117.406H1167.32V109.879H1147.3V117.406ZM1171.09 113.799C1171.27 109.368 1170.35 105.336 1168.04 101.976L1161.84 106.24C1163.03 107.966 1163.7 110.29 1163.56 113.486L1171.09 113.799ZM1168.13 102.114C1166.18 98.9824 1163.46 96.4904 1160.09 94.6209L1156.44 101.201C1158.79 102.51 1160.53 104.149 1161.75 106.103L1168.13 102.114ZM1160.18 94.6669C1157.04 92.8255 1153.52 91.5752 1149.64 90.8709L1148.3 98.2767C1151.42 98.8436 1154.09 99.818 1156.36 101.155L1160.18 94.6669ZM1149.81 90.9038C1146.04 90.0487 1142.27 89.6184 1138.48 89.6184V97.1456C1141.69 97.1456 1144.91 97.5099 1148.14 98.2438L1149.81 90.9038ZM1138.48 89.6184C1132.15 89.6184 1125.6 90.3688 1118.85 91.8512L1120.46 99.2033C1126.74 97.8254 1132.74 97.1456 1138.48 97.1456V89.6184ZM1118.93 91.8333C1112 93.1868 1104.67 95.8694 1096.97 99.8029L1100.39 106.507C1107.62 102.813 1114.28 100.41 1120.37 99.2212L1118.93 91.8333ZM1102.44 103.155V73.598H1094.91V103.155H1102.44ZM1100.12 77.0746C1106.38 74.48 1113.37 72.4006 1121.11 70.8528L1119.63 63.4718C1111.48 65.1021 1104.01 67.3132 1097.24 70.1214L1100.12 77.0746ZM1121.09 70.8555C1128.91 69.3218 1137.72 68.5422 1147.54 68.5422V61.015C1137.34 61.015 1128.03 61.8245 1119.64 63.469L1121.09 70.8555ZM1147.54 68.5422C1155.35 68.5422 1162.73 69.4604 1169.71 71.2807L1171.61 63.9973C1163.97 62.0038 1155.94 61.015 1147.54 61.015V68.5422ZM1169.71 71.2807C1176.59 73.0753 1182.48 75.8908 1187.44 79.6864L1192.02 73.7071C1186.17 69.2394 1179.35 66.0165 1171.61 63.9973L1169.71 71.2807ZM1187.44 79.6864C1192.35 83.4395 1196.28 88.292 1199.22 94.317L1205.98 91.0169C1202.57 84.0114 1197.91 78.2171 1192.02 73.7071L1187.44 79.6864ZM1199.22 94.317C1202.09 100.198 1203.61 107.469 1203.61 116.265H1211.13C1211.13 106.627 1209.47 98.166 1205.98 91.0169L1199.22 94.317ZM1203.61 116.265V191.825H1211.13V116.265H1203.61ZM1207.37 188.062H1169.47V195.589H1207.37V188.062ZM1173.23 191.825V172.28H1165.71V191.825H1173.23ZM1169.47 168.516H1168.99V176.043H1169.47V168.516ZM1165.73 170.397C1161.92 177.006 1156.89 182.083 1150.65 185.711L1154.44 192.219C1161.86 187.901 1167.81 181.855 1172.25 174.162L1165.73 170.397ZM1150.68 185.697C1144.64 189.149 1137.67 190.922 1129.66 190.922V198.449C1138.82 198.449 1147.11 196.408 1154.41 192.233L1150.68 185.697ZM1140.63 169.846C1145.12 169.846 1149.28 168.945 1153.04 167.065L1149.67 160.332C1147.07 161.631 1144.09 162.319 1140.63 162.319V169.846ZM1153.04 167.065C1156.68 165.244 1159.8 162.77 1162.36 159.655L1156.55 154.87C1154.67 157.159 1152.39 158.975 1149.67 160.332L1153.04 167.065ZM1162.36 159.655C1164.9 156.576 1166.86 152.996 1168.26 148.965L1161.15 146.492C1160.01 149.77 1158.47 152.547 1156.55 154.87L1162.36 159.655ZM1168.26 148.965C1169.63 145.031 1170.56 140.866 1171.06 136.48L1163.59 135.617C1163.14 139.495 1162.32 143.116 1161.15 146.492L1168.26 148.965ZM1167.32 132.285H1150.64V139.812H1167.32V132.285ZM1150.64 132.285C1141.37 132.285 1133.82 133.486 1128.41 136.281L1131.87 142.967C1135.68 140.995 1141.8 139.812 1150.64 139.812V132.285ZM1128.41 136.281C1122.28 139.45 1119.46 145.222 1119.46 152.496H1126.99C1126.99 147.375 1128.78 144.565 1131.87 142.967L1128.41 136.281ZM1119.46 152.496C1119.46 158.295 1121.88 162.991 1126.75 165.96L1130.67 159.53C1128.23 158.05 1126.99 155.913 1126.99 152.496H1119.46ZM1126.75 165.96C1131 168.545 1135.65 169.846 1140.63 169.846V162.319C1137.03 162.319 1133.73 161.395 1130.67 159.53L1126.75 165.96ZM1249.82 183.721L1247.16 186.382L1247.18 186.41L1247.21 186.438L1249.82 183.721ZM1238.61 97.6725H1242.38V93.9089H1238.61V97.6725ZM1214.06 97.6725H1210.3V101.436H1214.06V97.6725ZM1214.06 67.639V63.8754H1210.3V67.639H1214.06ZM1238.61 67.639V71.4026H1242.38V67.639H1238.61ZM1238.61 39.7507L1237.51 36.1514L1234.85 36.9653V39.7507H1238.61ZM1281.52 26.6409H1285.28V21.5555L1280.42 23.0415L1281.52 26.6409ZM1281.52 67.639H1277.75V71.4026H1281.52V67.639ZM1311.55 67.639H1315.32V63.8754H1311.55V67.639ZM1311.55 97.6725V101.436H1315.32V97.6725H1311.55ZM1281.52 97.6725V93.9089H1277.75V97.6725H1281.52ZM1285.57 161.315L1282.7 163.752L1282.7 163.752L1285.57 161.315ZM1306.78 165.605L1307.28 169.336L1307.4 169.32L1307.52 169.296L1306.78 165.605ZM1313.22 163.937H1316.98V158.715L1312.03 160.366L1313.22 163.937ZM1313.22 192.302L1313.86 196.011L1316.98 195.472V192.302H1313.22ZM1299.4 193.97L1299.14 190.216L1299.07 190.22L1299.01 190.227L1299.4 193.97ZM1287 190.922C1270.23 190.922 1259.02 187.328 1252.42 181.004L1247.21 186.438C1255.87 194.733 1269.44 198.449 1287 198.449V190.922ZM1252.48 181.06C1246.01 174.596 1242.38 163.938 1242.38 148.205H1234.85C1234.85 164.889 1238.68 177.909 1247.16 186.382L1252.48 181.06ZM1242.38 148.205V97.6725H1234.85V148.205H1242.38ZM1238.61 93.9089H1214.06V101.436H1238.61V93.9089ZM1217.83 97.6725V67.639H1210.3V97.6725H1217.83ZM1214.06 71.4026H1238.61V63.8754H1214.06V71.4026ZM1242.38 67.639V39.7507H1234.85V67.639H1242.38ZM1239.71 43.35L1282.62 30.2402L1280.42 23.0415L1237.51 36.1514L1239.71 43.35ZM1277.75 26.6409V67.639H1285.28V26.6409H1277.75ZM1281.52 71.4026H1311.55V63.8754H1281.52V71.4026ZM1307.79 67.639V97.6725H1315.32V67.639H1307.79ZM1311.55 93.9089H1281.52V101.436H1311.55V93.9089ZM1277.75 97.6725V143.438H1285.28V97.6725H1277.75ZM1277.75 143.438C1277.75 152.26 1279.06 159.461 1282.7 163.752L1288.44 158.877C1286.68 156.813 1285.28 152.096 1285.28 143.438H1277.75ZM1282.7 163.752C1286.39 168.094 1292.05 169.846 1298.68 169.846V162.319C1293.24 162.319 1290.15 160.892 1288.44 158.877L1282.7 163.752ZM1298.68 169.846C1301.83 169.846 1304.7 169.681 1307.28 169.336L1306.29 161.875C1304.1 162.166 1301.57 162.319 1298.68 162.319V169.846ZM1307.52 169.296C1310.03 168.795 1312.33 168.201 1314.41 167.507L1312.03 160.366C1310.3 160.944 1308.31 161.463 1306.05 161.915L1307.52 169.296ZM1309.46 163.937V192.302H1316.98V163.937H1309.46ZM1312.58 188.593C1308.1 189.366 1303.62 189.907 1299.14 190.216L1299.65 197.725C1304.39 197.398 1309.13 196.827 1313.86 196.011L1312.58 188.593ZM1299.01 190.227C1294.5 190.694 1290.5 190.922 1287 190.922V198.449C1290.81 198.449 1295.08 198.201 1299.78 197.714L1299.01 190.227ZM1328.56 13.0543V9.29066H1324.79V13.0543H1328.56ZM1371.46 13.0543H1375.22V9.29066H1371.46V13.0543ZM1371.46 85.9928H1367.7V89.7564H1371.46V85.9928ZM1371.94 85.9928V89.7564H1373.84L1374.97 88.2185L1371.94 85.9928ZM1382.19 75.2665L1380.07 72.157L1380.03 72.1801L1380 72.204L1382.19 75.2665ZM1389.34 70.4993L1387.52 67.2016L1387.43 67.2522L1387.34 67.3078L1389.34 70.4993ZM1399.83 66.4472L1400.74 70.0984L1400.79 70.0856L1400.84 70.0714L1399.83 66.4472ZM1433.2 68.1157L1431.8 71.6101L1431.82 71.6168L1431.83 71.6234L1433.2 68.1157ZM1447.74 77.6502L1445.02 80.2587L1445.05 80.2853L1445.07 80.3114L1447.74 77.6502ZM1452.03 83.1325L1448.86 85.1677L1448.95 85.3013L1449.04 85.4272L1452.03 83.1325ZM1456.32 90.76L1452.85 92.2205L1452.86 92.2547L1452.88 92.2886L1456.32 90.76ZM1459.42 101.01L1455.73 101.748L1455.74 101.818L1455.76 101.888L1459.42 101.01ZM1460.85 191.825V195.589H1464.61V191.825H1460.85ZM1417.94 191.825H1414.18V195.589H1417.94V191.825ZM1417.7 126.037L1413.95 126.288L1413.95 126.288L1417.7 126.037ZM1416.75 118.648L1413.04 119.302L1413.05 119.322L1413.05 119.342L1416.75 118.648ZM1414.37 111.021L1410.87 112.418L1410.91 112.517L1410.96 112.612L1414.37 111.021ZM1410.08 104.823L1407.52 107.589L1407.53 107.598L1410.08 104.823ZM1403.64 101.248L1402.79 104.915L1402.82 104.922L1402.85 104.928L1403.64 101.248ZM1385.76 103.393L1387.51 106.727L1387.57 106.695L1387.63 106.661L1385.76 103.393ZM1377.42 111.259L1374.24 109.239L1374.24 109.251L1374.23 109.264L1377.42 111.259ZM1373.13 121.509L1369.52 120.439L1369.5 120.501L1369.49 120.564L1373.13 121.509ZM1371.46 191.825V195.589H1375.22V191.825H1371.46ZM1328.56 191.825H1324.79V195.589H1328.56V191.825ZM1328.56 16.8179H1371.46V9.29066H1328.56V16.8179ZM1367.7 13.0543V85.9928H1375.22V13.0543H1367.7ZM1371.46 89.7564H1371.94V82.2292H1371.46V89.7564ZM1374.97 88.2185C1378.33 83.644 1381.47 80.4027 1384.37 78.3291L1380 72.204C1376.23 74.8976 1372.54 78.8072 1368.9 83.7671L1374.97 88.2185ZM1384.31 78.3761C1387.81 75.9874 1390.13 74.4397 1391.33 73.6909L1387.34 67.3078C1386 68.148 1383.56 69.7784 1380.07 72.157L1384.31 78.3761ZM1391.15 73.797C1394.02 72.2176 1397.21 70.9798 1400.74 70.0984L1398.91 62.796C1394.81 63.8214 1391.01 65.285 1387.52 67.2016L1391.15 73.797ZM1400.84 70.0714C1404.42 69.07 1408.59 68.5422 1413.41 68.5422V61.015C1408.06 61.015 1403.18 61.5996 1398.81 62.823L1400.84 70.0714ZM1413.41 68.5422C1420.69 68.5422 1426.78 69.6045 1431.8 71.6101L1434.59 64.6213C1428.48 62.1775 1421.39 61.015 1413.41 61.015V68.5422ZM1431.83 71.6234C1437.08 73.6642 1441.46 76.5488 1445.02 80.2587L1450.45 75.0416C1446.07 70.4884 1440.75 67.0166 1434.56 64.608L1431.83 71.6234ZM1445.07 80.3114C1446.27 81.5038 1447.53 83.1042 1448.86 85.1677L1455.19 81.0973C1453.66 78.7113 1452.07 76.6568 1450.4 74.9889L1445.07 80.3114ZM1449.04 85.4272C1450.39 87.1812 1451.67 89.4265 1452.85 92.2205L1459.79 89.2995C1458.42 86.0551 1456.84 83.2153 1455.01 80.8378L1449.04 85.4272ZM1452.88 92.2886C1454.01 94.8341 1454.97 97.972 1455.73 101.748L1463.11 100.271C1462.27 96.1018 1461.17 92.4066 1459.76 89.2315L1452.88 92.2886ZM1455.76 101.888C1456.63 105.521 1457.08 109.669 1457.08 114.358H1464.61C1464.61 109.194 1464.11 104.443 1463.08 100.131L1455.76 101.888ZM1457.08 114.358V191.825H1464.61V114.358H1457.08ZM1460.85 188.062H1417.94V195.589H1460.85V188.062ZM1421.7 191.825V131.758H1414.18V191.825H1421.7ZM1421.7 131.758C1421.7 130.208 1421.62 128.207 1421.46 125.787L1413.95 126.288C1414.1 128.635 1414.18 130.448 1414.18 131.758H1421.7ZM1421.46 125.787C1421.29 123.243 1420.95 120.632 1420.45 117.955L1413.05 119.342C1413.5 121.75 1413.8 124.065 1413.95 126.288L1421.46 125.787ZM1420.46 117.994C1419.92 114.983 1419.03 112.124 1417.78 109.429L1410.96 112.612C1411.92 114.685 1412.62 116.911 1413.04 119.302L1420.46 117.994ZM1417.86 109.623C1416.7 106.711 1414.94 104.176 1412.62 102.049L1407.53 107.598C1409.03 108.967 1410.13 110.563 1410.87 112.418L1417.86 109.623ZM1412.63 102.058C1410.18 99.8007 1407.45 98.2157 1404.43 97.5679L1402.85 104.928C1404.28 105.234 1405.84 106.032 1407.52 107.589L1412.63 102.058ZM1404.49 97.5807C1402.23 97.0598 1400.11 96.7692 1398.16 96.7692V104.296C1399.38 104.296 1400.92 104.483 1402.79 104.915L1404.49 97.5807ZM1398.16 96.7692C1392.76 96.7692 1387.94 97.8144 1383.9 100.125L1387.63 106.661C1390.26 105.158 1393.71 104.296 1398.16 104.296V96.7692ZM1384.02 100.059C1380.04 102.142 1376.79 105.244 1374.24 109.239L1380.59 113.28C1382.5 110.282 1384.81 108.14 1387.51 106.727L1384.02 100.059ZM1374.23 109.264C1372.39 112.199 1370.85 115.966 1369.52 120.439L1376.74 122.578C1377.95 118.47 1379.27 115.404 1380.61 113.254L1374.23 109.264ZM1369.49 120.564C1368.26 125.307 1367.7 131.633 1367.7 139.386H1375.22C1375.22 131.883 1375.78 126.292 1376.77 122.453L1369.49 120.564ZM1367.7 139.386V191.825H1375.22V139.386H1367.7ZM1371.46 188.062H1328.56V195.589H1371.46V188.062ZM1332.32 191.825V13.0543H1324.79V191.825H1332.32ZM1528.39 102.916L1525.61 100.381L1525.59 100.402L1525.57 100.423L1528.39 102.916ZM1521.24 116.503L1517.57 115.674L1517.56 115.719L1517.55 115.765L1521.24 116.503ZM1521.24 143.438L1517.54 144.153L1517.56 144.223L1517.57 144.293L1521.24 143.438ZM1528.39 156.786L1525.57 159.28L1525.59 159.301L1525.61 159.322L1528.39 156.786ZM1567 156.786L1569.79 159.322L1569.8 159.301L1569.82 159.28L1567 156.786ZM1573.92 143.438L1570.25 142.609L1570.24 142.654L1570.23 142.7L1573.92 143.438ZM1573.92 116.503L1570.22 117.218L1570.24 117.289L1570.25 117.358L1573.92 116.503ZM1567 102.916L1569.82 100.423L1569.8 100.402L1569.79 100.381L1567 102.916ZM1597.04 80.0338L1594.71 82.9878L1594.74 83.0167L1594.78 83.0447L1597.04 80.0338ZM1604.9 87.423L1602.1 89.9325L1602.13 89.9703L1602.17 90.0071L1604.9 87.423ZM1612.29 97.9109L1608.98 99.6952L1608.99 99.7226L1609.01 99.7498L1612.29 97.9109ZM1617.78 111.974L1614.14 112.937L1614.14 112.951L1614.14 112.964L1617.78 111.974ZM1617.78 147.967L1621.41 148.957L1621.41 148.943L1621.41 148.93L1617.78 147.967ZM1612.29 162.03L1615.58 163.869L1615.59 163.842L1615.61 163.814L1612.29 162.03ZM1604.9 172.518L1607.64 175.102L1607.67 175.065L1607.71 175.027L1604.9 172.518ZM1597.04 179.669L1594.78 176.658L1594.73 176.698L1594.67 176.741L1597.04 179.669ZM1584.17 187.535L1582.68 184.075L1582.68 184.075L1584.17 187.535ZM1571.06 192.064L1570.11 188.42L1570.11 188.42L1571.06 192.064ZM1558.42 194.209L1558.13 190.456L1558.12 190.457L1558.42 194.209ZM1536.73 194.209L1536.43 197.96L1536.44 197.961L1536.73 194.209ZM1524.34 192.064L1525.28 188.42L1525.28 188.42L1524.34 192.064ZM1511.23 187.535L1512.71 184.075L1512.71 184.075L1511.23 187.535ZM1498.36 179.669L1500.72 176.741L1500.67 176.698L1500.61 176.658L1498.36 179.669ZM1490.49 172.518L1487.69 175.027L1487.72 175.065L1487.75 175.102L1490.49 172.518ZM1483.1 162.03L1479.79 163.814L1479.8 163.842L1479.82 163.869L1483.1 162.03ZM1477.62 147.967L1473.98 148.93L1473.98 148.943L1473.99 148.957L1477.62 147.967ZM1477.62 111.974L1481.25 112.964L1481.25 112.951L1481.26 112.937L1477.62 111.974ZM1483.1 97.9109L1486.38 99.7498L1486.4 99.7226L1486.41 99.6952L1483.1 97.9109ZM1490.49 87.423L1493.23 90.0071L1493.26 89.9703L1493.3 89.9325L1490.49 87.423ZM1498.36 80.0338L1500.61 83.0447L1500.65 83.0167L1500.69 82.9878L1498.36 80.0338ZM1520.05 68.8308L1518.9 65.247L1518.9 65.247L1520.05 68.8308ZM1547.7 91.0486C1538.8 91.0486 1531.31 94.1229 1525.61 100.381L1531.17 105.452C1535.32 100.904 1540.71 98.5758 1547.7 98.5758V91.0486ZM1525.57 100.423C1521.54 104.984 1518.83 110.074 1517.57 115.674L1524.91 117.332C1525.87 113.08 1527.93 109.112 1531.21 105.41L1525.57 100.423ZM1517.55 115.765C1516.55 120.734 1516.05 125.433 1516.05 129.851H1523.57C1523.57 126.006 1524.02 121.807 1524.93 117.241L1517.55 115.765ZM1516.05 129.851C1516.05 134.267 1516.55 139.039 1517.54 144.153L1524.93 142.723C1524.02 137.984 1523.57 133.698 1523.57 129.851H1516.05ZM1517.57 144.293C1518.85 149.742 1521.56 154.741 1525.57 159.28L1531.21 154.292C1527.91 150.568 1525.86 146.668 1524.9 142.583L1517.57 144.293ZM1525.61 159.322C1531.31 165.58 1538.8 168.654 1547.7 168.654V161.127C1540.71 161.127 1535.32 158.798 1531.17 154.25L1525.61 159.322ZM1547.7 168.654C1556.6 168.654 1564.08 165.58 1569.79 159.322L1564.22 154.25C1560.08 158.798 1554.69 161.127 1547.7 161.127V168.654ZM1569.82 159.28C1573.86 154.719 1576.51 149.679 1577.61 144.176L1570.23 142.7C1569.42 146.731 1567.46 150.59 1564.19 154.292L1569.82 159.28ZM1577.59 144.267C1578.75 139.126 1579.35 134.315 1579.35 129.851H1571.82C1571.82 133.65 1571.31 137.897 1570.25 142.609L1577.59 144.267ZM1579.35 129.851C1579.35 125.385 1578.75 120.645 1577.58 115.648L1570.25 117.358C1571.31 121.895 1571.82 126.055 1571.82 129.851H1579.35ZM1577.61 115.788C1576.52 110.137 1573.88 105.007 1569.82 100.423L1564.19 105.41C1567.44 109.089 1569.41 113.017 1570.22 117.218L1577.61 115.788ZM1569.79 100.381C1564.08 94.1229 1556.6 91.0486 1547.7 91.0486V98.5758C1554.69 98.5758 1560.08 100.904 1564.22 105.452L1569.79 100.381ZM1547.7 68.5422C1557.37 68.5422 1566.19 69.8468 1574.2 72.4145L1576.5 65.247C1567.66 62.4119 1558.05 61.015 1547.7 61.015V68.5422ZM1574.2 72.4145C1582.25 74.9988 1589.07 78.5379 1594.71 82.9878L1599.37 77.0798C1592.93 71.9952 1585.28 68.0657 1576.5 65.247L1574.2 72.4145ZM1594.78 83.0447C1597.08 84.7688 1599.52 87.0503 1602.1 89.9325L1607.71 84.9134C1604.88 81.7571 1602.08 79.1125 1599.3 77.0229L1594.78 83.0447ZM1602.17 90.0071C1604.6 92.5865 1606.88 95.8003 1608.98 99.6952L1615.61 96.1265C1613.25 91.7582 1610.61 87.9801 1607.64 84.8388L1602.17 90.0071ZM1609.01 99.7498C1611.05 103.392 1612.77 107.774 1614.14 112.937L1621.41 111.011C1619.92 105.369 1617.99 100.375 1615.58 96.072L1609.01 99.7498ZM1614.14 112.964C1615.47 117.822 1616.16 123.439 1616.16 129.851H1623.68C1623.68 122.916 1622.94 116.614 1621.41 110.984L1614.14 112.964ZM1616.16 129.851C1616.16 136.261 1615.47 141.969 1614.14 147.004L1621.41 148.93C1622.94 143.159 1623.68 136.79 1623.68 129.851H1616.16ZM1614.14 146.976C1612.78 151.987 1611.05 156.402 1608.98 160.246L1615.61 163.814C1617.99 159.395 1619.91 154.434 1621.41 148.957L1614.14 146.976ZM1609.01 160.191C1606.9 163.953 1604.6 167.218 1602.1 170.008L1607.71 175.027C1610.61 171.779 1613.23 168.053 1615.58 163.869L1609.01 160.191ZM1602.17 169.934C1599.58 172.674 1597.12 174.905 1594.78 176.658L1599.3 182.68C1602.04 180.618 1604.82 178.083 1607.64 175.102L1602.17 169.934ZM1594.67 176.741C1590.78 179.882 1586.79 182.317 1582.68 184.075L1585.65 190.994C1590.44 188.939 1595.03 186.13 1599.4 182.597L1594.67 176.741ZM1582.68 184.075C1578.39 185.914 1574.2 187.36 1570.11 188.42L1572 195.707C1576.49 194.543 1581.04 192.969 1585.65 190.994L1582.68 184.075ZM1570.11 188.42C1566.02 189.481 1562.03 190.157 1558.13 190.456L1558.71 197.961C1563.08 197.625 1567.51 196.871 1572 195.707L1570.11 188.42ZM1558.12 190.457C1554.23 190.769 1550.75 190.922 1547.7 190.922V198.449C1551 198.449 1554.67 198.284 1558.72 197.96L1558.12 190.457ZM1547.7 190.922C1544.64 190.922 1541.08 190.769 1537.02 190.456L1536.44 197.961C1540.64 198.284 1544.4 198.449 1547.7 198.449V190.922ZM1537.03 190.457C1533.3 190.159 1529.38 189.484 1525.28 188.42L1523.39 195.707C1527.87 196.868 1532.22 197.623 1536.43 197.96L1537.03 190.457ZM1525.28 188.42C1521.19 187.36 1517 185.914 1512.71 184.075L1509.75 190.994C1514.35 192.969 1518.9 194.543 1523.39 195.707L1525.28 188.42ZM1512.71 184.075C1508.61 182.317 1504.61 179.882 1500.72 176.741L1495.99 182.597C1500.37 186.13 1504.95 188.939 1509.75 190.994L1512.71 184.075ZM1500.61 176.658C1498.28 174.905 1495.81 172.674 1493.23 169.934L1487.75 175.102C1490.57 178.083 1493.35 180.618 1496.1 182.68L1500.61 176.658ZM1493.3 170.008C1490.8 167.218 1488.49 163.953 1486.38 160.191L1479.82 163.869C1482.16 168.053 1484.78 171.779 1487.69 175.027L1493.3 170.008ZM1486.41 160.246C1484.35 156.402 1482.62 151.987 1481.25 146.976L1473.99 148.957C1475.48 154.434 1477.41 159.395 1479.79 163.814L1486.41 160.246ZM1481.26 147.004C1479.92 141.969 1479.24 136.261 1479.24 129.851H1471.71C1471.71 136.79 1472.45 143.159 1473.98 148.93L1481.26 147.004ZM1479.24 129.851C1479.24 123.439 1479.93 117.822 1481.25 112.964L1473.99 110.984C1472.45 116.614 1471.71 122.916 1471.71 129.851H1479.24ZM1481.26 112.937C1482.62 107.774 1484.35 103.392 1486.38 99.7498L1479.82 96.072C1477.41 100.375 1475.47 105.369 1473.98 111.011L1481.26 112.937ZM1486.41 99.6952C1488.51 95.8003 1490.79 92.5865 1493.23 90.0071L1487.75 84.8388C1484.79 87.9801 1482.14 91.7582 1479.79 96.1265L1486.41 99.6952ZM1493.3 89.9325C1495.87 87.0503 1498.32 84.7688 1500.61 83.0447L1496.1 77.0229C1493.31 79.1125 1490.51 81.7571 1487.69 84.9134L1493.3 89.9325ZM1500.69 82.9878C1506.32 78.5379 1513.14 74.9988 1521.2 72.4145L1518.9 65.247C1510.11 68.0657 1502.46 71.9952 1496.02 77.0798L1500.69 82.9878ZM1521.2 72.4145C1529.2 69.8468 1538.03 68.5422 1547.7 68.5422V61.015C1537.35 61.015 1527.74 62.4119 1518.9 65.247L1521.2 72.4145ZM1638.27 67.639V63.8754H1634.5V67.639H1638.27ZM1677.36 67.639H1681.12V63.8754H1677.36V67.639ZM1677.36 90.5217H1673.59V94.2853H1677.36V90.5217ZM1677.83 90.5217V94.2853H1680.23L1681.25 92.1132L1677.83 90.5217ZM1686.18 78.6036L1688.77 81.329L1688.81 81.2973L1688.84 81.2649L1686.18 78.6036ZM1697.38 70.4993L1699.06 73.8656L1699.06 73.8656L1697.38 70.4993ZM1712.4 65.7321L1711.92 61.9994L1711.92 61.9994L1712.4 65.7321ZM1741.95 67.639L1743.14 64.0685L1743.14 64.0685L1741.95 67.639ZM1757.21 77.4118L1754.5 80.026L1754.52 80.0497L1754.55 80.0731L1757.21 77.4118ZM1766.03 90.76L1769.39 89.0769L1769.39 89.0769L1766.03 90.76ZM1770.56 191.825V195.589H1774.32V191.825H1770.56ZM1727.65 191.825H1723.89V195.589H1727.65V191.825ZM1727.41 125.561L1723.66 125.811L1723.66 125.811L1727.41 125.561ZM1726.46 118.41L1722.76 119.104L1722.77 119.126L1722.77 119.148L1726.46 118.41ZM1724.08 111.021L1720.58 112.418L1720.62 112.517L1720.67 112.612L1724.08 111.021ZM1719.79 104.823L1722.33 102.049L1722.33 102.049L1719.79 104.823ZM1713.83 101.486L1712.72 105.083L1712.85 105.123L1712.98 105.154L1713.83 101.486ZM1698.81 101.963L1699.68 105.624L1699.76 105.605L1699.84 105.582L1698.81 101.963ZM1689.28 108.16L1692.04 110.713L1692.05 110.699L1692.07 110.685L1689.28 108.16ZM1684.75 115.55L1681.24 114.185L1681.22 114.241L1681.2 114.297L1684.75 115.55ZM1682.36 123.892L1678.69 123.076L1678.67 123.174L1678.65 123.274L1682.36 123.892ZM1681.41 132.235L1685.17 132.456L1685.17 132.456L1681.41 132.235ZM1681.17 191.825V195.589H1684.94V191.825H1681.17ZM1638.27 191.825H1634.5V195.589H1638.27V191.825ZM1638.27 71.4026H1677.36V63.8754H1638.27V71.4026ZM1673.59 67.639V90.5217H1681.12V67.639H1673.59ZM1677.36 94.2853H1677.83V86.7581H1677.36V94.2853ZM1681.25 92.1132C1683.3 87.7118 1685.82 84.1408 1688.77 81.329L1683.58 75.8782C1679.86 79.4227 1676.82 83.7971 1674.42 88.9301L1681.25 92.1132ZM1688.84 81.2649C1691.9 78.2076 1695.3 75.7465 1699.06 73.8656L1695.7 67.1331C1691.2 69.3837 1687.13 72.3255 1683.52 75.9423L1688.84 81.2649ZM1699.06 73.8656C1703.83 71.4848 1708.43 70.0392 1712.88 69.4647L1711.92 61.9994C1706.52 62.6962 1701.11 64.4288 1695.7 67.1331L1699.06 73.8656ZM1712.88 69.4647C1717.79 68.831 1721.16 68.5422 1723.12 68.5422V61.015C1720.64 61.015 1716.86 61.362 1711.92 61.9994L1712.88 69.4647ZM1723.12 68.5422C1729.61 68.5422 1735.47 69.4462 1740.76 71.2094L1743.14 64.0685C1736.99 62.0179 1730.31 61.015 1723.12 61.015V68.5422ZM1740.76 71.2094C1745.87 72.9126 1750.45 75.8261 1754.5 80.026L1759.92 74.7976C1755.07 69.7809 1749.48 66.1792 1743.14 64.0685L1740.76 71.2094ZM1754.55 80.0731C1756.99 82.5196 1759.72 86.5585 1762.66 92.4432L1769.39 89.0769C1766.3 82.8845 1763.14 78.0247 1759.87 74.7505L1754.55 80.0731ZM1762.66 92.4432C1765.33 97.7818 1766.79 105.012 1766.79 114.358H1774.32C1774.32 104.317 1772.76 95.8152 1769.39 89.0769L1762.66 92.4432ZM1766.79 114.358V191.825H1774.32V114.358H1766.79ZM1770.56 188.062H1727.65V195.589H1770.56V188.062ZM1731.42 191.825V131.758H1723.89V191.825H1731.42ZM1731.42 131.758C1731.42 129.903 1731.33 127.75 1731.17 125.31L1723.66 125.811C1723.81 128.139 1723.89 130.118 1723.89 131.758H1731.42ZM1731.17 125.31C1731 122.76 1730.66 120.214 1730.15 117.672L1722.77 119.148C1723.22 121.373 1723.51 123.594 1723.66 125.811L1731.17 125.31ZM1730.16 117.716C1729.62 114.858 1728.73 112.094 1727.49 109.429L1720.67 112.612C1721.65 114.715 1722.34 116.876 1722.76 119.104L1730.16 117.716ZM1727.57 109.623C1726.41 106.711 1724.65 104.176 1722.33 102.049L1717.24 107.598C1718.74 108.967 1719.84 110.563 1720.58 112.418L1727.57 109.623ZM1722.33 102.049C1720.05 99.958 1717.5 98.4709 1714.67 97.8191L1712.98 105.154C1714.29 105.455 1715.71 106.193 1717.24 107.598L1722.33 102.049ZM1714.93 97.8891C1712.53 97.1483 1710.09 96.7692 1707.63 96.7692V104.296C1709.3 104.296 1711 104.553 1712.72 105.083L1714.93 97.8891ZM1707.63 96.7692C1704.64 96.7692 1701.34 97.3271 1697.78 98.3442L1699.84 105.582C1702.96 104.692 1705.54 104.296 1707.63 104.296V96.7692ZM1697.94 98.3018C1693.66 99.3199 1689.86 101.908 1686.49 105.635L1692.07 110.685C1694.73 107.738 1697.28 106.195 1699.68 105.624L1697.94 98.3018ZM1686.51 105.608C1684.26 108.05 1682.51 110.926 1681.24 114.185L1688.26 116.914C1689.21 114.452 1690.48 112.402 1692.04 110.713L1686.51 105.608ZM1681.2 114.297C1680.19 117.144 1679.36 120.071 1678.69 123.076L1686.04 124.709C1686.64 121.993 1687.39 119.358 1688.3 116.802L1681.2 114.297ZM1678.65 123.274C1678.15 126.256 1677.82 129.17 1677.65 132.014L1685.17 132.456C1685.32 129.897 1685.62 127.249 1686.08 124.511L1678.65 123.274ZM1677.65 132.014C1677.49 134.768 1677.41 137.228 1677.41 139.386H1684.94C1684.94 137.412 1685.01 135.105 1685.17 132.456L1677.65 132.014ZM1677.41 139.386V191.825H1684.94V139.386H1677.41ZM1681.17 188.062H1638.27V195.589H1681.17V188.062ZM1642.03 191.825V67.639H1634.5V191.825H1642.03Z" fill="white" mask="url(#path-1-inside-1_21_10939)"></path><mask id="path-3-inside-2_21_10939" fill="white"><path d="M1234.07 377.817C1257.43 359.065 1275.55 342.698 1288.42 328.714C1301.29 314.73 1307.73 302.733 1307.73 292.722C1307.73 286.842 1305.66 282.075 1301.53 278.42C1297.56 274.606 1291.76 272.699 1284.13 272.699C1275.87 272.699 1267.68 273.812 1259.58 276.036C1251.63 278.261 1244.48 281.201 1238.13 284.856V249.578C1245.91 246.718 1253.7 244.414 1261.48 242.666C1269.27 240.759 1277.61 239.805 1286.51 239.805C1297.79 239.805 1307.57 240.997 1315.83 243.381C1324.09 245.764 1330.85 249.181 1336.09 253.63C1341.49 258.08 1345.47 263.403 1348.01 269.601C1350.71 275.798 1352.06 282.71 1352.06 290.338C1352.06 297.807 1350.63 304.957 1347.77 311.79C1344.91 318.623 1340.7 325.536 1335.14 332.528C1329.74 339.52 1323.06 346.75 1315.12 354.219C1307.33 361.528 1298.51 369.474 1288.66 378.055H1355.64V409.519H1234.07V377.817ZM1437.96 412.379C1427.48 412.379 1418.26 410.869 1410.32 407.85C1402.37 404.831 1395.62 399.905 1390.05 393.072C1384.65 386.239 1380.52 377.34 1377.66 366.375C1374.96 355.411 1373.61 341.983 1373.61 326.092C1373.61 310.201 1374.96 296.774 1377.66 285.809C1380.52 274.844 1384.65 265.946 1390.05 259.113C1395.62 252.28 1402.37 247.353 1410.32 244.334C1418.26 241.315 1427.48 239.805 1437.96 239.805C1448.45 239.805 1457.67 241.315 1465.61 244.334C1473.56 247.353 1480.23 252.28 1485.64 259.113C1491.2 265.946 1495.33 274.844 1498.03 285.809C1500.89 296.774 1502.32 310.201 1502.32 326.092C1502.32 341.983 1500.89 355.411 1498.03 366.375C1495.33 377.34 1491.2 386.239 1485.64 393.072C1480.23 399.905 1473.56 404.831 1465.61 407.85C1457.67 410.869 1448.45 412.379 1437.96 412.379ZM1437.96 381.392C1441.46 381.392 1444.64 380.677 1447.5 379.247C1450.52 377.817 1453.06 375.115 1455.13 371.142C1457.35 367.011 1459.02 361.37 1460.13 354.219C1461.24 346.909 1461.8 337.533 1461.8 326.092C1461.8 314.651 1461.24 305.355 1460.13 298.204C1459.02 291.053 1457.35 285.491 1455.13 281.519C1453.06 277.387 1450.52 274.606 1447.5 273.176C1444.64 271.587 1441.46 270.792 1437.96 270.792C1434.31 270.792 1431.05 271.587 1428.19 273.176C1425.33 274.606 1422.79 277.387 1420.56 281.519C1418.5 285.491 1416.91 291.053 1415.8 298.204C1414.68 305.355 1414.13 314.651 1414.13 326.092C1414.13 337.533 1414.68 346.909 1415.8 354.219C1416.91 361.37 1418.5 367.011 1420.56 371.142C1422.79 375.115 1425.33 377.817 1428.19 379.247C1431.05 380.677 1434.31 381.392 1437.96 381.392Z"></path><path d="M1520.29 377.817C1543.65 359.065 1561.77 342.698 1574.64 328.714C1587.51 314.73 1593.95 302.733 1593.95 292.722C1593.95 286.842 1591.88 282.075 1587.75 278.42C1583.78 274.606 1577.98 272.699 1570.35 272.699C1562.09 272.699 1553.9 273.812 1545.8 276.036C1537.85 278.261 1530.7 281.201 1524.34 284.856V249.578C1532.13 246.718 1539.92 244.414 1547.7 242.666C1555.49 240.759 1563.83 239.805 1572.73 239.805C1584.01 239.805 1593.79 240.997 1602.05 243.381C1610.31 245.764 1617.07 249.181 1622.31 253.63C1627.71 258.08 1631.69 263.403 1634.23 269.601C1636.93 275.798 1638.28 282.71 1638.28 290.338C1638.28 297.807 1636.85 304.957 1633.99 311.79C1631.13 318.623 1626.92 325.536 1621.36 332.528C1615.95 339.52 1609.28 346.75 1601.34 354.219C1593.55 361.528 1584.73 369.474 1574.88 378.055H1641.86V409.519H1520.29V377.817ZM1728.24 377.34H1653.87V341.586L1718.23 242.666H1768.76V346.353H1792.12V377.34H1768.76V409.519H1728.24V377.34ZM1728.24 346.353V285.094H1727.76L1687.95 346.353H1728.24Z"></path></mask><path d="M1520.29 377.817C1543.65 359.065 1561.77 342.698 1574.64 328.714C1587.51 314.73 1593.95 302.733 1593.95 292.722C1593.95 286.842 1591.88 282.075 1587.75 278.42C1583.78 274.606 1577.98 272.699 1570.35 272.699C1562.09 272.699 1553.9 273.812 1545.8 276.036C1537.85 278.261 1530.7 281.201 1524.34 284.856V249.578C1532.13 246.718 1539.92 244.414 1547.7 242.666C1555.49 240.759 1563.83 239.805 1572.73 239.805C1584.01 239.805 1593.79 240.997 1602.05 243.381C1610.31 245.764 1617.07 249.181 1622.31 253.63C1627.71 258.08 1631.69 263.403 1634.23 269.601C1636.93 275.798 1638.28 282.71 1638.28 290.338C1638.28 297.807 1636.85 304.957 1633.99 311.79C1631.13 318.623 1626.92 325.536 1621.36 332.528C1615.95 339.52 1609.28 346.75 1601.34 354.219C1593.55 361.528 1584.73 369.474 1574.88 378.055H1641.86V409.519H1520.29V377.817ZM1728.24 377.34H1653.87V341.586L1718.23 242.666H1768.76V346.353H1792.12V377.34H1768.76V409.519H1728.24V377.34ZM1728.24 346.353V285.094H1727.76L1687.95 346.353H1728.24Z" fill="white"></path><path d="M1234.07 377.817L1231.72 374.882L1230.31 376.011V377.817H1234.07ZM1288.42 328.714L1285.65 326.165L1288.42 328.714ZM1301.53 278.42L1298.92 281.135L1298.98 281.188L1299.04 281.239L1301.53 278.42ZM1259.58 276.036L1258.58 272.407L1258.57 272.409L1258.56 272.412L1259.58 276.036ZM1238.13 284.856H1234.36V291.361L1240 288.118L1238.13 284.856ZM1238.13 249.578L1236.83 246.045L1234.36 246.951V249.578H1238.13ZM1261.48 242.666L1262.31 246.338L1262.34 246.33L1262.38 246.321L1261.48 242.666ZM1315.83 243.381L1314.79 246.997L1314.79 246.997L1315.83 243.381ZM1336.09 253.63L1333.66 256.5L1333.68 256.518L1333.7 256.536L1336.09 253.63ZM1348.01 269.601L1344.53 271.029L1344.54 271.067L1344.56 271.104L1348.01 269.601ZM1347.77 311.79L1351.24 313.244L1351.24 313.244L1347.77 311.79ZM1335.14 332.528L1332.19 330.185L1332.18 330.206L1332.16 330.227L1335.14 332.528ZM1315.12 354.219L1317.69 356.963L1317.69 356.961L1315.12 354.219ZM1288.66 378.055L1286.19 375.217L1278.61 381.818H1288.66V378.055ZM1355.64 378.055H1359.4V374.291H1355.64V378.055ZM1355.64 409.519V413.282H1359.4V409.519H1355.64ZM1234.07 409.519H1230.31V413.282H1234.07V409.519ZM1236.43 380.751C1259.86 361.941 1278.14 345.441 1291.19 331.263L1285.65 326.165C1272.96 339.955 1255 356.19 1231.72 374.882L1236.43 380.751ZM1291.19 331.263C1304.19 317.134 1311.49 304.224 1311.49 292.722H1303.96C1303.96 301.242 1298.39 312.327 1285.65 326.165L1291.19 331.263ZM1311.49 292.722C1311.49 285.844 1309.02 280.022 1304.02 275.601L1299.04 281.239C1302.3 284.128 1303.96 287.84 1303.96 292.722H1311.49ZM1304.14 275.705C1299.23 270.995 1292.35 268.936 1284.13 268.936V276.463C1291.16 276.463 1295.88 278.217 1298.92 281.135L1304.14 275.705ZM1284.13 268.936C1275.52 268.936 1267 270.095 1258.58 272.407L1260.57 279.666C1268.36 277.528 1276.21 276.463 1284.13 276.463V268.936ZM1258.56 272.412C1250.35 274.711 1242.91 277.764 1236.25 281.593L1240 288.118C1246.06 284.637 1252.91 281.811 1260.59 279.66L1258.56 272.412ZM1241.89 284.856V249.578H1234.36V284.856H1241.89ZM1239.42 253.111C1247.06 250.305 1254.69 248.048 1262.31 246.338L1260.66 238.993C1252.71 240.779 1244.76 243.13 1236.83 246.045L1239.42 253.111ZM1262.38 246.321C1269.84 244.493 1277.88 243.569 1286.51 243.569V236.042C1277.34 236.042 1268.7 237.024 1260.59 239.01L1262.38 246.321ZM1286.51 243.569C1297.55 243.569 1306.95 244.736 1314.79 246.997L1316.87 239.765C1308.19 237.258 1298.04 236.042 1286.51 236.042V243.569ZM1314.79 246.997C1322.66 249.269 1328.91 252.47 1333.66 256.5L1338.53 250.761C1332.79 245.892 1325.52 242.26 1316.87 239.765L1314.79 246.997ZM1333.7 256.536C1338.64 260.608 1342.23 265.432 1344.53 271.029L1351.49 268.172C1348.7 261.374 1344.34 255.551 1338.48 250.725L1333.7 256.536ZM1344.56 271.104C1347.03 276.77 1348.3 283.162 1348.3 290.338H1355.83C1355.83 282.259 1354.39 274.826 1351.46 268.097L1344.56 271.104ZM1348.3 290.338C1348.3 297.312 1346.97 303.968 1344.3 310.337L1351.24 313.244C1354.3 305.947 1355.83 298.301 1355.83 290.338H1348.3ZM1344.3 310.337C1341.6 316.793 1337.58 323.41 1332.19 330.185L1338.08 334.871C1343.82 327.662 1348.22 320.454 1351.24 313.244L1344.3 310.337ZM1332.16 330.227C1326.9 337.03 1320.37 344.114 1312.54 351.476L1317.69 356.961C1325.75 349.386 1332.57 342.01 1338.12 334.829L1332.16 330.227ZM1312.54 351.475C1304.79 358.746 1296.01 366.66 1286.19 375.217L1291.13 380.893C1301.01 372.288 1309.86 364.311 1317.69 356.963L1312.54 351.475ZM1288.66 381.818H1355.64V374.291H1288.66V381.818ZM1351.87 378.055V409.519H1359.4V378.055H1351.87ZM1355.64 405.755H1234.07V413.282H1355.64V405.755ZM1237.84 409.519V377.817H1230.31V409.519H1237.84ZM1390.05 393.072L1387.1 395.406L1387.12 395.427L1387.14 395.447L1390.05 393.072ZM1377.66 366.375L1374.01 367.276L1374.01 367.3L1374.02 367.325L1377.66 366.375ZM1377.66 285.809L1374.02 284.859L1374.01 284.884L1374.01 284.909L1377.66 285.809ZM1390.05 259.113L1387.14 256.737L1387.12 256.757L1387.1 256.778L1390.05 259.113ZM1465.61 244.334L1464.28 247.852L1464.28 247.852L1465.61 244.334ZM1485.64 259.113L1482.68 261.447L1482.7 261.468L1482.72 261.488L1485.64 259.113ZM1498.03 285.809L1494.38 286.709L1494.38 286.734L1494.39 286.759L1498.03 285.809ZM1498.03 366.375L1494.39 365.425L1494.38 365.45L1494.38 365.475L1498.03 366.375ZM1485.64 393.072L1482.72 390.696L1482.7 390.716L1482.68 390.737L1485.64 393.072ZM1465.61 407.85L1464.28 404.332L1464.28 404.332L1465.61 407.85ZM1447.5 379.247L1445.89 375.845L1445.85 375.863L1445.82 375.88L1447.5 379.247ZM1455.13 371.142L1451.81 369.358L1451.8 369.382L1451.79 369.406L1455.13 371.142ZM1460.13 354.219L1463.85 354.797L1463.85 354.785L1460.13 354.219ZM1460.13 298.204L1456.41 298.782L1456.41 298.782L1460.13 298.204ZM1455.13 281.519L1451.76 283.202L1451.8 283.281L1451.84 283.357L1455.13 281.519ZM1447.5 273.176L1445.67 276.466L1445.78 276.525L1445.89 276.577L1447.5 273.176ZM1428.19 273.176L1429.88 276.542L1429.95 276.506L1430.02 276.466L1428.19 273.176ZM1420.56 281.519L1417.25 279.734L1417.24 279.758L1417.23 279.782L1420.56 281.519ZM1415.8 298.204L1419.52 298.782L1419.52 298.782L1415.8 298.204ZM1415.8 354.219L1412.08 354.785L1412.08 354.797L1415.8 354.219ZM1420.56 371.142L1417.2 372.826L1417.24 372.904L1417.28 372.981L1420.56 371.142ZM1428.19 379.247L1426.51 382.613L1426.51 382.613L1428.19 379.247ZM1437.96 408.615C1427.83 408.615 1419.08 407.156 1411.65 404.332L1408.98 411.368C1417.44 414.583 1427.12 416.142 1437.96 416.142V408.615ZM1411.65 404.332C1404.35 401.557 1398.13 397.035 1392.97 390.696L1387.14 395.447C1393.1 402.774 1400.39 408.105 1408.98 411.368L1411.65 404.332ZM1393.01 390.737C1388.01 384.416 1384.07 376.031 1381.3 365.425L1374.02 367.325C1376.97 378.649 1381.29 388.061 1387.1 395.406L1393.01 390.737ZM1381.31 365.475C1378.71 354.897 1377.37 341.792 1377.37 326.092H1369.84C1369.84 342.174 1371.21 355.924 1374.01 367.276L1381.31 365.475ZM1377.37 326.092C1377.37 310.392 1378.71 297.287 1381.31 286.709L1374.01 284.909C1371.21 296.26 1369.84 310.01 1369.84 326.092H1377.37ZM1381.3 286.759C1384.07 276.154 1388.01 267.768 1393.01 261.447L1387.1 256.778C1381.29 264.123 1376.97 273.535 1374.02 284.859L1381.3 286.759ZM1392.97 261.488C1398.13 255.149 1404.35 250.628 1411.65 247.852L1408.98 240.816C1400.39 244.079 1393.1 249.41 1387.14 256.737L1392.97 261.488ZM1411.65 247.852C1419.08 245.028 1427.83 243.569 1437.96 243.569V236.042C1427.12 236.042 1417.44 237.602 1408.98 240.816L1411.65 247.852ZM1437.96 243.569C1448.1 243.569 1456.85 245.028 1464.28 247.852L1466.95 240.816C1458.49 237.602 1448.81 236.042 1437.96 236.042V243.569ZM1464.28 247.852C1471.57 250.624 1477.69 255.133 1482.68 261.447L1488.59 256.778C1482.78 249.426 1475.55 244.083 1466.95 240.816L1464.28 247.852ZM1482.72 261.488C1487.84 267.786 1491.77 276.138 1494.38 286.709L1501.69 284.909C1498.89 273.551 1494.55 264.105 1488.56 256.737L1482.72 261.488ZM1494.39 286.759C1497.14 297.317 1498.56 310.404 1498.56 326.092H1506.09C1506.09 309.999 1504.64 296.23 1501.67 284.859L1494.39 286.759ZM1498.56 326.092C1498.56 341.78 1497.14 354.867 1494.39 365.425L1501.67 367.325C1504.64 355.954 1506.09 342.186 1506.09 326.092H1498.56ZM1494.38 365.475C1491.77 376.046 1487.84 384.398 1482.72 390.696L1488.56 395.447C1494.55 388.079 1498.89 378.633 1501.69 367.276L1494.38 365.475ZM1482.68 390.737C1477.69 397.051 1471.57 401.56 1464.28 404.332L1466.95 411.368C1475.55 408.101 1482.78 402.758 1488.59 395.406L1482.68 390.737ZM1464.28 404.332C1456.85 407.156 1448.1 408.615 1437.96 408.615V416.142C1448.81 416.142 1458.49 414.583 1466.95 411.368L1464.28 404.332ZM1437.96 385.156C1441.99 385.156 1445.75 384.328 1449.18 382.613L1445.82 375.88C1443.53 377.026 1440.93 377.628 1437.96 377.628V385.156ZM1449.11 382.648C1453.09 380.764 1456.15 377.334 1458.47 372.879L1451.79 369.406C1449.97 372.896 1447.95 374.869 1445.89 375.845L1449.11 382.648ZM1458.44 372.927C1460.95 368.273 1462.71 362.167 1463.85 354.797L1456.41 353.64C1455.34 360.573 1453.76 365.749 1451.81 369.358L1458.44 372.927ZM1463.85 354.785C1465.01 347.216 1465.56 337.632 1465.56 326.092H1458.04C1458.04 337.434 1457.48 346.602 1456.41 353.653L1463.85 354.785ZM1465.56 326.092C1465.56 314.555 1465.01 305.044 1463.85 297.625L1456.41 298.782C1457.48 305.665 1458.04 314.747 1458.04 326.092H1465.56ZM1463.85 297.625C1462.71 290.262 1460.94 284.205 1458.41 279.68L1451.84 283.357C1453.76 286.778 1455.33 291.844 1456.41 298.782L1463.85 297.625ZM1458.49 279.835C1456.19 275.235 1453.13 271.681 1449.11 269.775L1445.89 276.577C1447.9 277.531 1449.93 279.539 1451.76 283.202L1458.49 279.835ZM1449.33 269.886C1445.87 267.965 1442.06 267.029 1437.96 267.029V274.556C1440.87 274.556 1443.41 275.209 1445.67 276.466L1449.33 269.886ZM1437.96 267.029C1433.75 267.029 1429.85 267.951 1426.36 269.886L1430.02 276.466C1432.26 275.222 1434.87 274.556 1437.96 274.556V267.029ZM1426.51 269.81C1422.7 271.714 1419.68 275.224 1417.25 279.734L1423.88 283.303C1425.9 279.55 1427.96 277.498 1429.88 276.542L1426.51 269.81ZM1417.23 279.782C1414.89 284.271 1413.22 290.287 1412.08 297.625L1419.52 298.782C1420.6 291.819 1422.11 286.711 1423.9 283.255L1417.23 279.782ZM1412.08 297.625C1410.92 305.044 1410.37 314.555 1410.37 326.092H1417.89C1417.89 314.747 1418.45 305.665 1419.52 298.782L1412.08 297.625ZM1410.37 326.092C1410.37 337.632 1410.92 347.216 1412.08 354.785L1419.52 353.653C1418.45 346.602 1417.89 337.434 1417.89 326.092H1410.37ZM1412.08 354.797C1413.22 362.141 1414.89 368.207 1417.2 372.826L1423.93 369.459C1422.11 365.814 1420.6 360.599 1419.52 353.64L1412.08 354.797ZM1417.28 372.981C1419.72 377.345 1422.74 380.73 1426.51 382.613L1429.88 375.88C1427.92 374.903 1425.85 372.886 1423.85 369.303L1417.28 372.981ZM1426.51 382.613C1429.96 384.339 1433.81 385.156 1437.96 385.156V377.628C1434.81 377.628 1432.14 377.014 1429.88 375.88L1426.51 382.613ZM1520.29 377.817L1517.94 374.882L1516.53 376.011V377.817H1520.29ZM1574.64 328.714L1571.87 326.165L1574.64 328.714ZM1587.75 278.42L1585.14 281.135L1585.2 281.188L1585.26 281.239L1587.75 278.42ZM1545.8 276.036L1544.8 272.407L1544.79 272.409L1544.78 272.412L1545.8 276.036ZM1524.34 284.856H1520.58V291.361L1526.22 288.118L1524.34 284.856ZM1524.34 249.578L1523.05 246.045L1520.58 246.951V249.578H1524.34ZM1547.7 242.666L1548.53 246.338L1548.56 246.33L1548.6 246.321L1547.7 242.666ZM1602.05 243.381L1601.01 246.997L1601.01 246.997L1602.05 243.381ZM1622.31 253.63L1619.88 256.5L1619.9 256.518L1619.92 256.536L1622.31 253.63ZM1634.23 269.601L1630.75 271.029L1630.76 271.067L1630.78 271.104L1634.23 269.601ZM1633.99 311.79L1637.46 313.244L1637.46 313.244L1633.99 311.79ZM1621.36 332.528L1618.41 330.185L1618.4 330.206L1618.38 330.227L1621.36 332.528ZM1601.34 354.219L1603.91 356.963L1603.91 356.961L1601.34 354.219ZM1574.88 378.055L1572.41 375.217L1564.83 381.818H1574.88V378.055ZM1641.86 378.055H1645.62V374.291H1641.86V378.055ZM1641.86 409.519V413.282H1645.62V409.519H1641.86ZM1520.29 409.519H1516.53V413.282H1520.29V409.519ZM1522.65 380.751C1546.08 361.941 1564.36 345.441 1577.41 331.263L1571.87 326.165C1559.18 339.955 1541.22 356.19 1517.94 374.882L1522.65 380.751ZM1577.41 331.263C1590.41 317.134 1597.71 304.224 1597.71 292.722H1590.18C1590.18 301.242 1584.61 312.327 1571.87 326.165L1577.41 331.263ZM1597.71 292.722C1597.71 285.844 1595.24 280.022 1590.24 275.601L1585.26 281.239C1588.52 284.128 1590.18 287.84 1590.18 292.722H1597.71ZM1590.36 275.705C1585.45 270.995 1578.57 268.936 1570.35 268.936V276.463C1577.38 276.463 1582.1 278.217 1585.14 281.135L1590.36 275.705ZM1570.35 268.936C1561.74 268.936 1553.22 270.095 1544.8 272.407L1546.79 279.666C1554.58 277.528 1562.43 276.463 1570.35 276.463V268.936ZM1544.78 272.412C1536.57 274.711 1529.13 277.764 1522.47 281.593L1526.22 288.118C1532.27 284.637 1539.13 281.811 1546.81 279.66L1544.78 272.412ZM1528.11 284.856V249.578H1520.58V284.856H1528.11ZM1525.64 253.111C1533.28 250.305 1540.91 248.048 1548.53 246.338L1546.88 238.993C1538.93 240.779 1530.98 243.13 1523.05 246.045L1525.64 253.111ZM1548.6 246.321C1556.06 244.493 1564.1 243.569 1572.73 243.569V236.042C1563.56 236.042 1554.92 237.024 1546.81 239.01L1548.6 246.321ZM1572.73 243.569C1583.76 243.569 1593.17 244.736 1601.01 246.997L1603.09 239.765C1594.4 237.258 1584.26 236.042 1572.73 236.042V243.569ZM1601.01 246.997C1608.88 249.269 1615.13 252.47 1619.88 256.5L1624.75 250.761C1619.01 245.892 1611.74 242.26 1603.09 239.765L1601.01 246.997ZM1619.92 256.536C1624.86 260.608 1628.45 265.432 1630.75 271.029L1637.71 268.172C1634.92 261.374 1630.56 255.551 1624.7 250.725L1619.92 256.536ZM1630.78 271.104C1633.25 276.77 1634.52 283.162 1634.52 290.338H1642.05C1642.05 282.259 1640.61 274.826 1637.68 268.097L1630.78 271.104ZM1634.52 290.338C1634.52 297.312 1633.19 303.968 1630.52 310.337L1637.46 313.244C1640.52 305.947 1642.05 298.301 1642.05 290.338H1634.52ZM1630.52 310.337C1627.82 316.793 1623.8 323.41 1618.41 330.185L1624.3 334.871C1630.04 327.662 1634.44 320.454 1637.46 313.244L1630.52 310.337ZM1618.38 330.227C1613.12 337.03 1606.59 344.114 1598.76 351.476L1603.91 356.961C1611.97 349.386 1618.79 342.01 1624.34 334.829L1618.38 330.227ZM1598.76 351.475C1591.01 358.746 1582.23 366.66 1572.41 375.217L1577.35 380.893C1587.23 372.288 1596.08 364.311 1603.91 356.963L1598.76 351.475ZM1574.88 381.818H1641.86V374.291H1574.88V381.818ZM1638.09 378.055V409.519H1645.62V378.055H1638.09ZM1641.86 405.755H1520.29V413.282H1641.86V405.755ZM1524.06 409.519V377.817H1516.53V409.519H1524.06ZM1728.24 377.34H1732V373.576H1728.24V377.34ZM1653.87 377.34H1650.1V381.103H1653.87V377.34ZM1653.87 341.586L1650.71 339.533L1650.1 340.469V341.586H1653.87ZM1718.23 242.666V238.902H1716.18L1715.07 240.613L1718.23 242.666ZM1768.76 242.666H1772.52V238.902H1768.76V242.666ZM1768.76 346.353H1764.99V350.116H1768.76V346.353ZM1792.12 346.353H1795.88V342.589H1792.12V346.353ZM1792.12 377.34V381.103H1795.88V377.34H1792.12ZM1768.76 377.34V373.576H1764.99V377.34H1768.76ZM1768.76 409.519V413.282H1772.52V409.519H1768.76ZM1728.24 409.519H1724.47V413.282H1728.24V409.519ZM1728.24 346.353V350.116H1732V346.353H1728.24ZM1728.24 285.094H1732V281.33H1728.24V285.094ZM1727.76 285.094V281.33H1725.72L1724.6 283.043L1727.76 285.094ZM1687.95 346.353L1684.8 344.302L1681.02 350.116H1687.95V346.353ZM1728.24 373.576H1653.87V381.103H1728.24V373.576ZM1657.63 377.34V341.586H1650.1V377.34H1657.63ZM1657.02 343.638L1721.38 244.718L1715.07 240.613L1650.71 339.533L1657.02 343.638ZM1718.23 246.429H1768.76V238.902H1718.23V246.429ZM1764.99 242.666V346.353H1772.52V242.666H1764.99ZM1768.76 350.116H1792.12V342.589H1768.76V350.116ZM1788.35 346.353V377.34H1795.88V346.353H1788.35ZM1792.12 373.576H1768.76V381.103H1792.12V373.576ZM1764.99 377.34V409.519H1772.52V377.34H1764.99ZM1768.76 405.755H1728.24V413.282H1768.76V405.755ZM1732 409.519V377.34H1724.47V409.519H1732ZM1732 346.353V285.094H1724.47V346.353H1732ZM1728.24 281.33H1727.76V288.858H1728.24V281.33ZM1724.6 283.043L1684.8 344.302L1691.11 348.404L1730.92 287.145L1724.6 283.043ZM1687.95 350.116H1728.24V342.589H1687.95V350.116Z" fill="white" mask="url(#path-3-inside-2_21_10939)"></path><path d="M0.616387 27.1471H47.8119L84.7579 158.246H85.2346L122.419 27.1471H167.946L111.216 194H56.3929L0.616387 27.1471ZM209.574 60.041H168.575V27.1471H294.907V60.041H253.909V194H209.574V60.041ZM357.754 93.1732H370.149C373.486 93.1732 377.3 92.9348 381.59 92.4581C385.881 91.9814 389.615 90.6307 392.793 88.406C395.336 86.658 397.084 84.7511 398.037 82.6853C399.15 80.6195 399.706 78.2359 399.706 75.5345C399.706 73.3098 399.308 71.244 398.514 69.3371C397.878 67.2713 396.686 65.4438 394.939 63.8548C393.191 62.2657 390.569 60.9944 387.073 60.041C383.736 59.0875 379.127 58.6108 373.248 58.6108H357.754V93.1732ZM357.754 162.536H372.771C376.426 162.536 380.557 162.219 385.166 161.583C389.774 160.947 393.588 159.597 396.607 157.531C399.785 155.306 401.772 152.922 402.566 150.38C403.52 147.837 403.996 145.454 403.996 143.229C403.996 139.415 403.202 136.078 401.613 133.218C400.024 130.358 397.322 128.053 393.508 126.305C392.237 125.829 390.012 125.193 386.834 124.399C383.656 123.604 378.492 123.207 371.341 123.207H357.754V162.536ZM313.419 27.1471H389.933C391.999 27.1471 394.7 27.306 398.037 27.6239C401.533 27.7828 405.188 28.3389 409.002 29.2924C412.975 30.0869 417.027 31.3582 421.158 33.1062C425.29 34.8541 429.024 37.3172 432.361 40.4954C440.148 47.8051 444.041 57.6574 444.041 70.0521C444.041 75.9317 443.246 80.7784 441.657 84.5922C440.227 88.2471 438.718 91.1868 437.128 93.4116C434.427 97.0664 431.011 100.165 426.879 102.708C422.906 105.25 418.854 107.157 414.722 108.428V108.905C418.06 109.382 421.714 110.335 425.687 111.765C429.66 113.196 433.315 115.341 436.652 118.201C439.989 121.061 442.77 124.796 444.994 129.404C447.219 134.012 448.331 139.733 448.331 146.566C448.331 151.651 447.696 156.18 446.425 160.153C445.312 163.966 443.882 167.383 442.134 170.402C440.386 173.263 438.479 175.726 436.413 177.791C434.348 179.857 432.361 181.526 430.454 182.797C426.958 185.181 423.145 187.167 419.013 188.756C414.881 190.186 410.67 191.299 406.38 192.093C402.248 192.888 398.117 193.444 393.985 193.762C390.012 193.921 386.516 194 383.497 194H313.419V27.1471ZM60.2067 242.147H115.03L174.62 409H126.948L115.745 373.723H56.8696L45.905 409H0.616387L60.2067 242.147ZM105.734 341.544L86.6648 277.901H86.1881L66.8808 341.544H105.734ZM187.721 242.147H247.311C270.511 242.147 287.594 247.153 298.559 257.164C309.682 267.016 315.244 280.285 315.244 296.97C315.244 305.869 313.973 313.735 311.43 320.568C309.047 327.401 305.074 333.122 299.512 337.73C294.109 342.338 287.117 345.834 278.536 348.218C269.955 350.601 259.547 351.793 247.311 351.793H232.056V409H187.721V242.147ZM247.311 320.33C254.462 320.33 260.182 318.184 264.473 313.894C268.763 309.603 270.909 303.962 270.909 296.97C270.909 289.978 268.763 284.337 264.473 280.047C260.182 275.756 254.462 273.611 247.311 273.611H232.056V320.33H247.311ZM335.765 242.147H380.101V409H335.765V242.147Z" fill="#00AEFF"></path><path d="M1163.4 324.067V323.701C1163.4 323.701 1106.92 335.322 1059.89 241.529L1056.13 244.343L1103.36 324.377H538.685V328.044H1103.41L1056.17 408.077L1059.94 410.891C1106.96 317.098 1163.44 328.719 1163.44 328.719V324.067H1163.4Z" fill="white"></path></svg> 