<?xml version="1.0" encoding="UTF-8"?> <svg xmlns="http://www.w3.org/2000/svg" width="307" height="67" viewBox="0 0 307 67" fill="none"><g clip-path="url(#clip0_0_4811)"><path d="M47.5919 26.7935H3.20125L0 35.7319H44.3907L47.5919 26.7935ZM52.3831 13.3913H8.00313L4.80188 22.3189H49.1819L52.3831 13.3913ZM53.9838 8.92756H9.60375L12.805 0H57.1957L53.9944 8.92756H53.9838Z" fill="#00AEFF"></path><path d="M93.5192 38.43V38.6142C95.5254 39.3509 97.4461 40.6511 98.4492 41.4853C101.554 44.0856 102.931 47.5093 102.931 51.973C102.931 59.2971 99.1001 64.5843 92.7936 66.2528C90.8729 66.8053 88.8667 66.9895 85.1213 66.9895H66.0312V13.3917H82.9231C86.3911 13.3917 88.7707 13.5867 90.8729 14.1393C96.9873 15.8078 101.01 20.0765 101.01 26.8372C101.01 30.4559 99.7297 33.522 97.6275 35.5589C96.7205 36.4798 95.44 37.5958 93.5192 38.43ZM76.6273 44.0856V58.1811H83.9261C86.1137 58.1811 88.1305 57.997 89.5924 56.5993C91.0543 55.2017 91.6945 53.4465 91.6945 51.128C91.6945 49.3619 91.2357 47.7043 90.318 46.4908C88.7707 44.5406 86.85 44.0856 83.5633 44.0856H76.6273ZM76.5313 34.8113H82.4642C84.289 34.8113 85.2066 34.8113 86.1137 34.5296C88.5786 33.7821 90.1366 31.561 90.1366 28.5057C90.1366 24.887 88.4933 23.3052 86.1137 22.5684C85.1106 22.2867 84.1075 22.2001 82.0908 22.2001H76.5206V34.8113H76.5313ZM118.82 66.9895V22.3843H103.56V13.3809H145.945L142.925 22.3843H129.405V66.9895H118.809H118.82ZM149.232 66.9895V13.3917H183.581L180.572 22.3951H159.742V34.2696H168.236C175.087 34.2696 178.651 35.9381 181.116 38.0725C183.037 39.741 186.324 43.4464 186.324 50.7704C186.324 58.0945 182.941 61.9949 180.113 64.0317C176.826 66.3503 173.358 67.0004 166.316 67.0004H149.232V66.9895ZM159.742 57.997H167.692C170.701 57.997 172.537 57.2494 173.807 55.5809C174.447 54.7466 175.365 53.2732 175.365 50.4779C175.365 47.6826 174.458 45.7541 172.622 44.3564C171.534 43.5222 170.061 43.0563 167.607 43.0563H159.753V57.9861L159.742 57.997Z" fill="white"></path><path d="M238.077 47.0866L228.804 21.4307H228.655L219.232 47.0866H238.088H238.077ZM224.803 13.3916H232.795L253.688 66.9894H245.387L240.339 53.2081H216.959L211.901 66.9894H203.909L224.803 13.3916Z" fill="white"></path><path d="M274.23 40.3476C281.699 40.3476 285.093 36.9023 285.093 30.2391C285.093 23.5759 281.699 20.1306 274.23 20.1306H266.686V40.3476H274.23ZM259.152 13.3916H274.23C287.056 13.3916 293.085 19.513 293.085 30.2391C293.085 40.9652 287.056 47.0866 274.23 47.0866H266.686V67.0003H259.141V13.3916H259.152Z" fill="white"></path><path d="M307 13.3916H299.456V66.9894H307V13.3916Z" fill="white"></path></g><defs><clipPath id="clip0_0_4811"><rect width="307" height="67" fill="white"></rect></clipPath></defs></svg> 