<?xml version="1.0" encoding="UTF-8"?> <svg xmlns="http://www.w3.org/2000/svg" width="243" height="97" viewBox="0 0 243 97" fill="none"><path fill-rule="evenodd" clip-rule="evenodd" d="M58.5025 75.4273C58.4326 78.3239 57.8152 81.1811 56.6828 83.8481C55.6626 86.3096 54.1611 88.5425 52.2665 90.4161C50.3803 92.265 48.1332 93.7051 45.6654 94.6464C40.162 96.6909 34.0987 96.6389 28.6311 94.5003C26.0717 93.4428 23.752 91.8797 21.8108 89.9048C19.886 87.8962 18.3742 85.5293 17.3613 82.9383C16.2874 80.1347 15.749 77.1544 15.7741 74.1522C15.7402 71.1167 16.3044 68.1041 17.4344 65.2865C18.451 62.6778 19.9745 60.2965 21.9171 58.2802C23.8587 56.3026 26.1811 54.7393 28.744 53.6846C31.4604 52.5641 34.3726 51.9953 37.311 52.0111C39.762 52.0157 42.1981 52.3919 44.5364 53.1268C46.7193 53.8247 48.7756 54.8697 50.6262 56.2215C52.424 57.5365 53.9791 59.1545 55.2218 61.003C56.471 62.8418 57.3382 64.9126 57.772 67.0928H55.7332C55.2893 65.1797 54.4699 63.3739 53.3225 61.78C52.1771 60.173 50.7721 58.7681 49.1652 57.6227C47.4795 56.4324 45.6264 55.4991 43.6664 54.8534C41.6053 54.19 39.4494 53.8692 37.2844 53.9038C34.6192 53.8694 31.9751 54.3801 29.5144 55.4046C27.1879 56.3518 25.0877 57.7798 23.3515 59.5951C21.594 61.4564 20.2078 63.6361 19.2673 66.017C17.3116 71.2505 17.3116 77.0142 19.2673 82.2476C20.1796 84.6099 21.5546 86.7662 23.3117 88.5898C25.058 90.3866 27.1559 91.8041 29.4745 92.7537C31.9623 93.7726 34.6295 94.2808 37.3176 94.248C39.7809 94.2688 42.228 93.8482 44.543 93.0061C46.6944 92.2426 48.6754 91.0648 50.3739 89.5395C52.0642 88.0295 53.4505 86.2105 54.4581 84.1802C55.5226 82.0211 56.18 79.6842 56.3973 77.2868H35.3054V75.3875L58.5025 75.4273Z" fill="white"></path><path fill-rule="evenodd" clip-rule="evenodd" d="M97.7514 78.9308V79.8074H66.6382C66.6956 81.8265 67.128 83.8172 67.9133 85.6781C68.6325 87.4159 69.6862 88.9954 71.0147 90.3268C72.3396 91.6532 73.9215 92.695 75.6634 93.3883C77.8538 94.2553 80.2137 94.6091 82.5621 94.4226C84.9104 94.2361 87.1849 93.5143 89.2111 92.3125C91.5072 90.8218 93.3605 88.7415 94.577 86.2891H96.6889C95.3493 89.3446 93.1768 91.9613 90.4197 93.8399C87.7234 95.5668 84.576 96.4564 81.3747 96.3967C78.0423 96.4331 74.7778 95.4545 72.0151 93.5909C69.2523 91.7273 67.1222 89.067 65.9077 85.9637C65.0685 83.7737 64.6364 81.4488 64.6326 79.1035C64.5944 76.7674 65.0281 74.4476 65.9077 72.2832C66.751 70.2351 67.9913 68.3743 69.5572 66.8079C71.1231 65.2415 72.9835 64.0005 75.0313 63.1566C77.0791 62.3127 79.2736 61.8825 81.4885 61.8907C83.7033 61.899 85.8946 62.3457 87.936 63.2049C89.8924 64.0511 91.6592 65.2811 93.1318 66.8222C94.6045 68.3633 95.753 70.1841 96.5096 72.1769C97.3733 74.3219 97.7957 76.6189 97.7514 78.9308ZM81.3747 63.7959C79.4528 63.764 77.5436 64.1115 75.7564 64.8186C74.0505 65.4803 72.4979 66.4837 71.194 67.7673C68.4605 70.4419 66.8441 74.0544 66.6714 77.8749H95.8189C95.7189 75.8945 95.2481 73.9504 94.4309 72.1437C93.6694 70.4883 92.6192 68.9816 91.3296 67.6942C90.0546 66.4466 88.5413 65.4686 86.8801 64.8186C85.132 64.1124 83.2598 63.7646 81.3747 63.7959Z" fill="white"></path><path fill-rule="evenodd" clip-rule="evenodd" d="M118.711 62.2265C120.571 62.1956 122.419 62.5412 124.143 63.2426C125.703 63.908 127.099 64.9051 128.234 66.1646C129.388 67.4768 130.278 68.9987 130.857 70.6473C131.49 72.5272 131.798 74.5014 131.767 76.4848V96.1821H129.775V76.8501C129.775 72.8654 128.752 69.7375 126.746 67.4729C124.741 65.2083 121.932 64.086 118.319 64.086C116.651 64.0948 115.002 64.4404 113.471 65.1021C111.961 65.7696 110.587 66.7107 109.42 67.878C108.276 69.0567 107.35 70.4281 106.684 71.9291C105.985 73.4484 105.636 75.1049 105.661 76.777V96.1821H103.669V62.8773H105.309L105.601 70.6141C106.736 68.1458 108.542 66.0468 110.814 64.5575C113.161 63.0235 115.907 62.2129 118.711 62.2265Z" fill="white"></path><path fill-rule="evenodd" clip-rule="evenodd" d="M170.915 78.9315V79.8081H139.841C139.899 81.8271 140.331 83.8179 141.116 85.6788C141.836 87.4166 142.889 88.9961 144.218 90.3275C145.542 91.6552 147.124 92.6972 148.867 93.389C150.678 94.1475 152.628 94.5207 154.591 94.4848C157.352 94.5146 160.064 93.7616 162.414 92.3132C164.709 90.8205 166.561 88.7407 167.78 86.2898H169.846C168.501 89.3444 166.327 91.9606 163.57 93.8406C161.494 95.1387 159.159 95.9677 156.73 96.2699C154.3 96.572 151.834 96.3399 149.503 95.5898C147.173 94.8397 145.034 93.5897 143.237 91.9271C141.439 90.2646 140.027 88.2296 139.098 85.9644C138.255 83.7752 137.823 81.4498 137.823 79.1042C137.784 76.7681 138.218 74.4483 139.098 72.2838C140.316 69.1854 142.449 66.5317 145.214 64.6761C147.978 62.8206 151.242 61.8513 154.571 61.8973C157.846 61.8484 161.057 62.8096 163.766 64.6503C166.475 66.4909 168.552 69.1215 169.713 72.1842C170.509 74.3446 170.916 76.6291 170.915 78.9315ZM154.571 63.7966C152.649 63.7646 150.74 64.1122 148.953 64.8193C147.248 65.4794 145.697 66.4831 144.397 67.768C141.661 70.4411 140.045 74.0545 139.875 77.8756H168.982C168.882 75.8952 168.411 73.9511 167.594 72.1444C166.833 70.4889 165.783 68.9823 164.493 67.6949C163.218 66.4473 161.705 65.4693 160.043 64.8193C158.308 64.1077 156.446 63.7596 154.571 63.7966Z" fill="white"></path><path fill-rule="evenodd" clip-rule="evenodd" d="M189.477 96.5068C185.758 96.5068 182.769 95.6302 180.544 93.9168C179.45 93.0628 178.554 91.9818 177.918 90.7482C177.281 89.5146 176.92 88.1577 176.859 86.771H178.758C178.841 87.9158 179.174 89.0284 179.734 90.0302C180.294 91.032 181.067 91.8986 181.999 92.5686C183.865 93.8968 186.382 94.6141 189.55 94.6141C192.717 94.6141 195.314 93.9168 197.213 92.5686C198.122 91.9648 198.86 91.1378 199.358 90.1669C199.856 89.196 200.096 88.1137 200.056 87.0234C200.121 85.7908 199.803 84.5682 199.146 83.5236C198.516 82.6057 197.66 81.8648 196.662 81.3719C195.551 80.8149 194.376 80.3977 193.162 80.13C191.834 79.8378 190.506 79.5854 189.178 79.3264C187.849 79.0674 186.335 78.8217 184.908 78.4897C183.598 78.234 182.334 77.7864 181.155 77.1615C180.081 76.6126 179.166 75.7961 178.499 74.7906C177.761 73.5973 177.404 72.2073 177.476 70.806C177.476 69.5512 177.777 68.3146 178.353 67.1999C178.937 66.0979 179.758 65.1386 180.757 64.3908C181.887 63.5813 183.144 62.9642 184.476 62.5645C186.057 62.1245 187.69 61.9011 189.33 61.9004C192.903 61.9004 195.752 62.7372 197.831 64.4173C198.853 65.2432 199.685 66.2802 200.27 67.4573C200.854 68.6344 201.178 69.924 201.218 71.2377H199.226C199.192 70.1667 198.918 69.117 198.423 68.1663C197.929 67.2157 197.227 66.3883 196.37 65.7455C194.657 64.4173 192.252 63.7532 189.224 63.7532C186.196 63.7532 183.911 64.3709 182.145 65.6459C181.309 66.1977 180.627 66.9526 180.162 67.84C179.697 68.7274 179.466 69.7183 179.488 70.7197C179.453 71.7907 179.745 72.847 180.325 73.748C180.908 74.5365 181.671 75.174 182.55 75.6075C183.573 76.1191 184.661 76.4878 185.784 76.7032C187.019 76.9556 188.301 77.2146 189.649 77.4337C190.997 77.6529 192.531 77.9783 194.026 78.3104C195.419 78.6118 196.762 79.1152 198.01 79.8046C199.183 80.5412 200.159 81.5536 200.851 82.7535C201.543 83.9535 201.931 85.3045 201.982 86.6888C202.032 88.0732 201.743 89.4488 201.14 90.6959C200.537 91.943 199.638 93.0237 198.522 93.8437C197.316 94.7071 195.967 95.3502 194.537 95.7431C192.902 96.2656 191.193 96.5235 189.477 96.5068Z" fill="white"></path><path fill-rule="evenodd" clip-rule="evenodd" d="M207.786 55.8399H210.669V52.3799H207.786V55.8399ZM208.225 96.4763H210.217V63.2114H208.225V96.4763Z" fill="white"></path><path fill-rule="evenodd" clip-rule="evenodd" d="M229.561 96.505C225.843 96.505 222.854 95.6284 220.629 93.915C219.529 93.067 218.628 91.9873 217.991 90.7524C217.354 89.5175 216.996 88.1577 216.944 86.7693H218.843C218.926 87.9101 219.257 89.0192 219.81 90.0201C220.364 91.0211 221.128 91.8899 222.05 92.5669C223.91 93.8951 226.427 94.6123 229.601 94.6123C232.776 94.6123 235.366 93.915 237.258 92.5669C238.167 91.963 238.906 91.1361 239.403 90.1652C239.901 89.1943 240.141 88.1119 240.101 87.0216C240.17 85.7887 239.852 84.5649 239.191 83.5218C238.563 82.6042 237.71 81.8633 236.714 81.3701C235.6 80.823 234.422 80.4191 233.207 80.1681C231.879 79.8759 230.551 79.6169 229.223 79.3645C227.895 79.1122 226.38 78.8532 224.992 78.5278C223.689 78.2506 222.428 77.8041 221.24 77.1996C220.161 76.6422 219.246 75.8137 218.584 74.7955C217.846 73.6022 217.489 72.2122 217.561 70.8109C217.561 69.5561 217.862 68.3195 218.438 67.2048C219.033 66.1102 219.852 65.1531 220.842 64.3957C221.971 63.5846 223.228 62.9673 224.561 62.5694C226.128 62.1294 227.748 61.9059 229.376 61.9053C232.955 61.9053 235.797 62.742 237.876 64.4222C238.898 65.2489 239.73 66.2859 240.316 67.4628C240.901 68.6396 241.227 69.9288 241.27 71.2426H239.277C239.243 70.1707 238.969 69.1202 238.475 68.1686C237.98 67.2169 237.279 66.3883 236.422 65.7438C234.708 64.4156 232.298 63.7515 229.269 63.7515C226.241 63.7515 223.956 64.3691 222.197 65.6442C221.361 66.1964 220.679 66.9514 220.214 67.8387C219.75 68.726 219.518 69.7166 219.54 70.7179C219.505 71.7889 219.797 72.8453 220.377 73.7462C220.966 74.5444 221.744 75.1834 222.642 75.6057C223.668 76.1183 224.761 76.4849 225.889 76.6948C227.124 76.9538 228.406 77.2062 229.754 77.4253C231.102 77.6445 232.636 77.9766 234.131 78.302C235.523 78.6076 236.865 79.1107 238.115 79.7962C239.275 80.4587 240.262 81.3846 240.997 82.4991C242.019 84.362 242.342 86.5287 241.907 88.6084C241.472 90.6882 240.309 92.5443 238.626 93.842C237.422 94.706 236.073 95.347 234.642 95.7347C232.997 96.2461 231.284 96.5058 229.561 96.505Z" fill="white"></path><path fill-rule="evenodd" clip-rule="evenodd" d="M15.7688 1.859C17.608 1.84227 19.4336 2.17583 21.1481 2.84187C22.747 3.48315 24.2079 4.42553 25.4515 5.61782C26.6937 6.7916 27.6658 8.22146 28.3005 9.80831C28.9991 11.4911 29.3449 13.2993 29.3165 15.1211C29.3259 16.9412 28.9808 18.7458 28.3005 20.4339C27.6414 22.0194 26.6729 23.4575 25.4515 24.6643C24.2079 25.8566 22.747 26.799 21.1481 27.4402C19.4212 28.1278 17.574 28.462 15.7157 28.4231H10.2103V38.5905H0.069458V1.859H15.7688ZM14.5469 19.5839C15.1387 19.6092 15.7294 19.5126 16.2823 19.3001C16.8352 19.0876 17.3386 18.7638 17.7612 18.3487C18.5636 17.4733 18.9967 16.3216 18.9698 15.1344C18.9957 13.9573 18.5622 12.8163 17.7612 11.9534C17.3509 11.5158 16.8519 11.1709 16.2976 10.9419C15.7432 10.7128 15.1464 10.6048 14.5469 10.6252H10.2103V19.5839H14.5469Z" fill="white"></path><path fill-rule="evenodd" clip-rule="evenodd" d="M48.8386 9.44354C50.3664 9.42519 51.8814 9.72367 53.2881 10.3202C54.5492 10.8864 55.6796 11.7071 56.6086 12.7308C57.556 13.8496 58.2858 15.1357 58.7603 16.5229C59.2711 18.1382 59.5288 19.8228 59.524 21.5169V38.591H49.7816V22.6127C49.7816 19.332 48.5464 17.6917 46.1025 17.6917C45.4444 17.6617 44.7879 17.7805 44.182 18.0392C43.576 18.2979 43.0362 18.6898 42.6027 19.1859C41.7261 20.1688 41.2745 21.59 41.321 23.4893V38.6242H31.5454V0H41.321V12.1464C42.3494 11.2823 43.5232 10.6077 44.7876 10.1541C46.0729 9.6333 47.4523 9.38456 48.8386 9.42361" fill="white"></path><path fill-rule="evenodd" clip-rule="evenodd" d="M94.3538 10.2129L82.4597 37.3481C81.6567 39.2731 80.6949 41.128 79.5841 42.8934C78.7474 44.2751 77.6857 45.5074 76.4429 46.5393C75.3244 47.4497 74.0351 48.1271 72.6509 48.5316C71.0744 48.9762 69.4406 49.1843 67.803 49.1492H64.4426V40.7417H67.099C67.8944 40.743 68.6882 40.6697 69.4699 40.5225C70.0635 40.402 70.6235 40.1527 71.1102 39.792C71.6159 39.43 72.0298 38.9547 72.3188 38.404C72.7187 37.6965 73.048 36.9514 73.3017 36.1793L61.6268 10.2129H72.2524L78.2294 25.8193L83.8477 10.2129H94.3538Z" fill="white"></path><path fill-rule="evenodd" clip-rule="evenodd" d="M108.977 39.5757C107.212 39.6058 105.453 39.3593 103.764 38.8452C102.337 38.4191 101.009 37.7124 99.8589 36.7666C98.806 35.8779 97.9605 34.7695 97.3818 33.5191C96.7705 32.2071 96.4575 30.776 96.4653 29.3286H105.876C105.849 29.7587 105.92 30.1892 106.085 30.5874C106.249 30.9857 106.502 31.341 106.825 31.6264C107.475 32.1479 108.29 32.4188 109.123 32.3901C109.806 32.3963 110.476 32.2074 111.056 31.8456C111.327 31.6681 111.548 31.4228 111.696 31.134C111.844 30.8452 111.914 30.5228 111.899 30.1986C111.888 29.7941 111.742 29.405 111.483 29.0941C111.224 28.7832 110.867 28.5687 110.471 28.4852C109.349 28.1221 108.204 27.8316 107.044 27.6152C105.949 27.4293 104.82 27.2101 103.578 26.9511C102.401 26.662 101.279 26.1819 100.257 25.53C99.2358 24.8757 98.3845 23.988 97.7736 22.94C97.0629 21.6472 96.7228 20.1833 96.7907 18.7096C96.771 17.3921 97.0613 16.0884 97.6381 14.9037C98.2149 13.719 99.062 12.6864 100.111 11.8893C101.244 11.0236 102.531 10.3813 103.903 9.9966C105.516 9.53621 107.187 9.31251 108.864 9.3325C110.528 9.31077 112.186 9.53454 113.785 9.9966C115.154 10.4017 116.433 11.0669 117.551 11.9557C118.578 12.7767 119.401 13.8246 119.955 15.0172C120.545 16.2468 120.858 17.5913 120.871 18.9553H111.713C111.745 18.5835 111.689 18.2094 111.549 17.8633C111.41 17.5171 111.19 17.2087 110.91 16.963C110.283 16.4903 109.509 16.255 108.725 16.2989C108.037 16.26 107.356 16.4542 106.792 16.8501C106.56 17.0304 106.375 17.2639 106.252 17.531C106.13 17.798 106.073 18.0907 106.088 18.3842C106.088 19.1878 106.566 19.7124 107.549 20.0245C108.686 20.369 109.844 20.6374 111.016 20.8281C112.145 21.0473 113.314 21.2996 114.516 21.5586C115.711 21.816 116.857 22.2645 117.909 22.8868C118.966 23.5043 119.845 24.3852 120.459 25.4436C121.175 26.761 121.518 28.2492 121.449 29.747C121.45 31.1231 121.15 32.4829 120.572 33.7316C119.996 34.9703 119.128 36.0506 118.042 36.8795C116.845 37.778 115.495 38.4529 114.057 38.8718C112.404 39.3215 110.697 39.5449 108.984 39.5359" fill="white"></path><path fill-rule="evenodd" clip-rule="evenodd" d="M146.401 30.1953V38.7688H139.693C136.519 38.7688 134.035 37.8922 132.249 36.1124C130.462 34.3326 129.592 31.8489 129.592 28.6346V17.9293H124.379V15.6448L137.103 2.07715H139.096V10.3917H146.241V17.8695H139.361V26.9146C139.326 27.3127 139.37 27.7139 139.49 28.095C139.611 28.476 139.806 28.8293 140.064 29.1345C140.323 29.4396 140.639 29.6905 140.995 29.8726C141.35 30.0546 141.739 30.1643 142.137 30.1953H146.401Z" fill="white"></path><path fill-rule="evenodd" clip-rule="evenodd" d="M179.447 24.2943C179.447 24.7327 179.447 25.1311 179.447 25.5694C179.447 26.0077 179.374 26.446 179.301 26.8976H158.182C158.401 28.3288 159.104 29.6416 160.175 30.6166C161.158 31.3264 162.32 31.75 163.529 31.8402C164.739 31.9305 165.95 31.684 167.028 31.128C167.897 30.6764 168.619 29.9849 169.107 29.1357H178.849C178.375 30.702 177.649 32.1803 176.698 33.5121C175.771 34.7971 174.651 35.9307 173.377 36.8724C172.058 37.7909 170.607 38.503 169.074 38.9843C165.402 40.0906 161.466 39.9387 157.89 38.5526C156.072 37.8326 154.416 36.7569 153.019 35.3884C151.622 34.02 150.512 32.3864 149.755 30.5834C148.959 28.6799 148.55 26.6366 148.553 24.5733C148.522 22.4955 148.919 20.4336 149.722 18.5167C150.451 16.7034 151.547 15.06 152.939 13.6889C154.332 12.3178 155.993 11.2484 157.817 10.5474C161.83 9.04706 166.251 9.05886 170.256 10.5806C172.085 11.3162 173.751 12.4063 175.157 13.7882C176.522 15.1275 177.602 16.7291 178.331 18.4967C179.057 20.3441 179.435 22.3096 179.447 24.2943ZM163.947 17.1088C162.637 17.0396 161.345 17.4434 160.308 18.2467C159.27 19.0501 158.556 20.1994 158.295 21.4852H169.844C168.894 18.5631 166.962 17.1088 163.973 17.1088H163.947Z" fill="white"></path><path fill-rule="evenodd" clip-rule="evenodd" d="M197.209 39.7205C195.065 39.7463 192.935 39.3631 190.934 38.5915C189.084 37.8768 187.397 36.7973 185.973 35.4171C184.555 34.066 183.447 32.4233 182.725 30.6024C181.959 28.6634 181.565 26.5975 181.563 24.5126C181.53 22.4245 181.926 20.3519 182.725 18.4227C183.447 16.623 184.555 15.0041 185.973 13.681C187.404 12.3278 189.09 11.2735 190.934 10.5797C192.947 9.81224 195.089 9.44019 197.243 9.48392C199.14 9.46136 201.028 9.75769 202.828 10.3605C206.164 11.4801 208.96 13.8093 210.664 16.8887C211.533 18.482 212.09 20.2266 212.304 22.0288H202.755C202.398 21.103 201.816 20.2805 201.062 19.6356C200.308 18.9907 199.406 18.5436 198.436 18.3348C197.466 18.1259 196.459 18.1618 195.506 18.4391C194.554 18.7165 193.685 19.2267 192.979 19.9236C191.848 21.1989 191.27 22.871 191.372 24.5723C191.342 25.4042 191.479 26.2337 191.773 27.0124C192.067 27.7911 192.513 28.5035 193.085 29.1082C194.125 30.2233 195.565 30.8804 197.089 30.9352C198.613 30.9899 200.096 30.438 201.214 29.4004C201.979 28.6756 202.534 27.7579 202.821 26.7439H212.451C212.194 28.5969 211.626 30.3931 210.77 32.0568C209.949 33.6163 208.836 35.003 207.49 36.141C206.138 37.2892 204.593 38.1886 202.927 38.7974C201.105 39.4579 199.181 39.7906 197.243 39.7803" fill="white"></path><path fill-rule="evenodd" clip-rule="evenodd" d="M231.822 9.58807C233.349 9.56972 234.864 9.8682 236.271 10.4647C237.544 11.027 238.686 11.848 239.625 12.8754C240.574 13.9874 241.294 15.2761 241.743 16.6674C242.283 18.2758 242.542 19.9652 242.507 21.6615V38.7687H232.731V22.7971C232.731 19.5098 231.489 17.8694 229.046 17.8694C228.387 17.8325 227.728 17.9481 227.121 18.2073C226.514 18.4664 225.975 18.8622 225.546 19.3637C224.669 20.3532 224.271 21.8076 224.271 23.667V38.8086H214.462V0.144531H224.231V12.291C225.259 11.4268 226.433 10.7523 227.697 10.2987C229.01 9.78396 230.412 9.53563 231.822 9.56815" fill="white"></path><path fill-rule="evenodd" clip-rule="evenodd" d="M5.54529 85.4551C6.64289 85.4551 7.71579 85.7808 8.62813 86.391C9.54047 87.0012 10.2512 87.8685 10.6703 88.8829C11.0894 89.8973 11.1981 91.0133 10.9825 92.0895C10.7669 93.1657 10.2368 94.1538 9.45928 94.9285C8.68177 95.7032 7.69184 96.2298 6.61485 96.4415C5.53787 96.6532 4.42228 96.5405 3.40937 96.1177C2.39646 95.695 1.5318 94.9811 0.924878 94.0666C0.31796 93.1521 -0.00390765 92.078 3.58062e-05 90.9804C0.00881379 89.5161 0.597129 88.1148 1.63631 87.0831C2.67548 86.0514 4.08094 85.4732 5.54529 85.475" fill="white"></path></svg> 