<?xml version="1.0" encoding="UTF-8"?> <svg xmlns="http://www.w3.org/2000/svg" width="540" height="182" viewBox="0 0 540 182" fill="none"><mask id="path-1-inside-1_21_10940" fill="white"><path d="M0.484887 0.0542537H43.3899V72.9928H43.8666C47.3626 68.2256 50.7791 64.6502 54.1162 62.2665C57.6121 59.8829 59.9957 58.2939 61.267 57.4993C64.4452 55.7513 67.9411 54.4006 71.7549 53.4472C75.7276 52.3348 80.2565 51.7786 85.3415 51.7786C92.9691 51.7786 99.5637 52.891 105.125 55.1157C110.846 57.3404 115.693 60.5186 119.666 64.6502C121.096 66.0803 122.526 67.9078 123.956 70.1325C125.545 72.1983 126.975 74.7408 128.247 77.76C129.518 80.6204 130.551 84.0369 131.345 88.0096C132.299 91.9822 132.775 96.4317 132.775 101.358V178.825H89.8704V118.758C89.8704 117.328 89.7909 115.421 89.632 113.037C89.4731 110.654 89.1553 108.191 88.6786 105.648C88.2018 102.947 87.4073 100.404 86.2949 98.0207C85.3415 95.6371 83.9113 93.5713 82.0044 91.8233C79.9386 89.9165 77.7934 88.7246 75.5687 88.2479C73.5029 87.7712 71.6754 87.5328 70.0864 87.5328C65.1602 87.5328 61.0286 88.4863 57.6916 90.3932C54.3545 92.1412 51.5736 94.7631 49.3489 98.2591C47.7599 100.802 46.3297 104.218 45.0584 108.509C43.9461 112.799 43.3899 118.758 43.3899 126.386V178.825H0.484887V0.0542537ZM190.625 181.686C184.427 181.686 178.468 180.891 172.747 179.302C167.186 177.713 162.26 175.329 157.969 172.151C153.837 168.973 150.5 165 147.958 160.233C145.415 155.307 144.144 149.586 144.144 143.071C144.144 134.331 145.892 127.18 149.388 121.618C153.043 116.057 157.81 111.766 163.69 108.747C169.728 105.569 176.561 103.424 184.189 102.311C191.975 101.199 200 100.643 208.263 100.643H228.286C228.445 96.8289 227.65 93.6508 225.902 91.1083C224.313 88.5657 222.088 86.4999 219.228 84.9109C216.526 83.3218 213.428 82.2094 209.932 81.5738C206.436 80.7793 202.94 80.382 199.444 80.382C193.405 80.382 187.129 81.0971 180.613 82.5273C174.098 83.7985 167.106 86.341 159.638 90.1548V60.598C166.153 57.8966 173.383 55.7513 181.328 54.1623C189.433 52.5732 198.49 51.7786 208.502 51.7786C216.606 51.7786 224.313 52.7321 231.623 54.639C238.932 56.5459 245.289 59.5651 250.692 63.6967C256.094 67.8283 260.385 73.1517 263.563 79.6669C266.741 86.1821 268.33 94.048 268.33 103.265V178.825H230.431V159.28H229.954C225.823 166.43 220.34 171.992 213.507 175.965C206.833 179.779 199.206 181.686 190.625 181.686ZM201.589 153.082C205.562 153.082 209.137 152.288 212.315 150.699C215.494 149.109 218.195 146.964 220.42 144.263C222.644 141.561 224.392 138.383 225.664 134.728C226.935 131.073 227.809 127.18 228.286 123.049H211.6C202.543 123.049 195.71 124.24 191.101 126.624C186.493 129.008 184.189 133.298 184.189 139.496C184.189 144.104 186.016 147.52 189.671 149.745C193.326 151.97 197.299 153.082 201.589 153.082ZM359.962 181.686C349.156 181.686 339.224 180.176 330.166 177.157C321.268 174.137 313.561 169.847 307.045 164.285C300.53 158.564 295.445 151.731 291.79 143.786C288.294 135.682 286.546 126.704 286.546 116.851C286.546 107.158 288.294 98.3385 291.79 90.3932C295.286 82.2889 300.212 75.3764 306.569 69.6557C313.084 63.9351 320.87 59.5651 329.928 56.5459C338.986 53.3677 349.156 51.7786 360.438 51.7786C365.523 51.7786 370.767 52.2554 376.17 53.2088C381.573 54.1623 387.135 55.9897 392.855 58.6911V90.1548C387.77 87.1356 382.526 85.2287 377.124 84.4341C371.88 83.6396 367.907 83.2423 365.206 83.2423C360.438 83.2423 355.909 84.0369 351.619 85.6259C347.487 87.215 343.912 89.5192 340.893 92.5384C337.873 95.3988 335.49 98.8947 333.742 103.026C331.994 107.158 331.12 111.766 331.12 116.851C331.12 122.89 332.232 128.054 334.457 132.345C336.682 136.476 339.542 139.893 343.038 142.594C346.534 145.137 350.427 147.044 354.718 148.315C359.008 149.586 363.299 150.222 367.589 150.222C370.291 150.222 373.945 149.904 378.554 149.268C383.321 148.633 388.485 146.964 394.047 144.263V176.203C391.028 177.157 386.658 178.269 380.937 179.54C375.376 180.97 368.384 181.686 359.962 181.686ZM409.535 0.0542537H452.44V106.84H452.917L488.671 54.639H535.628L492.485 111.607L539.204 178.825H487.241L452.917 117.328H452.44V178.825H409.535V0.0542537Z"></path></mask><path d="M0.484887 0.0542537H43.3899V72.9928H43.8666C47.3626 68.2256 50.7791 64.6502 54.1162 62.2665C57.6121 59.8829 59.9957 58.2939 61.267 57.4993C64.4452 55.7513 67.9411 54.4006 71.7549 53.4472C75.7276 52.3348 80.2565 51.7786 85.3415 51.7786C92.9691 51.7786 99.5637 52.891 105.125 55.1157C110.846 57.3404 115.693 60.5186 119.666 64.6502C121.096 66.0803 122.526 67.9078 123.956 70.1325C125.545 72.1983 126.975 74.7408 128.247 77.76C129.518 80.6204 130.551 84.0369 131.345 88.0096C132.299 91.9822 132.775 96.4317 132.775 101.358V178.825H89.8704V118.758C89.8704 117.328 89.7909 115.421 89.632 113.037C89.4731 110.654 89.1553 108.191 88.6786 105.648C88.2018 102.947 87.4073 100.404 86.2949 98.0207C85.3415 95.6371 83.9113 93.5713 82.0044 91.8233C79.9386 89.9165 77.7934 88.7246 75.5687 88.2479C73.5029 87.7712 71.6754 87.5328 70.0864 87.5328C65.1602 87.5328 61.0286 88.4863 57.6916 90.3932C54.3545 92.1412 51.5736 94.7631 49.3489 98.2591C47.7599 100.802 46.3297 104.218 45.0584 108.509C43.9461 112.799 43.3899 118.758 43.3899 126.386V178.825H0.484887V0.0542537ZM190.625 181.686C184.427 181.686 178.468 180.891 172.747 179.302C167.186 177.713 162.26 175.329 157.969 172.151C153.837 168.973 150.5 165 147.958 160.233C145.415 155.307 144.144 149.586 144.144 143.071C144.144 134.331 145.892 127.18 149.388 121.618C153.043 116.057 157.81 111.766 163.69 108.747C169.728 105.569 176.561 103.424 184.189 102.311C191.975 101.199 200 100.643 208.263 100.643H228.286C228.445 96.8289 227.65 93.6508 225.902 91.1083C224.313 88.5657 222.088 86.4999 219.228 84.9109C216.526 83.3218 213.428 82.2094 209.932 81.5738C206.436 80.7793 202.94 80.382 199.444 80.382C193.405 80.382 187.129 81.0971 180.613 82.5273C174.098 83.7985 167.106 86.341 159.638 90.1548V60.598C166.153 57.8966 173.383 55.7513 181.328 54.1623C189.433 52.5732 198.49 51.7786 208.502 51.7786C216.606 51.7786 224.313 52.7321 231.623 54.639C238.932 56.5459 245.289 59.5651 250.692 63.6967C256.094 67.8283 260.385 73.1517 263.563 79.6669C266.741 86.1821 268.33 94.048 268.33 103.265V178.825H230.431V159.28H229.954C225.823 166.43 220.34 171.992 213.507 175.965C206.833 179.779 199.206 181.686 190.625 181.686ZM201.589 153.082C205.562 153.082 209.137 152.288 212.315 150.699C215.494 149.109 218.195 146.964 220.42 144.263C222.644 141.561 224.392 138.383 225.664 134.728C226.935 131.073 227.809 127.18 228.286 123.049H211.6C202.543 123.049 195.71 124.24 191.101 126.624C186.493 129.008 184.189 133.298 184.189 139.496C184.189 144.104 186.016 147.52 189.671 149.745C193.326 151.97 197.299 153.082 201.589 153.082ZM359.962 181.686C349.156 181.686 339.224 180.176 330.166 177.157C321.268 174.137 313.561 169.847 307.045 164.285C300.53 158.564 295.445 151.731 291.79 143.786C288.294 135.682 286.546 126.704 286.546 116.851C286.546 107.158 288.294 98.3385 291.79 90.3932C295.286 82.2889 300.212 75.3764 306.569 69.6557C313.084 63.9351 320.87 59.5651 329.928 56.5459C338.986 53.3677 349.156 51.7786 360.438 51.7786C365.523 51.7786 370.767 52.2554 376.17 53.2088C381.573 54.1623 387.135 55.9897 392.855 58.6911V90.1548C387.77 87.1356 382.526 85.2287 377.124 84.4341C371.88 83.6396 367.907 83.2423 365.206 83.2423C360.438 83.2423 355.909 84.0369 351.619 85.6259C347.487 87.215 343.912 89.5192 340.893 92.5384C337.873 95.3988 335.49 98.8947 333.742 103.026C331.994 107.158 331.12 111.766 331.12 116.851C331.12 122.89 332.232 128.054 334.457 132.345C336.682 136.476 339.542 139.893 343.038 142.594C346.534 145.137 350.427 147.044 354.718 148.315C359.008 149.586 363.299 150.222 367.589 150.222C370.291 150.222 373.945 149.904 378.554 149.268C383.321 148.633 388.485 146.964 394.047 144.263V176.203C391.028 177.157 386.658 178.269 380.937 179.54C375.376 180.97 368.384 181.686 359.962 181.686ZM409.535 0.0542537H452.44V106.84H452.917L488.671 54.639H535.628L492.485 111.607L539.204 178.825H487.241L452.917 117.328H452.44V178.825H409.535V0.0542537Z" fill="white"></path><path d="M0.484887 0.0542537V-3.70934H-3.27871V0.0542537H0.484887ZM43.3899 0.0542537H47.1535V-3.70934H43.3899V0.0542537ZM43.3899 72.9928H39.6263V76.7564H43.3899V72.9928ZM43.8666 72.9928V76.7564H45.7738L46.9016 75.2185L43.8666 72.9928ZM54.1162 62.2665L51.996 59.157L51.9621 59.1801L51.9286 59.204L54.1162 62.2665ZM61.267 57.4993L59.4533 54.2016L59.3613 54.2522L59.2723 54.3078L61.267 57.4993ZM71.7549 53.4472L72.6677 57.0984L72.7189 57.0856L72.7697 57.0714L71.7549 53.4472ZM105.125 55.1157L103.728 58.6101L103.745 58.6168L103.761 58.6234L105.125 55.1157ZM119.666 64.6502L116.953 67.2587L116.978 67.2853L117.004 67.3114L119.666 64.6502ZM123.956 70.1325L120.79 72.1677L120.876 72.3013L120.973 72.4272L123.956 70.1325ZM128.247 77.76L124.778 79.2205L124.792 79.2547L124.807 79.2886L128.247 77.76ZM131.345 88.0096L127.655 88.7477L127.669 88.8181L127.686 88.8879L131.345 88.0096ZM132.775 178.825V182.589H136.539V178.825H132.775ZM89.8704 178.825H86.1068V182.589H89.8704V178.825ZM89.632 113.037L85.8767 113.288L85.8767 113.288L89.632 113.037ZM88.6786 105.648L84.9722 106.302L84.9757 106.322L84.9794 106.342L88.6786 105.648ZM86.2949 98.0207L82.8005 99.4185L82.8398 99.5166L82.8844 99.6123L86.2949 98.0207ZM82.0044 91.8233L79.4516 94.5889L79.4613 94.5977L82.0044 91.8233ZM75.5687 88.2479L74.7224 91.9151L74.7512 91.9218L74.7801 91.928L75.5687 88.2479ZM57.6916 90.3932L59.4379 93.7271L59.499 93.6951L59.5589 93.6609L57.6916 90.3932ZM49.3489 98.2591L46.1737 96.2385L46.1655 96.2514L46.1574 96.2644L49.3489 98.2591ZM45.0584 108.509L41.4499 107.439L41.4315 107.501L41.4153 107.564L45.0584 108.509ZM43.3899 178.825V182.589H47.1535V178.825H43.3899ZM0.484887 178.825H-3.27871V182.589H0.484887V178.825ZM0.484887 3.81785H43.3899V-3.70934H0.484887V3.81785ZM39.6263 0.0542537V72.9928H47.1535V0.0542537H39.6263ZM43.3899 76.7564H43.8666V69.2292H43.3899V76.7564ZM46.9016 75.2185C50.2563 70.644 53.4007 67.4027 56.3037 65.3291L51.9286 59.204C48.1575 61.8976 44.4689 65.8072 40.8316 70.7671L46.9016 75.2185ZM56.2363 65.3761C59.7398 62.9874 62.0636 61.4397 63.2617 60.6909L59.2723 54.3078C57.9279 55.148 55.4845 56.7784 51.996 59.157L56.2363 65.3761ZM63.0808 60.797C65.9524 59.2176 69.1421 57.9798 72.6677 57.0984L70.8421 49.796C66.7402 50.8214 62.9379 52.285 59.4533 54.2016L63.0808 60.797ZM72.7697 57.0714C76.3459 56.07 80.5232 55.5422 85.3415 55.5422V48.015C79.9897 48.015 75.1093 48.5996 70.7401 49.823L72.7697 57.0714ZM85.3415 55.5422C92.6157 55.5422 98.7137 56.6045 103.728 58.6101L106.523 51.6213C100.414 49.1775 93.3224 48.015 85.3415 48.015V55.5422ZM103.761 58.6234C109.009 60.6642 113.385 63.5488 116.953 67.2587L122.378 62.0416C118 57.4884 112.683 54.0166 106.49 51.608L103.761 58.6234ZM117.004 67.3114C118.197 68.5038 119.464 70.1042 120.79 72.1677L127.122 68.0973C125.588 65.7113 123.995 63.6568 122.327 61.9889L117.004 67.3114ZM120.973 72.4272C122.322 74.1812 123.601 76.4265 124.778 79.2205L131.715 76.2995C130.349 73.0551 128.768 70.2153 126.939 67.8378L120.973 72.4272ZM124.807 79.2886C125.939 81.8341 126.9 84.972 127.655 88.7477L135.036 87.2715C134.202 83.1018 133.097 79.4066 131.686 76.2315L124.807 79.2886ZM127.686 88.8879C128.558 92.5212 129.012 96.6691 129.012 101.358H136.539C136.539 96.1942 136.04 91.4433 135.005 87.1312L127.686 88.8879ZM129.012 101.358V178.825H136.539V101.358H129.012ZM132.775 175.062H89.8704V182.589H132.775V175.062ZM93.634 178.825V118.758H86.1068V178.825H93.634ZM93.634 118.758C93.634 117.208 93.5486 115.207 93.3873 112.787L85.8767 113.288C86.0332 115.635 86.1068 117.448 86.1068 118.758H93.634ZM93.3873 112.787C93.2177 110.243 92.8796 107.632 92.3777 104.955L84.9794 106.342C85.4309 108.75 85.7285 111.065 85.8767 113.288L93.3873 112.787ZM92.3849 104.994C91.8534 101.983 90.9628 99.1235 89.7054 96.4292L82.8844 99.6123C83.8517 101.685 84.5502 103.911 84.9722 106.302L92.3849 104.994ZM89.7893 96.623C88.6245 93.7108 86.8676 91.1756 84.5476 89.049L79.4613 94.5977C80.9551 95.967 82.0585 97.5635 82.8005 99.4185L89.7893 96.623ZM84.5572 89.0578C82.112 86.8007 79.3803 85.2157 76.3573 84.5679L74.7801 91.928C76.2064 92.2336 77.7653 93.0322 79.4517 94.5888L84.5572 89.0578ZM76.415 84.5807C74.1576 84.0598 72.0367 83.7692 70.0864 83.7692V91.2964C71.3142 91.2964 72.8482 91.4826 74.7224 91.9151L76.415 84.5807ZM70.0864 83.7692C64.6859 83.7692 59.8686 84.8144 55.8243 87.1255L59.5589 93.6609C62.1886 92.1582 65.6346 91.2964 70.0864 91.2964V83.7692ZM55.9452 87.0593C51.9682 89.1425 48.7155 92.2444 46.1737 96.2385L52.5241 100.28C54.4318 97.2819 56.7408 95.1398 59.4379 93.7271L55.9452 87.0593ZM46.1574 96.2644C44.3232 99.1992 42.7752 102.966 41.4499 107.439L48.667 109.578C49.8842 105.47 51.1966 102.404 52.5405 100.254L46.1574 96.2644ZM41.4153 107.564C40.1858 112.307 39.6263 118.633 39.6263 126.386H47.1535C47.1535 118.883 47.7064 113.292 48.7016 109.453L41.4153 107.564ZM39.6263 126.386V178.825H47.1535V126.386H39.6263ZM43.3899 175.062H0.484887V182.589H43.3899V175.062ZM4.24849 178.825V0.0542537H-3.27871V178.825H4.24849ZM172.747 179.302L171.714 182.921L171.727 182.925L171.74 182.928L172.747 179.302ZM157.969 172.151L155.674 175.134L155.701 175.155L155.729 175.175L157.969 172.151ZM147.958 160.233L144.613 161.959L144.625 161.982L144.637 162.004L147.958 160.233ZM149.388 121.618L146.243 119.552L146.222 119.583L146.202 119.616L149.388 121.618ZM163.69 108.747L165.409 112.095L165.426 112.086L165.443 112.077L163.69 108.747ZM184.189 102.311L183.657 98.5854L183.646 98.587L184.189 102.311ZM228.286 100.643V104.406H231.896L232.046 100.799L228.286 100.643ZM225.902 91.1083L222.71 93.103L222.754 93.1727L222.801 93.2404L225.902 91.1083ZM219.228 84.9109L217.32 88.1548L217.36 88.1783L217.4 88.2008L219.228 84.9109ZM209.932 81.5738L209.098 85.2438L209.178 85.262L209.259 85.2767L209.932 81.5738ZM180.613 82.5273L181.334 86.2212L181.377 86.2128L181.42 86.2033L180.613 82.5273ZM159.638 90.1548H155.874V96.3025L161.349 93.5067L159.638 90.1548ZM159.638 60.598L158.196 57.1214L155.874 58.0842V60.598H159.638ZM181.328 54.1623L180.604 50.469L180.597 50.4704L180.59 50.4718L181.328 54.1623ZM250.692 63.6967L248.405 66.6864L248.405 66.6864L250.692 63.6967ZM263.563 79.6669L260.18 81.317L260.18 81.317L263.563 79.6669ZM268.33 178.825V182.589H272.094V178.825H268.33ZM230.431 178.825H226.667V182.589H230.431V178.825ZM230.431 159.28H234.194V155.516H230.431V159.28ZM229.954 159.28V155.516H227.782L226.695 157.397L229.954 159.28ZM213.507 175.965L215.374 179.233L215.387 179.226L215.399 179.219L213.507 175.965ZM212.315 150.699L210.632 147.332L210.632 147.332L212.315 150.699ZM220.42 144.263L217.514 141.87L217.514 141.87L220.42 144.263ZM225.664 134.728L229.218 135.965L229.218 135.965L225.664 134.728ZM228.286 123.049L232.024 123.48L232.508 119.285H228.286V123.049ZM191.101 126.624L192.83 129.967L192.83 129.967L191.101 126.624ZM189.671 149.745L191.628 146.53L191.628 146.53L189.671 149.745ZM190.625 177.922C184.753 177.922 179.133 177.17 173.755 175.676L171.74 182.928C177.803 184.612 184.102 185.449 190.625 185.449V177.922ZM173.781 175.683C168.618 174.208 164.107 172.014 160.209 169.127L155.729 175.175C160.412 178.644 165.754 181.218 171.714 182.921L173.781 175.683ZM160.264 169.168C156.572 166.328 153.579 162.774 151.279 158.462L144.637 162.004C147.422 167.226 151.103 171.618 155.674 175.134L160.264 169.168ZM151.302 158.507C149.08 154.201 147.908 149.091 147.908 143.071H140.38C140.38 150.082 141.751 156.413 144.613 161.959L151.302 158.507ZM147.908 143.071C147.908 134.811 149.561 128.415 152.574 123.621L146.202 119.616C142.223 125.945 140.38 133.851 140.38 143.071H147.908ZM152.533 123.685C155.834 118.663 160.112 114.815 165.409 112.095L161.97 105.399C155.509 108.717 150.252 113.451 146.243 119.552L152.533 123.685ZM165.443 112.077C171.058 109.122 177.473 107.094 184.732 106.035L183.646 98.587C175.65 99.7531 168.399 102.015 161.937 105.417L165.443 112.077ZM184.721 106.037C192.323 104.951 200.169 104.406 208.263 104.406V96.8791C199.831 96.8791 191.628 97.4467 183.657 98.5855L184.721 106.037ZM208.263 104.406H228.286V96.8791H208.263V104.406ZM232.046 100.799C232.231 96.3681 231.313 92.336 229.003 88.9761L222.801 93.2404C223.987 94.9656 224.658 97.2898 224.525 100.486L232.046 100.799ZM229.094 89.1135C227.137 85.9824 224.421 83.4904 221.056 81.6209L217.4 88.2008C219.756 89.5095 221.489 91.1491 222.71 93.103L229.094 89.1135ZM221.136 81.6669C218.006 79.8255 214.479 78.5752 210.605 77.8709L209.259 85.2767C212.377 85.8436 215.047 86.818 217.32 88.1548L221.136 81.6669ZM210.766 77.9038C207.003 77.0487 203.228 76.6184 199.444 76.6184V84.1456C202.652 84.1456 205.868 84.5099 209.098 85.2438L210.766 77.9038ZM199.444 76.6184C193.108 76.6184 186.559 77.3688 179.806 78.8512L181.42 86.2033C187.698 84.8254 193.703 84.1456 199.444 84.1456V76.6184ZM179.893 78.8333C172.956 80.1868 165.629 82.8694 157.926 86.8029L161.349 93.5067C168.583 89.8127 175.24 87.4103 181.334 86.2212L179.893 78.8333ZM163.401 90.1548V60.598H155.874V90.1548H163.401ZM161.079 64.0746C167.337 61.48 174.327 59.4006 182.067 57.8528L180.59 50.4718C172.439 52.1021 164.969 54.3132 158.196 57.1214L161.079 64.0746ZM182.053 57.8555C189.874 56.3218 198.684 55.5422 208.502 55.5422V48.015C198.297 48.015 188.991 48.8245 180.604 50.469L182.053 57.8555ZM208.502 55.5422C216.309 55.5422 223.695 56.4604 230.673 58.2807L232.573 50.9973C224.931 49.0038 216.903 48.015 208.502 48.015V55.5422ZM230.673 58.2807C237.552 60.0753 243.442 62.8908 248.405 66.6864L252.978 60.7071C247.135 56.2394 240.313 53.0165 232.573 50.9973L230.673 58.2807ZM248.405 66.6864C253.313 70.4395 257.241 75.292 260.18 81.317L266.946 78.0169C263.528 71.0114 258.876 65.2171 252.978 60.7071L248.405 66.6864ZM260.18 81.317C263.049 87.1982 264.567 94.4693 264.567 103.265H272.094C272.094 93.6268 270.433 85.166 266.946 78.0169L260.18 81.317ZM264.567 103.265V178.825H272.094V103.265H264.567ZM268.33 175.062H230.431V182.589H268.33V175.062ZM234.194 178.825V159.28H226.667V178.825H234.194ZM230.431 155.516H229.954V163.043H230.431V155.516ZM226.695 157.397C222.877 164.006 217.855 169.083 211.616 172.711L215.399 179.219C222.825 174.901 228.768 168.855 233.213 161.162L226.695 157.397ZM211.64 172.697C205.598 176.149 198.628 177.922 190.625 177.922V185.449C199.783 185.449 208.068 183.408 215.374 179.233L211.64 172.697ZM201.589 156.846C206.076 156.846 210.239 155.945 213.999 154.065L210.632 147.332C208.036 148.631 205.047 149.319 201.589 149.319V156.846ZM213.999 154.065C217.64 152.244 220.76 149.77 223.325 146.655L217.514 141.87C215.63 144.159 213.347 145.975 210.632 147.332L213.999 154.065ZM223.325 146.655C225.861 143.576 227.816 139.996 229.218 135.965L222.109 133.492C220.969 136.77 219.428 139.547 217.514 141.87L223.325 146.655ZM229.218 135.965C230.587 132.031 231.518 127.866 232.024 123.48L224.547 122.617C224.099 126.495 223.283 130.116 222.109 133.492L229.218 135.965ZM228.286 119.285H211.6V126.812H228.286V119.285ZM211.6 119.285C202.328 119.285 194.776 120.486 189.372 123.281L192.83 129.967C196.643 127.995 202.758 126.812 211.6 126.812V119.285ZM189.372 123.281C183.246 126.45 180.425 132.222 180.425 139.496H187.952C187.952 134.375 189.74 131.565 192.83 129.967L189.372 123.281ZM180.425 139.496C180.425 145.295 182.837 149.991 187.714 152.96L191.628 146.53C189.196 145.05 187.952 142.913 187.952 139.496H180.425ZM187.714 152.96C191.96 155.545 196.61 156.846 201.589 156.846V149.319C197.987 149.319 194.691 148.395 191.628 146.53L187.714 152.96ZM330.166 177.157L328.957 180.721L328.967 180.724L328.976 180.727L330.166 177.157ZM307.045 164.285L304.562 167.113L304.582 167.131L304.602 167.148L307.045 164.285ZM291.79 143.786L288.334 145.277L288.352 145.318L288.371 145.359L291.79 143.786ZM291.79 90.3932L295.235 91.9089L295.241 91.8964L295.246 91.8839L291.79 90.3932ZM306.569 69.6557L304.085 66.8276L304.068 66.8428L304.051 66.8583L306.569 69.6557ZM329.928 56.5459L331.118 60.1163L331.146 60.107L331.174 60.0972L329.928 56.5459ZM376.17 53.2088L375.516 56.9152L375.516 56.9152L376.17 53.2088ZM392.855 58.6911H396.619V56.3063L394.463 55.2879L392.855 58.6911ZM392.855 90.1548L390.934 93.391L396.619 96.7665V90.1548H392.855ZM377.124 84.4341L376.56 88.1553L376.568 88.1565L376.576 88.1577L377.124 84.4341ZM351.619 85.6259L350.312 82.0966L350.29 82.1048L350.268 82.1132L351.619 85.6259ZM340.893 92.5384L343.481 95.2706L343.518 95.2356L343.554 95.1997L340.893 92.5384ZM333.742 103.026L337.208 104.493L337.208 104.493L333.742 103.026ZM334.457 132.345L331.116 134.077L331.129 134.103L331.143 134.129L334.457 132.345ZM343.038 142.594L340.737 145.572L340.78 145.606L340.824 145.638L343.038 142.594ZM354.718 148.315L353.648 151.923L353.648 151.923L354.718 148.315ZM378.554 149.268L378.056 145.538L378.048 145.539L378.039 145.54L378.554 149.268ZM394.047 144.263H397.811V138.251L392.403 140.877L394.047 144.263ZM394.047 176.203L395.181 179.792L397.811 178.962V176.203H394.047ZM380.937 179.54L380.121 175.866L380.06 175.88L380 175.895L380.937 179.54ZM359.962 177.922C349.508 177.922 339.984 176.462 331.357 173.586L328.976 180.727C338.465 183.89 348.804 185.449 359.962 185.449V177.922ZM331.376 173.593C322.885 170.712 315.607 166.646 309.489 161.423L304.602 167.148C311.514 173.048 319.65 177.563 328.957 180.721L331.376 173.593ZM309.529 161.457C303.413 156.088 298.646 149.684 295.209 142.213L288.371 145.359C292.244 153.779 297.647 161.041 304.562 167.113L309.529 161.457ZM295.246 142.295C291.976 134.714 290.31 126.251 290.31 116.851H282.783C282.783 127.157 284.613 136.65 288.334 145.277L295.246 142.295ZM290.31 116.851C290.31 107.619 291.973 99.3237 295.235 91.9089L288.345 88.8774C284.616 97.3534 282.783 106.697 282.783 116.851H290.31ZM295.246 91.8839C298.534 84.2613 303.146 77.7992 309.086 72.4532L304.051 66.8583C297.278 72.9536 292.038 80.3165 288.334 88.9024L295.246 91.8839ZM309.052 72.4839C315.153 67.1265 322.488 62.993 331.118 60.1163L328.738 52.9754C319.252 56.1373 311.014 60.7437 304.085 66.8276L309.052 72.4839ZM331.174 60.0972C339.768 57.0818 349.508 55.5422 360.438 55.5422V48.015C348.804 48.015 338.203 49.6537 328.682 52.9945L331.174 60.0972ZM360.438 55.5422C365.288 55.5422 370.312 55.9968 375.516 56.9152L376.824 49.5025C371.222 48.5139 365.759 48.015 360.438 48.015V55.5422ZM375.516 56.9152C380.543 57.8023 385.785 59.5146 391.248 62.0944L394.463 55.2879C388.484 52.4648 382.603 50.5222 376.824 49.5025L375.516 56.9152ZM389.092 58.6911V90.1548H396.619V58.6911H389.092ZM394.777 86.9187C389.305 83.6699 383.598 81.5822 377.671 80.7106L376.576 88.1577C381.455 88.8751 386.235 90.6012 390.934 93.391L394.777 86.9187ZM377.687 80.713C372.398 79.9117 368.199 79.4787 365.206 79.4787V87.0059C367.615 87.0059 371.361 87.3675 376.56 88.1553L377.687 80.713ZM365.206 79.4787C360.011 79.4787 355.038 80.3462 350.312 82.0966L352.926 89.1553C356.781 87.7276 360.865 87.0059 365.206 87.0059V79.4787ZM350.268 82.1132C345.663 83.8842 341.637 86.4718 338.231 89.8772L343.554 95.1997C346.187 92.5666 349.311 90.5458 352.97 89.1387L350.268 82.1132ZM338.304 89.8062C334.879 93.0508 332.21 96.9884 330.276 101.56L337.208 104.493C338.77 100.801 340.867 97.7467 343.481 95.2706L338.304 89.8062ZM330.276 101.56C328.307 106.213 327.356 111.329 327.356 116.851H334.883C334.883 112.203 335.681 108.102 337.208 104.493L330.276 101.56ZM327.356 116.851C327.356 123.345 328.553 129.134 331.116 134.077L337.798 130.612C335.912 126.974 334.883 122.434 334.883 116.851H327.356ZM331.143 134.129C333.602 138.696 336.798 142.529 340.737 145.572L345.339 139.616C342.286 137.257 339.761 134.257 337.771 130.56L331.143 134.129ZM340.824 145.638C344.679 148.441 348.962 150.535 353.648 151.923L355.787 144.706C351.893 143.553 348.389 141.832 345.252 139.551L340.824 145.638ZM353.648 151.923C358.271 153.293 362.921 153.985 367.589 153.985V146.458C363.676 146.458 359.745 145.879 355.787 144.706L353.648 151.923ZM367.589 153.985C370.542 153.985 374.392 153.642 379.068 152.997L378.039 145.54C373.499 146.166 370.039 146.458 367.589 146.458V153.985ZM379.051 152.999C384.312 152.298 389.866 150.478 395.692 147.648L392.403 140.877C387.105 143.451 382.33 144.968 378.056 145.538L379.051 152.999ZM390.284 144.263V176.203H397.811V144.263H390.284ZM392.914 172.614C390.052 173.518 385.808 174.602 380.121 175.866L381.754 183.214C387.508 181.936 392.004 180.795 395.181 179.792L392.914 172.614ZM380 175.895C374.851 177.219 368.2 177.922 359.962 177.922V185.449C368.567 185.449 375.901 184.721 381.875 183.185L380 175.895ZM409.535 0.0542537V-3.70934H405.772V0.0542537H409.535ZM452.44 0.0542537H456.204V-3.70934H452.44V0.0542537ZM452.44 106.84H448.677V110.604H452.44V106.84ZM452.917 106.84V110.604H454.901L456.022 108.967L452.917 106.84ZM488.671 54.639V50.8754H486.687L485.566 52.5122L488.671 54.639ZM535.628 54.639L538.629 56.9112L543.2 50.8754H535.628V54.639ZM492.485 111.607L489.485 109.335L487.836 111.513L489.394 113.755L492.485 111.607ZM539.204 178.825V182.589H546.403L542.294 176.677L539.204 178.825ZM487.241 178.825L483.955 180.659L485.031 182.589H487.241V178.825ZM452.917 117.328L456.203 115.494L455.126 113.564H452.917V117.328ZM452.44 117.328V113.564H448.677V117.328H452.44ZM452.44 178.825V182.589H456.204V178.825H452.44ZM409.535 178.825H405.772V182.589H409.535V178.825ZM409.535 3.81785H452.44V-3.70934H409.535V3.81785ZM448.677 0.0542537V106.84H456.204V0.0542537H448.677ZM452.44 110.604H452.917V103.076H452.44V110.604ZM456.022 108.967L491.776 56.7658L485.566 52.5122L449.812 104.713L456.022 108.967ZM488.671 58.4026H535.628V50.8754H488.671V58.4026ZM532.628 52.3668L489.485 109.335L495.485 113.88L538.629 56.9112L532.628 52.3668ZM489.394 113.755L536.113 180.973L542.294 176.677L495.575 109.459L489.394 113.755ZM539.204 175.062H487.241V182.589H539.204V175.062ZM490.527 176.991L456.203 115.494L449.63 119.162L483.955 180.659L490.527 176.991ZM452.917 113.564H452.44V121.092H452.917V113.564ZM448.677 117.328V178.825H456.204V117.328H448.677ZM452.44 175.062H409.535V182.589H452.44V175.062ZM413.299 178.825V0.0542537H405.772V178.825H413.299Z" fill="white" mask="url(#path-1-inside-1_21_10940)"></path></svg> 